<?xml version="1.0" standalone="no"?>
<!DOCTYPE svg PUBLIC "-//W3C//DTD SVG 20010904//EN"
 "http://www.w3.org/TR/2001/REC-SVG-20010904/DTD/svg10.dtd">
<svg version="1.0" xmlns="http://www.w3.org/2000/svg"
 width="233.000000pt" height="216.000000pt" viewBox="0 0 233.000000 216.000000"
 preserveAspectRatio="xMidYMid meet">

<g transform="translate(0.000000,216.000000) scale(0.100000,-0.100000)"
fill="#000000" stroke="none">
<path d="M795 2134 c-103 -31 -211 -65 -230 -73 -11 -5 -51 -21 -90 -36 -144
-55 -315 -154 -315 -181 0 -8 24 -44 54 -80 30 -36 68 -91 84 -122 17 -31 58
-97 91 -147 48 -70 58 -92 48 -101 -6 -7 -48 -24 -92 -39 -44 -15 -113 -41
-152 -57 -80 -34 -87 -46 -57 -98 l17 -28 70 29 c38 16 76 29 83 29 7 0 25 6
41 14 102 52 139 63 116 34 -5 -7 -18 -38 -28 -68 -31 -99 -20 -410 15 -410 4
0 10 -8 14 -18 18 -53 121 -151 158 -152 22 0 135 -105 155 -144 22 -41 19
-70 -16 -154 -32 -78 -71 -210 -71 -242 0 -11 4 -20 10 -20 13 0 62 22 80 36
8 6 25 15 38 19 25 7 25 7 6 -98 -5 -25 -3 -27 25 -27 30 0 31 1 31 49 0 27 3
63 6 80 6 28 10 31 43 30 20 -1 28 -3 17 -6 -35 -9 -46 -30 -45 -85 l1 -53 12
50 c11 48 14 50 52 57 72 12 93 20 111 40 17 19 17 19 -7 14 -48 -11 -65 -10
-89 3 -14 8 -38 11 -57 8 l-34 -6 0 72 c0 102 -31 185 -95 256 -43 47 -35 66
24 58 53 -7 68 -20 81 -68 9 -32 15 -39 35 -39 28 0 31 -11 13 -40 -12 -18 -9
-24 24 -54 20 -18 43 -47 52 -64 9 -17 25 -33 36 -37 11 -3 20 -11 20 -17 0
-6 2 -9 5 -6 3 3 -6 31 -20 63 -28 65 -34 158 -11 188 13 17 16 16 39 -15 23
-30 25 -40 20 -103 -4 -57 -1 -79 16 -118 12 -27 21 -51 21 -53 0 -10 -25 -2
-43 14 -19 16 -19 16 -12 -7 8 -27 53 -81 68 -81 5 0 20 -9 34 -20 14 -11 34
-20 45 -20 10 0 31 -12 45 -26 l26 -26 -6 31 c-5 22 0 41 16 68 19 33 22 53
23 148 0 111 8 155 25 155 23 0 5 41 -33 75 -39 35 -40 39 -23 51 16 12 20 11
31 -9 7 -12 16 -29 20 -37 3 -8 12 -28 19 -45 54 -121 104 -266 111 -320 3
-22 8 -64 12 -94 4 -31 13 -56 20 -59 14 -4 13 7 -14 147 -36 180 -45 206
-131 374 -30 59 -13 59 103 2 57 -28 102 -44 113 -40 25 8 111 94 125 125 48
107 117 190 157 190 44 0 59 -18 59 -70 0 -45 -2 -50 -22 -50 -13 0 -30 -5
-38 -10 -10 -7 11 -10 70 -10 59 0 80 3 70 10 -8 5 -25 10 -37 10 -21 0 -23 5
-23 48 0 27 3 52 7 56 12 12 12 70 1 77 -16 10 -1 38 25 48 48 19 67 57 67
137 0 108 4 104 -112 104 l-101 0 5 -85 c5 -78 8 -87 41 -126 l35 -43 -20 -38
c-15 -29 -26 -38 -45 -38 -44 0 -82 -38 -126 -127 -45 -93 -114 -173 -147
-173 -12 0 -45 13 -73 29 -29 16 -70 34 -92 40 -49 13 -104 46 -112 67 -7 20
9 50 54 99 66 72 103 187 103 317 0 68 1 70 23 63 64 -20 152 7 163 49 8 34
-3 75 -22 83 -24 9 -38 -11 -24 -34 10 -16 11 -15 6 7 -5 24 -4 24 10 5 18
-24 15 -34 -18 -58 -55 -41 -158 7 -158 73 0 16 -4 30 -9 30 -5 0 -13 15 -16
33 -4 17 -16 48 -26 69 -20 39 -85 98 -108 98 -8 0 -34 12 -59 26 l-45 27 44
14 c24 8 51 16 59 19 8 3 16 5 18 5 1 -1 18 6 38 14 20 8 45 15 54 15 10 0 20
3 22 8 2 4 36 18 76 31 l72 24 0 38 c0 38 0 38 -32 33 -18 -3 -51 -11 -73 -16
-22 -6 -49 -12 -60 -13 -11 -2 -40 -10 -65 -20 -25 -9 -75 -27 -112 -39 l-67
-23 -51 84 c-27 47 -50 88 -50 93 0 4 -7 13 -14 20 -8 6 -22 33 -32 58 -35
101 -56 145 -90 188 -18 25 -34 52 -34 60 0 18 -30 17 -95 -2z m290 -475 c4
-6 14 -8 24 -5 12 5 11 2 -3 -9 -11 -8 -25 -15 -30 -15 -6 0 -4 5 4 10 13 9
13 10 0 11 -8 1 -22 1 -30 0 -13 -2 -13 -1 0 8 19 14 27 14 35 0z m-90 -29
c-11 -5 -27 -9 -35 -9 -9 0 -8 4 5 9 11 5 27 9 35 9 9 0 8 -4 -5 -9z m-80 -29
c-3 -5 3 -12 12 -15 10 -2 1 -2 -19 1 -27 4 -38 2 -38 -8 0 -7 -3 -9 -7 -6 -3
4 -13 1 -22 -6 -14 -11 -14 -10 -2 6 7 9 28 21 45 26 17 5 32 10 34 10 2 1 1
-3 -3 -8z m-15 -35 c0 -2 -7 -7 -16 -10 -8 -3 -12 -2 -9 4 6 10 25 14 25 6z
m-145 -26 c-3 -5 -12 -10 -18 -10 -7 0 -6 4 3 10 19 12 23 12 15 0z m-15 -30
c-8 -5 -19 -10 -25 -10 -5 0 -3 5 5 10 8 5 20 10 25 10 6 0 3 -5 -5 -10z m-50
-20 c-8 -5 -19 -10 -25 -10 -5 0 -3 5 5 10 8 5 20 10 25 10 6 0 3 -5 -5 -10z
m585 -16 c89 -47 111 -77 141 -192 19 -73 19 -72 -30 -72 -86 0 -136 -38 -136
-102 0 -37 1 -38 35 -38 31 0 40 7 37 31 -3 19 51 52 85 53 l38 1 -1 -60 c-1
-76 -27 -223 -47 -261 -34 -65 -190 -176 -279 -200 -70 -18 -256 -25 -328 -12
-53 10 -168 67 -223 110 -24 19 -50 53 -65 86 -23 50 -24 62 -20 193 2 91 8
143 16 151 6 6 12 19 12 28 1 40 99 117 185 145 28 10 64 23 80 30 320 140
405 159 500 109z m-710 -4 c-3 -5 -1 -10 4 -10 6 0 11 -5 11 -12 0 -6 -3 -8
-7 -5 -3 4 -12 2 -19 -4 -9 -7 -12 -6 -10 3 2 16 15 38 22 38 3 0 2 -4 -1 -10z
m-90 -39 c3 -5 2 -12 -3 -15 -5 -3 -9 1 -9 9 0 17 3 19 12 6z m1563 -352 l3
-56 -47 -7 c-87 -12 -111 -8 -118 17 -8 30 -8 92 1 101 4 4 41 5 83 4 l75 -3
3 -56z m-757 -432 c9 -7 21 -22 28 -35 10 -20 10 -27 -3 -41 -22 -24 -21 -27
19 -62 37 -33 43 -54 22 -83 -12 -16 -13 -16 -29 1 -27 29 -68 119 -69 149 -1
17 -3 22 -6 12 -6 -25 -25 -22 -52 6 l-22 24 30 10 c17 6 31 8 31 4 0 -4 5 1
11 11 12 20 18 21 40 4z m-211 -64 c0 -7 -30 -63 -35 -63 -7 0 -35 62 -30 70
4 7 65 1 65 -7z m-90 -6 c26 -20 40 -65 40 -125 1 -31 7 -75 15 -97 18 -49 20
-79 3 -50 -6 11 -26 37 -45 58 -37 41 -39 53 -18 81 22 28 19 36 -14 36 -24 0
-32 8 -55 51 -14 28 -26 53 -26 55 0 10 86 2 100 -9z m191 -6 c17 -16 20 -26
14 -60 -4 -23 -11 -43 -15 -46 -14 -9 -40 50 -40 90 0 39 11 44 41 16z m114
-119 c24 -51 47 -114 51 -141 5 -43 4 -50 -17 -64 -12 -9 -25 -14 -29 -12 -4
3 -11 34 -15 69 -5 48 -15 80 -41 121 -19 32 -34 64 -34 73 0 15 30 55 37 49
2 -2 23 -45 48 -95z m-61 -54 c54 -119 60 -167 24 -192 -32 -23 -35 -21 -57
29 -29 65 -34 106 -21 153 13 51 34 54 54 10z m-383 -116 c1 -20 1 -56 0 -78
-1 -37 -4 -43 -33 -54 -18 -7 -43 -17 -55 -23 -13 -6 -25 -8 -28 -6 -2 3 5 34
16 70 11 35 21 69 23 74 20 83 55 124 68 79 3 -13 7 -41 9 -62z m495 -59 c-2
-10 -7 -31 -11 -48 -7 -33 -37 -75 -54 -75 -12 0 -26 64 -17 85 5 15 63 55 79
55 5 0 6 -8 3 -17z m-129 -44 c25 -8 32 -17 35 -43 3 -29 1 -32 -18 -28 -24 4
-84 55 -84 71 0 14 29 14 67 0z"/>
<path d="M970 1415 c-14 -16 -4 -35 34 -65 47 -38 56 -51 56 -84 0 -74 108
-124 179 -83 61 37 93 145 49 168 l-23 12 23 10 c29 13 29 32 0 21 -29 -10
-214 -17 -244 -10 -12 3 -26 15 -29 26 -8 24 -28 26 -45 5z m295 -75 c15 -7 9
-9 -26 -9 -33 -1 -60 -10 -102 -35 -52 -31 -57 -33 -57 -15 0 11 11 31 25 44
20 21 33 25 82 24 32 0 67 -4 78 -9z m-42 -52 c5 -18 8 -19 21 -9 9 8 13 18
10 23 -4 6 2 8 12 6 31 -6 21 -58 -18 -90 -40 -33 -100 -37 -137 -9 -20 15
-22 21 -12 40 15 27 69 61 97 61 14 0 24 -8 27 -22z"/>
<path d="M846 1336 c8 -32 -8 -40 -70 -37 -63 3 -120 -31 -154 -90 -17 -29
-29 -39 -47 -39 -14 0 -25 -4 -25 -10 0 -5 14 -10 31 -10 17 0 28 -4 24 -10
-3 -5 -17 -10 -29 -10 -13 0 -28 -6 -33 -12 -16 -21 -23 -48 -13 -48 6 0 10 7
10 15 0 29 34 15 79 -33 65 -67 92 -82 152 -82 58 0 114 32 142 83 27 45 22
130 -8 175 -14 20 -25 48 -25 62 0 41 -11 70 -26 70 -10 0 -13 -7 -8 -24z
m-102 -70 c-5 -12 -9 -14 -14 -6 -5 8 -9 7 -13 -5 -5 -11 -3 -14 5 -9 8 5 9 1
4 -12 -19 -46 -15 -45 11 3 25 49 29 52 57 47 49 -8 54 -20 28 -66 -12 -23
-21 -43 -19 -45 2 -1 15 18 30 44 20 38 27 44 32 30 4 -10 0 -28 -10 -43 -9
-14 -14 -28 -12 -31 3 -3 13 10 22 28 l17 32 20 -31 c16 -25 17 -35 8 -53 -10
-17 -9 -20 1 -14 19 12 3 -51 -22 -86 -34 -49 -139 -91 -139 -56 0 7 7 23 16
35 9 13 14 25 12 28 -3 2 -13 -12 -24 -31 -10 -19 -23 -35 -28 -35 -17 0 -76
51 -76 66 0 7 -5 14 -11 14 -6 0 6 30 25 67 20 37 34 68 32 70 -2 2 -18 -25
-37 -59 l-34 -63 -3 38 c-5 56 31 119 81 145 46 23 51 23 41 -2z"/>
<path d="M690 1160 c-6 -11 -8 -20 -6 -20 3 0 10 9 16 20 6 11 8 20 6 20 -3 0
-10 -9 -16 -20z"/>
<path d="M771 1124 c-12 -20 -20 -38 -18 -40 2 -2 14 14 26 36 28 50 21 53 -8
4z"/>
<path d="M815 1130 c-9 -16 -13 -30 -11 -30 3 0 12 14 21 30 9 17 13 30 11 30
-3 0 -12 -13 -21 -30z"/>
<path d="M661 1103 c-10 -26 -10 -27 4 -9 8 11 15 23 15 28 0 15 -7 8 -19 -19z"/>
<path d="M880 1097 c-33 -53 -52 -87 -47 -87 6 0 68 102 65 106 -2 2 -10 -7
-18 -19z"/>
<path d="M725 1039 c-9 -17 -15 -33 -13 -35 3 -2 12 12 21 31 21 43 13 47 -8
4z"/>
<path d="M1073 1127 c-45 -24 -81 -62 -90 -97 -3 -14 -17 -49 -30 -77 -23 -53
-38 -62 -77 -47 -15 6 -11 34 5 34 4 0 6 -7 3 -15 -4 -10 0 -15 11 -15 10 0
15 6 13 18 -2 11 -12 17 -28 17 -19 0 -26 -6 -28 -24 -5 -30 12 -41 61 -41 54
0 73 13 97 68 43 97 122 148 164 106 9 -8 26 -14 38 -12 28 4 36 53 13 82 -20
27 -102 28 -152 3z"/>
<path d="M535 1050 c-3 -5 -1 -10 4 -10 6 0 11 5 11 10 0 6 -2 10 -4 10 -3 0
-8 -4 -11 -10z"/>
<path d="M1340 1040 c11 -11 20 -31 20 -44 0 -14 5 -28 10 -31 11 -7 14 53 4
79 -3 9 -17 16 -30 16 l-24 0 20 -20z"/>
<path d="M547 1010 c-3 -11 -1 -20 4 -20 5 0 9 9 9 20 0 11 -2 20 -4 20 -2 0
-6 -9 -9 -20z"/>
<path d="M1110 984 c-6 -14 -10 -29 -10 -33 0 -13 36 -41 53 -41 14 0 14 3 1
30 -9 16 -13 39 -9 50 10 31 -23 25 -35 -6z"/>
<path d="M1213 998 c-18 -6 -33 -17 -33 -25 0 -12 4 -11 22 1 12 9 39 16 60
16 20 0 40 5 43 10 8 13 -49 11 -92 -2z"/>
<path d="M548 975 c-6 -7 -1 -56 8 -64 9 -10 12 6 6 37 -4 19 -10 31 -14 27z"/>
<path d="M1228 958 c-16 -5 -28 -14 -28 -19 0 -16 44 -9 70 11 23 18 23 20 5
19 -11 0 -32 -5 -47 -11z"/>
<path d="M558 882 c-4 -12 -2 -24 2 -27 13 -8 18 8 10 29 -6 19 -7 19 -12 -2z"/>
<path d="M565 810 c-3 -5 -1 -10 4 -10 6 0 11 5 11 10 0 6 -2 10 -4 10 -3 0
-8 -4 -11 -10z"/>
<path d="M563 765 c0 -14 3 -25 8 -25 5 0 9 11 9 25 0 14 -4 25 -9 25 -5 0 -8
-11 -8 -25z"/>
</g>
</svg>
