<?xml version="1.0" standalone="no"?>
<!DOCTYPE svg PUBLIC "-//W3C//DTD SVG 20010904//EN"
 "http://www.w3.org/TR/2001/REC-SVG-20010904/DTD/svg10.dtd">
<svg version="1.0" xmlns="http://www.w3.org/2000/svg"
 width="600.000000pt" height="455.000000pt" viewBox="0 0 600.000000 455.000000"
 preserveAspectRatio="xMidYMid meet">

<g transform="translate(0.000000,455.000000) scale(0.100000,-0.100000)"
fill="#000000" stroke="none">
<path d="M0 3030 l0 -1520 28 -2 c15 0 35 0 45 0 11 1 15 -2 12 -9 -4 -6 -22
-8 -46 -4 -32 6 -39 4 -39 -9 0 -10 9 -16 23 -16 17 0 19 -2 7 -9 -8 -6 -18
-7 -22 -5 -4 3 -8 -7 -8 -22 0 -26 0 -26 26 -9 26 17 36 15 40 -8 2 -7 9 -44
17 -83 l14 -72 -46 -15 c-38 -12 -47 -19 -49 -42 -2 -17 0 -25 7 -20 6 3 21 8
33 10 13 3 36 7 52 11 l29 6 -21 -22 c-11 -12 -31 -42 -44 -66 -12 -24 -31
-47 -40 -50 -17 -5 -18 -40 -18 -540 l0 -534 1895 0 c1042 0 1894 3 1894 8 -3
19 2 25 11 12 8 -13 144 -15 1105 -18 l1095 -2 0 1420 0 1420 -23 -4 c-12 -3
-50 -5 -85 -5 -44 -1 -61 -4 -56 -12 4 -7 7 -21 8 -33 1 -12 15 -29 33 -41 18
-11 30 -25 28 -32 -5 -14 17 -23 56 -23 37 0 38 -17 2 -31 -33 -13 -143 -17
-160 -6 -8 5 -12 53 -12 152 -2 164 -6 156 80 126 30 -10 71 -21 91 -25 l38
-7 0 431 c0 313 -4 436 -12 450 -9 14 -9 25 0 45 9 18 12 126 12 375 l0 350
-3000 0 -3000 0 0 -1520z m5570 1506 c0 -3 -4 -8 -10 -11 -5 -3 -10 -1 -10 4
0 6 5 11 10 11 6 0 10 -2 10 -4z m56 -11 c-21 -16 -32 -13 -21 4 3 6 14 11 23
11 15 -1 15 -2 -2 -15z m-44 -27 c-7 -7 -12 -8 -12 -2 0 14 12 26 19 19 2 -3
-1 -11 -7 -17z m-72 -8 c0 -5 -2 -10 -4 -10 -3 0 -8 5 -11 10 -3 6 -1 10 4 10
6 0 11 -4 11 -10z m413 -11 c-11 -12 -26 -18 -32 -15 -24 15 -6 31 39 35 10 1
8 -5 -7 -20z m-383 -29 c5 0 10 8 12 18 2 9 5 -4 5 -30 1 -27 -2 -48 -7 -48
-4 0 -7 8 -6 18 0 10 -6 17 -16 17 -26 0 -31 11 -17 37 11 20 14 20 17 6 2
-10 7 -18 12 -18z m-2095 -10 c-3 -5 -18 -9 -33 -9 l-27 1 30 8 c17 4 31 8 33
9 2 0 0 -3 -3 -9z m45 -15 c14 -19 14 -19 -2 -6 -10 7 -18 18 -18 24 0 6 1 8
3 6 1 -2 9 -13 17 -24z m-315 5 c-3 -5 -1 -10 4 -10 6 0 11 -5 11 -11 0 -8 -5
-8 -15 1 -17 14 -20 30 -4 30 5 0 7 -4 4 -10z m2417 -2 c6 -15 -1 -38 -10 -38
-4 0 -8 11 -8 25 -2 26 10 34 18 13z m-5535 -30 c-3 -8 -6 -5 -6 6 -1 11 2 17
5 13 3 -3 4 -12 1 -19z m5588 2 c16 -18 40 -108 31 -117 -4 -5 -20 41 -31 91
-4 21 -10 27 -25 23 -13 -3 -17 -1 -13 9 7 19 17 18 38 -6z m-3046 -34 c26
-26 26 -28 26 -177 l0 -151 -34 -30 c-31 -27 -39 -30 -84 -25 -41 4 -56 10
-80 37 l-28 32 3 143 c3 126 5 146 23 165 28 32 54 40 104 36 30 -3 51 -12 70
-30z m270 0 c26 -26 26 -28 26 -176 l0 -150 -28 -27 c-23 -24 -36 -28 -82 -28
-46 0 -59 4 -82 28 l-28 27 0 149 c0 135 2 151 20 171 28 32 54 40 104 36 30
-3 51 -12 70 -30z m280 0 c26 -26 26 -28 26 -176 l0 -150 -28 -27 c-23 -24
-36 -28 -82 -28 -46 0 -59 4 -82 28 l-28 27 0 149 c0 135 2 151 20 171 28 32
54 40 104 36 30 -3 51 -12 70 -30z m171 -51 c0 -60 3 -75 15 -75 12 0 15 15
15 75 l0 75 50 0 50 0 0 -200 0 -200 -50 0 -50 0 0 85 c0 69 -3 85 -15 85 -12
0 -15 -16 -15 -85 l0 -85 -50 0 -50 0 0 200 0 200 50 0 50 0 0 -75z m2286 40
c3 -13 4 -30 1 -37 -3 -7 -6 -1 -6 14 -1 20 -7 29 -23 32 -13 3 -32 7 -43 9
-11 3 -1 5 22 6 37 1 43 -2 49 -24z m-5585 -70 l-9 -40 -1 37 c-1 41 11 84 17
58 1 -9 -2 -33 -7 -55z m5499 55 c0 -5 -4 -10 -10 -10 -5 0 -10 5 -10 10 0 6
5 10 10 10 6 0 10 -4 10 -10z m120 -6 c0 -8 -4 -12 -10 -9 -5 3 -10 10 -10 16
0 5 5 9 10 9 6 0 10 -7 10 -16z m-5560 -4 c0 -5 -2 -10 -4 -10 -3 0 -8 5 -11
10 -3 6 -1 10 4 10 6 0 11 -4 11 -10z m5448 -24 c-7 -8 -15 -12 -17 -11 -5 6
10 25 20 25 5 0 4 -6 -3 -14z m-1320 0 c-2 0 -12 -9 -23 -18 -20 -16 -21 -16
-21 0 0 11 9 18 24 19 13 0 22 0 20 -1z m1242 -17 c0 -6 -4 -7 -10 -4 -5 3
-10 11 -10 16 0 6 5 7 10 4 6 -3 10 -11 10 -16z m115 11 c3 -5 1 -10 -4 -10
-6 0 -11 5 -11 10 0 6 2 10 4 10 3 0 8 -4 11 -10z m79 -5 c-4 -8 -10 -15 -15
-15 -4 0 -6 7 -3 15 4 8 10 15 15 15 4 0 6 -7 3 -15z m-5567 -52 c-3 -10 -5
-2 -5 17 0 19 2 27 5 18 2 -10 2 -26 0 -35z m4269 29 c-10 -2 -22 0 -28 6 -6
6 0 7 19 4 21 -5 23 -7 9 -10z m-116 -17 c18 -10 20 -14 8 -15 -9 0 -25 -3
-35 -6 -15 -5 -16 -4 -3 5 13 10 13 12 0 21 -23 15 2 11 30 -5z m1205 5 c-3
-5 -13 -10 -21 -10 -8 0 -14 5 -14 10 0 6 9 10 21 10 11 0 17 -4 14 -10z m55
0 c0 -5 -4 -10 -10 -10 -5 0 -10 5 -10 10 0 6 5 10 10 10 6 0 10 -4 10 -10z
m178 -2 c16 -16 15 -36 -3 -55 -9 -8 -13 -23 -10 -33 3 -10 1 -21 -5 -25 -6
-4 -10 7 -10 28 0 20 -7 40 -17 48 -15 13 -16 11 -11 -13 3 -15 1 -25 -3 -22
-5 3 -9 14 -9 25 0 11 -4 17 -10 14 -5 -3 -10 -1 -10 4 0 18 -50 12 -80 -9
-18 -13 -31 -16 -35 -10 -3 5 1 10 9 10 8 0 23 9 33 20 14 14 28 18 53 15 19
-3 36 -9 38 -15 2 -6 8 -7 13 -4 6 3 19 -2 29 -11 10 -9 21 -12 24 -7 3 6 -1
12 -9 16 -8 3 -15 12 -15 21 0 18 12 19 28 3z m-1283 -8 c12 -5 -4 -6 -40 -3
-33 3 -62 7 -64 9 -9 8 85 2 104 -6z m-228 -22 c-3 -8 -6 -5 -6 6 -1 11 2 17
5 13 3 -3 4 -12 1 -19z m1204 -11 c-10 -9 -11 -8 -5 6 3 10 9 15 12 12 3 -3 0
-11 -7 -18z m-991 -7 c0 -9 -118 -3 -129 6 -2 2 26 4 62 4 37 0 67 -4 67 -10z
m1080 -14 c0 -28 -27 -38 -57 -22 l-28 16 40 -5 c30 -4 35 -3 20 4 -18 9 -18
10 -2 10 11 1 15 6 11 13 -4 7 -3 8 4 4 7 -4 12 -13 12 -20z m379 3 c13 -21
12 -22 -25 -16 -28 5 -35 4 -24 -3 13 -9 13 -12 -2 -21 -10 -5 -18 -17 -18
-25 0 -8 -5 -12 -11 -9 -6 4 -8 13 -5 20 6 16 -13 35 -36 35 -10 0 -18 5 -18
10 0 6 10 8 23 5 12 -2 36 2 52 9 41 20 48 19 64 -5z m-1419 -6 c-52 -17 -70
-21 -70 -17 0 8 43 23 65 23 13 -1 15 -2 5 -6z m160 -14 c17 -10 -39 -1 -80
12 -16 6 -10 7 20 3 25 -4 52 -10 60 -15z m-360 7 c0 -2 -7 -7 -16 -10 -8 -3
-12 -2 -9 4 6 10 25 14 25 6z m1090 -16 c0 -5 -5 -10 -11 -10 -5 0 -7 5 -4 10
3 6 8 10 11 10 2 0 4 -4 4 -10z m384 -5 c3 -8 1 -15 -4 -15 -6 0 -10 7 -10 15
0 8 2 15 4 15 2 0 6 -7 10 -15z m-1364 -10 c-7 -8 -17 -15 -23 -15 -6 0 -2 7
9 15 25 19 30 19 14 0z m1543 -11 c17 -14 24 -25 16 -24 -24 4 -39 0 -39 -8 0
-5 12 -7 28 -5 19 3 31 -2 40 -16 11 -19 10 -21 -11 -21 -12 0 -46 -6 -74 -13
-44 -12 -53 -12 -57 0 -3 7 -11 13 -18 13 -9 0 -8 -3 2 -10 12 -8 12 -10 -5
-10 -29 0 -65 11 -65 20 0 5 8 6 18 3 10 -2 30 0 45 6 22 8 27 17 28 43 0 31
1 32 10 9 5 -13 7 -32 4 -42 -4 -11 -1 -19 5 -19 8 0 11 15 8 45 -4 61 16 70
65 29z m-1658 6 c3 -6 -1 -7 -9 -4 -18 7 -21 14 -7 14 6 0 13 -4 16 -10z m275
2 c0 -5 -13 -7 -30 -4 -18 3 -46 -4 -72 -18 -33 -17 -39 -18 -28 -5 8 10 23
21 35 25 26 11 95 12 95 2z m1158 -36 c12 -3 11 -4 -3 -3 -12 1 -20 10 -21 22
-1 14 0 15 3 3 2 -9 12 -19 21 -22z m78 24 c0 -11 -4 -20 -8 -20 -10 0 -11 24
-1 33 9 9 9 10 9 -13z m-1649 4 c-3 -3 -12 -4 -19 -1 -8 3 -5 6 6 6 11 1 17
-2 13 -5z m1213 -4 c0 -5 -2 -10 -4 -10 -3 0 -8 5 -11 10 -3 6 -1 10 4 10 6 0
11 -4 11 -10z m-1180 -8 c0 -5 -6 -9 -12 -9 -7 0 -29 -3 -48 -8 -19 -4 -32 -4
-28 0 4 4 22 11 40 15 46 11 48 11 48 2z m1580 -2 c0 -5 -4 -10 -10 -10 -5 0
-10 5 -10 10 0 6 5 10 10 10 6 0 10 -4 10 -10z m-1412 -9 c7 -4 -13 -6 -45 -4
-79 6 -89 11 -23 12 30 0 61 -3 68 -8z m-268 -20 c0 -10 -58 -36 -66 -29 -2 3
10 13 28 21 39 20 38 19 38 8z m1310 -1 c13 -8 13 -10 -2 -10 -9 0 -20 5 -23
10 -8 13 5 13 25 0z m-1057 -10 c90 -11 176 -40 249 -86 36 -23 38 -27 32 -59
-4 -23 -2 -35 5 -35 6 0 11 9 11 20 0 12 7 20 18 20 22 0 82 -62 82 -84 0 -10
8 -20 18 -23 22 -5 38 -41 52 -120 13 -75 0 -204 -31 -308 -41 -136 -71 -230
-79 -250 -5 -11 -20 -63 -35 -115 -26 -95 -47 -139 -40 -84 2 16 7 69 11 118
6 74 5 88 -7 84 -8 -2 -18 -13 -24 -24 -5 -11 -22 -35 -36 -54 -15 -19 -34
-48 -43 -65 -9 -16 -28 -45 -42 -62 -20 -25 -23 -33 -11 -33 13 0 48 47 117
156 22 34 31 30 26 -13 -3 -21 -8 -69 -11 -107 -5 -61 -4 -68 11 -62 12 5 15
2 10 -10 -3 -8 -6 -20 -6 -25 0 -5 -17 -9 -37 -9 -43 0 -37 -12 7 -15 95 -8
114 -141 30 -213 -9 -7 -31 -11 -52 -8 -44 5 -49 0 -13 -14 22 -8 25 -16 26
-65 1 -30 3 -67 4 -82 2 -16 6 -97 10 -180 l8 -153 -44 -19 c-49 -21 -250 -59
-379 -71 -47 -5 -88 -9 -91 -9 -3 -1 -28 -29 -55 -64 -52 -67 -169 -187 -183
-187 -4 0 -11 32 -15 70 -5 61 -4 74 14 98 22 30 62 161 53 176 -4 5 9 6 33 1
86 -18 199 -15 258 7 79 29 157 106 181 178 32 94 17 222 -36 306 -37 61 -127
134 -212 173 -84 39 -126 50 -307 76 -128 19 -157 30 -175 66 -18 34 -19 53
-2 81 24 44 38 49 117 43 184 -15 184 -15 229 -71 56 -71 121 -94 246 -88 56
2 75 8 109 32 64 45 106 114 106 173 0 116 -37 198 -110 244 -89 56 -231 49
-311 -14 l-27 -21 -33 30 c-72 63 -184 92 -257 67 -51 -18 -56 -5 -15 39 19
19 42 72 70 159 24 71 43 135 43 142 0 7 4 21 9 31 5 9 23 47 41 83 41 85 72
119 139 159 63 36 183 79 226 79 17 1 70 -4 118 -9z m160 3 c-7 -2 -19 -2 -25
0 -7 3 -2 5 12 5 14 0 19 -2 13 -5z m202 -3 c3 -5 1 -10 -4 -10 -6 0 -11 5
-11 10 0 6 2 10 4 10 3 0 8 -4 11 -10z m668 -26 c-4 -12 -8 -13 -14 -3 -9 15
-2 32 11 24 5 -3 6 -13 3 -21z m377 16 c12 -8 11 -10 -7 -10 -13 0 -23 5 -23
10 0 13 11 13 30 0z m-1170 -14 c0 -5 8 -15 18 -23 9 -8 1 -6 -18 4 -19 10
-44 21 -55 25 -13 4 -7 6 17 5 21 -1 38 -6 38 -11z m107 -28 c-3 -7 -5 -2 -5
12 0 14 2 19 5 13 2 -7 2 -19 0 -25z m-4517 -39 c0 -5 -7 -9 -15 -9 -8 0 -15
-8 -16 -17 0 -10 -3 -13 -5 -6 -7 16 15 55 27 48 5 -4 9 -10 9 -16z m5218 -44
c-10 -18 -26 -36 -35 -39 -27 -11 -26 1 0 19 14 9 29 30 32 47 5 20 10 26 15
18 4 -7 0 -27 -12 -45z m-693 35 c3 -5 1 -10 -4 -10 -6 0 -11 5 -11 10 0 6 2
10 4 10 3 0 8 -4 11 -10z m-1105 -21 c0 -6 -7 -17 -15 -25 -8 -9 -15 -11 -15
-5 0 5 5 13 11 16 6 4 8 14 5 22 -3 8 -1 11 4 8 6 -3 10 -11 10 -16z m-318 -6
c-6 -2 -10 -9 -7 -13 3 -5 -4 -8 -15 -7 -20 1 -20 2 -4 14 10 7 23 13 28 12 6
0 5 -3 -2 -6z m585 -25 c-3 -8 -6 -5 -6 6 -1 11 2 17 5 13 3 -3 4 -12 1 -19z
m-642 3 c3 -5 2 -12 -3 -15 -5 -3 -9 1 -9 9 0 17 3 19 12 6z m319 0 c4 -5 -3
-7 -14 -4 -23 6 -26 13 -6 13 8 0 17 -4 20 -9z m1782 -34 c8 -4 14 -13 14 -19
0 -6 -9 -3 -20 7 -19 18 -20 17 -20 -3 0 -13 6 -22 15 -22 8 0 15 -4 15 -10 0
-13 -11 -12 -32 4 -19 14 -24 46 -8 46 6 0 10 8 11 18 0 13 2 14 6 2 3 -8 12
-19 19 -23z m234 3 c0 -5 -2 -10 -4 -10 -3 0 -8 5 -11 10 -3 6 -1 10 4 10 6 0
11 -4 11 -10z m-5443 -22 c-3 -8 -6 -5 -6 6 -1 11 2 17 5 13 3 -3 4 -12 1 -19z
m83 18 c0 -3 -4 -8 -10 -11 -5 -3 -10 -1 -10 4 0 6 5 11 10 11 6 0 10 -2 10
-4z m-40 -36 c0 -5 -4 -10 -10 -10 -5 0 -10 5 -10 10 0 6 5 10 10 10 6 0 10
-4 10 -10z m5200 -74 c0 -15 -20 -36 -34 -36 -6 0 -3 7 8 15 10 7 15 19 11 25
-5 8 -11 8 -21 -1 -9 -7 -14 -8 -14 -1 0 13 21 21 38 14 6 -2 12 -10 12 -16z
m-5223 -79 c-4 -18 -5 -17 -6 6 0 16 -5 25 -11 22 -6 -4 -7 1 -3 11 5 15 7 15
15 0 5 -9 7 -27 5 -39z m5273 28 c7 -9 9 -19 5 -23 -4 -4 -10 -1 -12 6 -3 6
-11 12 -19 12 -9 0 -12 5 -9 10 9 14 21 12 35 -5z m-5253 -57 c-2 -13 -4 -3
-4 22 0 25 2 35 4 23 2 -13 2 -33 0 -45z m5617 20 c-10 -13 -23 -26 -27 -29
-4 -3 -5 -13 -1 -22 11 -30 57 -50 128 -55 l71 -5 -40 -18 c-46 -21 -75 -24
-75 -8 0 6 7 9 15 5 8 -3 25 -2 37 3 15 5 -1 8 -50 8 -61 1 -78 -3 -110 -24
-59 -40 -164 -71 -147 -43 3 6 18 10 33 10 25 0 25 1 6 15 -22 17 -3 21 26 5
15 -8 17 -6 13 13 -5 22 -5 22 10 2 13 -16 18 -18 28 -7 7 6 9 12 4 13 -6 0 5
5 24 12 19 7 36 19 39 27 2 10 1 11 -5 4 -4 -6 -19 -15 -31 -19 -18 -5 -27 -2
-39 15 -11 16 -23 21 -44 18 -16 -3 -29 -1 -29 4 0 4 9 8 21 8 11 0 17 4 14
10 -4 6 -15 8 -26 5 -11 -4 -19 -2 -19 4 0 6 8 11 19 11 10 0 36 7 56 16 21 8
46 13 57 11 10 -3 18 0 18 5 0 7 -14 8 -37 5 -21 -4 -33 -3 -27 3 8 7 22 10
93 18 10 2 9 -4 -5 -20z m-344 -22 c0 -17 -2 -18 -10 -6 -8 12 -12 13 -19 2
-6 -10 -10 -8 -13 10 -4 21 -1 24 19 20 15 -3 23 -11 23 -26z m-33 -58 c-3 -7
-5 -2 -5 12 0 14 2 19 5 13 2 -7 2 -19 0 -25z m-5247 -3 c0 -8 -5 -17 -10 -20
-6 -4 -10 5 -10 20 0 15 4 24 10 20 6 -3 10 -12 10 -20z m5450 16 c0 -5 -9
-12 -19 -16 -20 -6 -25 -40 -9 -62 11 -14 -11 -53 -29 -53 -19 0 -16 27 3 34
13 5 14 9 4 21 -6 8 -8 20 -4 27 4 7 -3 3 -15 -9 -12 -13 -33 -23 -46 -23 -13
0 -27 -4 -30 -10 -8 -13 -65 -13 -65 0 0 5 14 7 33 3 41 -8 29 6 -15 18 -26 7
-21 7 22 4 52 -5 57 -3 105 35 51 41 65 47 65 31z m-5423 -23 c-3 -8 -6 -5 -6
6 -1 11 2 17 5 13 3 -3 4 -12 1 -19z m3550 -10 c-3 -7 -5 -2 -5 12 0 14 2 19
5 13 2 -7 2 -19 0 -25z m1703 22 c0 -5 -4 -10 -10 -10 -5 0 -10 5 -10 10 0 6
5 10 10 10 6 0 10 -4 10 -10z m203 -22 c9 2 17 -1 17 -7 0 -6 -7 -8 -15 -5
-10 4 -14 1 -12 -7 2 -8 2 -11 0 -8 -2 4 -13 5 -23 2 -13 -4 -20 0 -20 9 0 20
11 29 24 20 6 -3 19 -5 29 -4z m-278 -8 c3 -5 -1 -10 -10 -10 -9 0 -13 5 -10
10 3 6 8 10 10 10 2 0 7 -4 10 -10z m-5218 -42 c-3 -7 -5 -2 -5 12 0 14 2 19
5 13 2 -7 2 -19 0 -25z m27 -26 c5 -37 4 -52 -4 -47 -5 3 -10 29 -10 57 0 64
5 60 14 -10z m13 36 c-3 -8 -6 -5 -6 6 -1 11 2 17 5 13 3 -3 4 -12 1 -19z
m3540 0 c-3 -8 -6 -5 -6 6 -1 11 2 17 5 13 3 -3 4 -12 1 -19z m1798 -28 c-3
-5 -10 -10 -16 -10 -5 0 -9 5 -9 10 0 6 7 10 16 10 8 0 12 -4 9 -10z m-5386
-60 c0 -23 -1 -23 -9 -5 -5 11 -9 31 -9 45 0 23 1 23 9 5 5 -11 9 -31 9 -45z
m5278 44 c-3 -3 -12 -4 -19 -1 -8 3 -5 6 6 6 11 1 17 -2 13 -5z m97 -27 c-9
-32 -12 -33 -29 -11 -20 26 -19 29 11 32 22 2 24 -1 18 -21z m87 -47 c6 0 8
-4 4 -9 -3 -5 2 -16 10 -24 8 -9 15 -21 15 -28 0 -7 -11 2 -25 21 -27 36 -55
58 -55 42 0 -6 7 -12 15 -16 8 -3 15 -12 15 -19 0 -21 47 -69 53 -54 3 7 6 2
6 -10 1 -16 -3 -21 -14 -17 -9 4 -18 -1 -21 -11 -4 -9 -18 -21 -31 -26 -19 -7
-23 -14 -19 -32 3 -12 3 -16 0 -9 -3 6 -23 12 -45 12 -37 0 -39 2 -39 30 0 25
-4 30 -24 30 -14 0 -28 5 -31 10 -4 6 9 10 32 10 56 1 108 29 110 60 1 14 -1
17 -3 8 -7 -24 -64 -4 -64 23 0 21 15 25 25 8 5 -7 13 -5 24 5 10 9 21 13 25
9 4 -4 10 4 14 17 l7 25 3 -27 c2 -16 8 -28 13 -28z m-5391 21 c0 -6 -4 -13
-10 -16 -5 -3 -11 -23 -11 -43 -2 -32 -3 -33 -6 -8 -6 35 4 76 17 76 6 0 10
-4 10 -9z m3032 -29 c3 -11 0 -19 -7 -19 -7 0 -10 8 -7 19 2 10 6 18 7 18 1 0
5 -8 7 -18z m-3105 -34 c-3 -8 -6 -5 -6 6 -1 11 2 17 5 13 3 -3 4 -12 1 -19z
m30 0 c-3 -8 -6 -5 -6 6 -1 11 2 17 5 13 3 -3 4 -12 1 -19z m3118 -76 c-3 -3
-11 0 -17 6 -9 9 -9 12 0 12 7 0 13 17 14 43 l2 42 3 -49 c2 -26 2 -51 -2 -54z
m302 92 c-3 -3 -12 -4 -19 -1 -8 3 -5 6 6 6 11 1 17 -2 13 -5z m342 -63 c72
-47 73 -49 55 -112 -9 -30 -17 -85 -18 -122 l-1 -69 -60 8 c-33 4 -99 8 -148
9 -48 1 -90 5 -94 8 -3 4 -16 4 -28 1 -49 -12 -54 139 -7 219 9 17 40 46 67
65 47 32 53 34 117 29 53 -3 77 -11 117 -36z m-3790 -56 c1 22 6 49 11 60 6
13 7 3 4 -30 -3 -27 -9 -59 -14 -70 -5 -11 -11 -29 -13 -40 -3 -11 -4 23 -4
75 0 91 1 92 7 30 5 -52 7 -57 9 -25z m3496 55 c-10 -11 -23 -20 -28 -20 -6 0
0 11 13 25 27 29 42 25 15 -5z m2438 -25 l5 -50 -18 35 c-13 26 -15 38 -7 52
14 21 13 23 20 -37z m-5896 -17 c-2 -13 -4 -5 -4 17 -1 22 1 32 4 23 2 -10 2
-28 0 -40z m4106 36 c106 -27 157 -94 164 -219 5 -87 -20 -145 -85 -190 -38
-26 -54 -30 -123 -34 -72 -3 -79 -2 -79 16 0 39 -40 56 -70 28 -14 -13 -19
-12 -42 10 -85 79 -94 246 -16 329 31 34 116 75 156 75 18 1 61 -6 95 -15z
m-1046 -26 c-3 -8 -6 -5 -6 6 -1 11 2 17 5 13 3 -3 4 -12 1 -19z m2603 7 c0
-8 -4 -15 -10 -15 -5 0 -10 7 -10 15 0 8 5 15 10 15 6 0 10 -7 10 -15z m-210
-46 c0 -5 -6 -9 -14 -9 -21 0 -29 -18 -28 -57 1 -20 -3 -31 -8 -28 -16 10 -11
77 6 96 15 17 44 16 44 -2z m-2355 -9 c3 -5 -1 -10 -9 -10 -9 0 -16 5 -16 10
0 6 4 10 9 10 6 0 13 -4 16 -10z m2355 -51 c0 -4 27 -12 61 -18 42 -7 69 -18
86 -35 32 -32 27 -62 -8 -58 -28 3 -59 -31 -59 -65 0 -13 -3 -14 -12 -5 -9 9
-9 15 0 24 19 19 14 36 -10 41 -13 2 -8 3 10 1 18 -1 30 1 27 7 -4 5 10 9 29
9 25 0 36 4 36 15 0 11 -11 15 -37 16 -28 0 -33 2 -19 8 28 11 3 24 -45 24
-22 0 -39 4 -39 8 0 5 -5 9 -11 9 -5 0 -7 -4 -4 -10 3 -6 -1 -7 -9 -4 -9 3
-16 14 -16 24 0 10 -3 27 -6 37 -5 16 -4 16 10 -1 9 -11 16 -23 16 -27z
m-5433 9 c-3 -8 -6 -5 -6 6 -1 11 2 17 5 13 3 -3 4 -12 1 -19z m440 16 c-3 -3
-12 -4 -19 -1 -8 3 -5 6 6 6 11 1 17 -2 13 -5z m-467 -26 c0 -16 -3 -19 -11
-11 -6 6 -8 16 -5 22 11 17 16 13 16 -11z m3360 2 c0 -5 -5 -10 -11 -10 -5 0
-7 5 -4 10 3 6 8 10 11 10 2 0 4 -4 4 -10z m-3027 -17 c-7 -2 -21 -2 -30 0
-10 3 -4 5 12 5 17 0 24 -2 18 -5z m84 1 c-3 -3 -12 -4 -19 -1 -8 3 -5 6 6 6
11 1 17 -2 13 -5z m2640 -46 c-3 -7 -5 -2 -5 12 0 14 2 19 5 13 2 -7 2 -19 0
-25z m80 -10 c-3 -8 -6 -5 -6 6 -1 11 2 17 5 13 3 -3 4 -12 1 -19z m-50 -10
c-3 -8 -6 -5 -6 6 -1 11 2 17 5 13 3 -3 4 -12 1 -19z m2376 5 c-13 -2 -33 -2
-45 0 -13 2 -3 4 22 4 25 0 35 -2 23 -4z m95 -10 c-10 -2 -26 -2 -35 0 -10 3
-2 5 17 5 19 0 27 -2 18 -5z m89 -25 c-3 -8 -6 -5 -6 6 -1 11 2 17 5 13 3 -3
4 -12 1 -19z m-997 -2 c0 -11 -19 -15 -25 -6 -3 5 1 10 9 10 9 0 16 -2 16 -4z
m825 -47 c-5 -6 -13 -3 -22 10 -8 12 -11 26 -8 32 5 6 13 3 22 -10 8 -12 11
-26 8 -32z m-5498 -6 c-3 -10 -5 -2 -5 17 0 19 2 27 5 18 2 -10 2 -26 0 -35z
m25 -91 c-3 -23 -9 -45 -15 -49 -6 -4 -8 3 -4 18 4 13 7 58 8 99 2 72 2 73 9
25 4 -27 5 -69 2 -93z m3365 106 c-3 -7 -5 -2 -5 12 0 14 2 19 5 13 2 -7 2
-19 0 -25z m2233 18 c0 -20 18 -30 33 -17 9 7 16 5 25 -10 11 -17 9 -19 -15
-19 -26 -1 -27 -2 -10 -15 11 -7 25 -11 33 -8 8 3 14 -1 14 -11 0 -21 -30 -33
-40 -16 -4 7 -13 9 -20 5 -16 -10 -33 17 -17 27 9 6 7 11 -5 19 -19 11 -25 59
-8 59 6 0 10 -6 10 -14z m92 -6 c16 -15 18 -20 7 -20 -16 0 -39 19 -39 32 0
13 9 9 32 -12z m-2599 -79 c-8 -48 -23 -18 -22 44 1 50 1 50 14 20 7 -16 10
-45 8 -64z m1479 47 c-9 -9 -12 -7 -12 12 0 19 3 21 12 12 9 -9 9 -15 0 -24z
m603 11 c4 -6 -2 -13 -14 -16 -12 -3 -21 -10 -21 -16 0 -6 -3 -8 -6 -4 -3 3
-3 15 1 26 7 22 29 28 40 10z m-5218 -31 c-3 -7 -5 -2 -5 12 0 14 2 19 5 13 2
-7 2 -19 0 -25z m4677 6 c3 -8 2 -12 -4 -9 -6 3 -10 10 -10 16 0 14 7 11 14
-7z m23 -6 c-3 -8 -6 -5 -6 6 -1 11 2 17 5 13 3 -3 4 -12 1 -19z m-1535 -42
c-9 -18 -11 -16 -11 19 0 33 1 37 10 21 8 -12 8 -25 1 -40z m338 18 c0 -24
-17 -15 -22 11 -4 20 -3 23 8 14 8 -6 14 -18 14 -25z m2067 5 c-14 -8 -22 -8
-30 0 -8 8 -3 11 19 11 25 -1 27 -2 11 -11z m-627 -23 c0 -7 -9 -16 -19 -19
-17 -4 -18 -2 -8 14 14 22 27 25 27 5z m-230 -6 c0 -5 -4 -10 -10 -10 -5 0
-10 5 -10 10 0 6 5 10 10 10 6 0 10 -4 10 -10z m855 -10 c3 -5 -1 -10 -9 -10
-9 0 -16 5 -16 10 0 6 4 10 9 10 6 0 13 -4 16 -10z m115 -5 c0 -8 -4 -15 -10
-15 -5 0 -10 7 -10 15 0 8 5 15 10 15 6 0 10 -7 10 -15z m-5252 -2 c-10 -2
-26 -2 -35 0 -10 3 -2 5 17 5 19 0 27 -2 18 -5z m4459 1 c-3 -3 -12 -4 -19 -1
-8 3 -5 6 6 6 11 1 17 -2 13 -5z m-305 -33 c-11 -9 -22 -27 -25 -41 l-4 -25
-2 25 c-1 29 28 72 43 63 5 -3 -1 -13 -12 -22z m1148 19 c0 -5 -6 -10 -14 -10
-7 0 -19 -7 -26 -15 -14 -17 -30 -20 -30 -5 0 8 38 29 68 39 1 1 2 -3 2 -9z
m-881 -16 c8 -7 -30 -16 -44 -10 -27 10 -17 27 13 20 15 -4 29 -8 31 -10z
m-1358 -27 c-13 -13 -26 -3 -16 12 3 6 11 8 17 5 6 -4 6 -10 -1 -17z m-3490
-68 c0 -40 -3 -75 -6 -77 -3 -3 -5 32 -5 78 0 46 3 81 6 77 3 -3 6 -38 5 -78z
m55 24 c-14 -105 -18 -123 -27 -123 -5 0 -9 9 -9 20 0 11 5 20 10 20 6 0 10
12 10 28 0 36 11 102 17 102 3 0 2 -21 -1 -47z m3054 6 c0 -5 -4 -9 -10 -9 -5
0 -10 7 -10 16 0 8 5 12 10 9 6 -3 10 -10 10 -16z m70 -15 c0 -21 -4 -33 -10
-29 -17 10 -11 65 7 65 2 0 3 -16 3 -36z m330 32 c0 -3 -4 -8 -10 -11 -5 -3
-10 -1 -10 4 0 6 5 11 10 11 6 0 10 -2 10 -4z m-3489 -33 c-12 -20 -14 -14 -5
12 4 9 9 14 11 11 3 -2 0 -13 -6 -23z m4563 12 c3 -8 1 -15 -4 -15 -6 0 -10 7
-10 15 0 8 2 15 4 15 2 0 6 -7 10 -15z m1139 2 c4 -10 -4 -13 -31 -11 -66 4
-65 5 19 23 4 0 9 -5 12 -12z m-1033 -7 c0 -5 -4 -10 -10 -10 -5 0 -10 5 -10
10 0 6 5 10 10 10 6 0 10 -4 10 -10z m-995 -26 c210 -25 388 -96 452 -182 15
-20 32 -39 36 -40 4 -2 22 -31 38 -65 29 -57 31 -67 27 -144 -2 -46 -10 -89
-16 -95 -7 -7 -12 -18 -12 -26 0 -17 -87 -110 -120 -127 -41 -21 -147 -37
-197 -29 -25 4 -40 10 -34 13 6 4 -5 7 -24 7 -24 0 -43 8 -63 27 -18 17 -39
27 -59 27 -37 0 -91 48 -99 89 -9 42 -47 80 -136 136 -48 30 -92 67 -110 92
l-30 41 25 54 c14 29 32 70 41 92 40 96 106 164 146 149 8 -3 69 -12 135 -19z
m920 6 c3 -5 1 -10 -4 -10 -6 0 -11 5 -11 10 0 6 2 10 4 10 3 0 8 -4 11 -10z
m353 1 c8 -5 -6 -7 -35 -4 -49 4 -171 -30 -142 -40 8 -2 1 -3 -15 -1 -16 2
-46 4 -67 4 -22 0 -39 4 -39 9 0 4 21 6 48 4 33 -4 62 1 97 16 52 21 130 27
153 12z m52 -16 c0 -20 -20 -29 -33 -16 -8 8 -6 11 7 11 15 0 16 3 6 15 -11
13 -10 14 4 9 9 -3 16 -12 16 -19z m47 19 c-3 -3 -12 -4 -19 -1 -8 3 -5 6 6 6
11 1 17 -2 13 -5z m-1645 -26 c-7 -7 -12 -8 -12 -2 0 6 3 14 7 17 3 4 9 5 12
2 2 -3 -1 -11 -7 -17z m1678 12 c0 -5 -2 -10 -4 -10 -2 0 -12 -3 -22 -7 -16
-6 -17 -5 -4 10 17 19 30 22 30 7z m-5026 -48 c4 -29 3 -41 -4 -37 -5 3 -10
25 -10 47 0 51 5 47 14 -10z m4541 28 c3 -5 -3 -10 -14 -10 -12 0 -21 5 -21
10 0 6 6 10 14 10 8 0 18 -4 21 -10z m1105 0 c0 -5 -2 -10 -4 -10 -3 0 -8 5
-11 10 -3 6 -1 10 4 10 6 0 11 -4 11 -10z m-1065 -20 c3 -5 -1 -10 -9 -10 -9
0 -16 5 -16 10 0 6 4 10 9 10 6 0 13 -4 16 -10z m375 1 c0 -5 20 -8 45 -6 25
1 45 -1 45 -5 0 -12 -84 -20 -97 -8 -15 12 -17 28 -3 28 6 0 10 -4 10 -9z
m-1898 -46 c-2 -25 -8 -45 -13 -45 -14 0 -11 78 4 83 6 3 12 6 12 6 0 1 -1
-19 -3 -44z m2132 37 c3 -5 -1 -9 -9 -9 -8 0 -15 4 -15 9 0 4 4 8 9 8 6 0 12
-4 15 -8z m483 -54 c-2 -13 -4 -5 -4 17 -1 22 1 32 4 23 2 -10 2 -28 0 -40z
m-2647 21 c0 -5 -4 -9 -10 -9 -5 0 -10 7 -10 16 0 8 5 12 10 9 6 -3 10 -10 10
-16z m1520 17 c0 -3 -4 -8 -10 -11 -5 -3 -10 -1 -10 4 0 6 5 11 10 11 6 0 10
-2 10 -4z m1047 -28 c-3 -8 -6 -5 -6 6 -1 11 2 17 5 13 3 -3 4 -12 1 -19z m53
7 c0 -8 -4 -15 -9 -15 -13 0 -22 16 -14 24 11 11 23 6 23 -9z m-5723 -27 c-3
-7 -5 -2 -5 12 0 14 2 19 5 13 2 -7 2 -19 0 -25z m40 -40 c-3 -7 -5 -2 -5 12
0 14 2 19 5 13 2 -7 2 -19 0 -25z m31 7 c-3 -3 -9 2 -12 12 -6 14 -5 15 5 6 7
-7 10 -15 7 -18z m3110 3 c-6 -18 -25 -20 -31 -3 -5 10 0 15 14 15 12 0 19 -5
17 -12z m-58 -38 c0 -10 -4 -22 -10 -25 -6 -4 -10 7 -10 25 0 18 4 29 10 25 6
-3 10 -15 10 -25z m2627 -2 c-3 -7 -5 -2 -5 12 0 14 2 19 5 13 2 -7 2 -19 0
-25z m-2660 -20 c-3 -7 -5 -2 -5 12 0 14 2 19 5 13 2 -7 2 -19 0 -25z m243 7
c-7 -9 -15 -13 -18 -10 -3 2 1 11 8 20 7 9 15 13 18 10 3 -2 -1 -11 -8 -20z
m1960 4 c0 -6 -4 -7 -10 -4 -5 3 -10 11 -10 16 0 6 5 7 10 4 6 -3 10 -11 10
-16z m-5280 -4 c0 -8 -4 -15 -10 -15 -5 0 -10 7 -10 15 0 8 5 15 10 15 6 0 10
-7 10 -15z m3170 -29 c0 -6 6 -22 13 -36 11 -22 11 -28 0 -38 -7 -7 -13 -8
-13 -3 0 5 -6 11 -12 14 -7 2 -5 3 5 2 9 -2 17 0 17 3 -1 16 -17 30 -39 33
-27 4 -42 29 -17 29 9 0 16 7 16 16 0 14 3 14 15 4 8 -7 15 -18 15 -24z m1400
20 c0 -3 -4 -8 -10 -11 -5 -3 -10 -1 -10 4 0 6 5 11 10 11 6 0 10 -2 10 -4z
m-1360 -16 c0 -5 -7 -10 -15 -10 -8 0 -15 5 -15 10 0 6 7 10 15 10 8 0 15 -4
15 -10z m1329 -4 c-2 -2 -15 -9 -29 -16 -23 -12 -24 -12 -11 3 7 10 20 17 29
17 8 0 13 -2 11 -4z m1201 -56 l0 -60 -32 1 c-31 2 -31 2 -5 6 26 4 27 7 27
59 0 30 2 54 5 54 3 0 5 -27 5 -60z m-5749 23 c-12 -20 -14 -14 -5 12 4 9 9
14 11 11 3 -2 0 -13 -6 -23z m54 -3 c-5 -22 -3 -30 7 -30 9 -1 8 -4 -4 -13 -9
-7 -21 -29 -27 -48 -9 -29 -9 -26 -4 26 5 57 17 95 29 95 3 0 3 -13 -1 -30z
m3235 0 c0 -5 -5 -10 -11 -10 -5 0 -7 5 -4 10 3 6 8 10 11 10 2 0 4 -4 4 -10z
m2057 -22 c-3 -8 -6 -5 -6 6 -1 11 2 17 5 13 3 -3 4 -12 1 -19z m203 2 c0 -5
-7 -10 -16 -10 -8 0 -12 5 -9 10 3 6 10 10 16 10 5 0 9 -4 9 -10z m-2451 -27
c-1 -22 -2 -23 -6 -8 -3 11 -10 23 -17 27 -7 5 -5 8 7 8 12 0 17 -7 16 -27z
m-3102 -35 c-2 -13 -4 -5 -4 17 -1 22 1 32 4 23 2 -10 2 -28 0 -40z m5386 9
c28 -3 27 -4 -9 -5 -43 -2 -72 17 -59 38 5 8 12 5 21 -9 8 -11 29 -22 47 -24z
m-2056 1 c-3 -8 -6 -5 -6 6 -1 11 2 17 5 13 3 -3 4 -12 1 -19z m-50 -30 c-3
-7 -5 -2 -5 12 0 14 2 19 5 13 2 -7 2 -19 0 -25z m2336 25 c-29 -2 -78 -2
-110 0 -32 2 -8 3 52 3 61 0 87 -1 58 -3z m-2370 -46 c-9 -16 -26 12 -18 30 7
17 8 17 15 -2 4 -11 5 -24 3 -28z m-1450 23 c7 -6 23 -18 37 -29 l24 -19 -82
-41 c-45 -23 -82 -43 -82 -46 0 -4 103 38 132 55 30 17 37 11 44 -37 3 -27 8
-55 10 -65 2 -12 -7 -18 -34 -23 -61 -10 -363 -86 -426 -106 -105 -34 -94 -19
34 45 180 91 227 116 211 116 -8 0 -72 -29 -142 -64 -70 -36 -160 -74 -199
-86 -39 -12 -80 -30 -91 -41 -10 -10 -22 -19 -26 -19 -20 1 -102 -47 -103 -59
0 -11 3 -11 15 -1 13 11 135 47 220 65 11 3 29 9 40 14 11 5 38 14 60 20 22 6
99 26 170 46 72 19 155 39 185 44 85 15 139 28 209 50 74 24 109 26 135 6 24
-18 37 -13 -194 -70 -102 -25 -218 -54 -259 -66 -42 -11 -87 -18 -105 -15 -22
4 -25 4 -11 -2 17 -8 14 -10 -18 -16 -21 -4 -48 -4 -60 -1 -16 5 -18 4 -8 -3
10 -7 2 -12 -30 -17 -24 -4 -53 -12 -63 -18 -11 -5 -63 -20 -115 -32 -53 -12
-120 -30 -150 -38 -29 -9 -59 -14 -65 -10 -6 4 -22 6 -36 5 -14 -1 -36 7 -50
19 l-25 20 25 -6 c23 -6 24 -5 7 9 -17 13 -15 14 21 9 43 -6 84 10 77 30 -7
20 121 100 153 95 9 -2 16 3 14 10 -2 14 15 16 20 2 2 -7 11 -5 23 5 20 15 20
15 0 8 -38 -12 -10 5 115 69 69 36 169 88 222 117 53 28 103 51 111 51 8 0 20
7 27 15 15 18 17 18 33 5z m1607 -32 c0 -5 -2 -8 -3 -8 -7 0 -47 38 -47 44 0
9 49 -27 50 -36z m-3403 -155 c-2 -32 -3 -6 -3 57 0 63 1 89 3 58 2 -32 2 -84
0 -115z m3146 152 c4 -8 2 -17 -3 -20 -6 -4 -10 3 -10 14 0 25 6 27 13 6z m73
-22 c-10 -10 -19 5 -10 18 6 11 8 11 12 0 2 -7 1 -15 -2 -18z m181 -25 c-3 -8
-6 -5 -6 6 -1 11 2 17 5 13 3 -3 4 -12 1 -19z m132 -37 c-6 -2 -14 1 -18 6 -6
10 -40 24 -69 29 -8 1 -17 6 -20 10 -4 4 1 4 11 1 9 -4 17 -2 17 3 0 5 20 -3
45 -18 25 -15 40 -29 34 -31z m-3502 12 c-3 -10 -5 -4 -5 12 0 17 2 24 5 18 2
-7 2 -21 0 -30z m3093 -12 c0 -6 -4 -13 -10 -16 -5 -3 -10 1 -10 9 0 9 5 16
10 16 6 0 10 -4 10 -9z m40 -1 c0 -5 -4 -10 -10 -10 -5 0 -10 5 -10 10 0 6 5
10 10 10 6 0 10 -4 10 -10z m334 -19 c-2 -3 -12 3 -22 13 -16 17 -16 18 5 5
12 -7 20 -15 17 -18z m76 -22 c0 -6 -4 -7 -10 -4 -5 3 -10 11 -10 16 0 6 5 7
10 4 6 -3 10 -11 10 -16z m-3526 -126 c-4 -65 -11 -120 -15 -123 -4 -3 -10
-21 -12 -40 -2 -19 -2 -3 0 35 3 39 5 99 5 135 -1 46 1 59 8 45 7 -16 9 -11 9
23 1 23 3 42 6 42 3 0 2 -53 -1 -117z m3136 102 c0 -8 -4 -15 -10 -15 -5 0
-10 7 -10 15 0 8 5 15 10 15 6 0 10 -7 10 -15z m-1880 1 c0 -3 -4 -8 -10 -11
-5 -3 -10 -1 -10 4 0 6 5 11 10 11 6 0 10 -2 10 -4z m-1233 -38 c-3 -8 -6 -5
-6 6 -1 11 2 17 5 13 3 -3 4 -12 1 -19z m2094 3 c14 23 24 0 23 -52 0 -27 3
-44 7 -37 10 16 20 -22 22 -89 1 -28 5 -49 10 -46 4 2 8 -4 9 -14 0 -10 2 -22
3 -28 12 -65 18 -93 22 -107 2 -10 0 -18 -6 -18 -6 0 -12 17 -12 38 -2 36 -2
36 -8 7 -11 -52 -42 -34 -32 19 1 5 -1 16 -4 25 -5 12 -8 13 -14 3 -5 -9 -12
2 -21 32 -7 25 -16 46 -20 46 -5 0 -6 10 -2 22 3 14 2 19 -6 14 -7 -4 -12 -1
-12 7 0 8 -7 20 -15 27 -17 14 -52 2 -298 -101 -77 -32 -126 -48 -140 -44 -15
4 -18 3 -9 -3 10 -7 5 -12 -20 -22 -18 -7 -51 -21 -73 -31 -48 -21 -298 -123
-377 -154 l-56 -23 -6 22 c-3 11 -6 31 -6 44 0 12 -3 22 -7 22 -5 0 -9 10 -9
23 -1 12 -8 50 -16 85 -8 34 -14 62 -13 62 1 0 49 11 106 25 57 14 127 30 154
36 28 6 59 14 70 20 33 15 218 62 243 62 12 -1 22 3 22 8 0 5 8 9 17 9 20 0
140 28 168 39 11 5 74 21 140 36 66 15 127 31 135 36 9 4 17 3 19 -3 2 -6 7
-5 12 3z m1447 -28 c14 -12 14 -13 -2 -13 -9 0 -15 -4 -11 -10 3 -5 12 -7 19
-4 8 3 31 -4 52 -15 l39 -21 -38 0 c-21 0 -36 4 -32 9 3 5 1 12 -5 16 -5 3
-10 -3 -10 -14 0 -12 -4 -21 -10 -21 -5 0 -7 7 -4 15 4 8 2 15 -4 15 -6 0 -12
-5 -14 -10 -2 -6 -3 13 -4 42 0 29 1 46 4 38 2 -8 11 -21 20 -27z m-3611 -185
c-2 -35 -3 -7 -3 62 0 69 1 97 3 63 2 -35 2 -91 0 -125z m3178 132 c4 -6 -7
-10 -24 -10 -17 0 -31 5 -31 10 0 6 11 10 24 10 14 0 28 -4 31 -10z m1408 -71
c4 -30 15 -98 24 -152 l16 -97 -24 -26 c-13 -14 -45 -37 -71 -50 -41 -21 -61
-24 -157 -24 -90 0 -125 -5 -191 -26 -45 -14 -84 -23 -87 -20 -3 2 -7 22 -10
43 -2 21 -11 65 -19 98 -9 33 -18 72 -21 88 -3 15 -14 32 -24 38 -18 9 -26 0
-12 -14 24 -25 72 -240 60 -272 -3 -7 -29 -26 -59 -43 -65 -38 -148 -114 -149
-139 -1 -10 -1 -38 0 -63 2 -44 1 -45 -36 -58 -167 -56 -281 -77 -353 -64 -40
7 -45 10 -42 32 6 50 43 191 60 228 34 75 136 258 160 287 17 20 20 31 12 33
-7 3 -17 -3 -22 -11 -29 -52 -77 -102 -106 -111 -18 -5 -35 -7 -38 -4 -2 3 2
23 10 44 8 22 25 68 39 104 13 36 34 92 47 125 12 33 28 66 35 73 13 15 136
35 147 24 10 -10 -8 -94 -33 -152 -21 -50 -39 -65 -39 -34 0 37 -44 144 -59
144 -12 0 -13 -2 -3 -8 24 -16 64 -194 71 -319 1 -17 7 -23 24 -23 16 0 53 31
123 103 55 56 107 114 116 128 15 24 23 26 113 33 145 10 338 52 409 89 49 25
57 32 39 35 -15 2 -23 10 -23 23 0 18 2 18 33 6 29 -12 33 -19 40 -68z m-4510
-47 c-8 -34 -9 -32 -9 28 -1 53 1 60 9 37 5 -17 5 -42 0 -65z m-23 -23 c0 -6
-4 -7 -10 -4 -5 3 -10 11 -10 16 0 6 5 7 10 4 6 -3 10 -11 10 -16z m3047 -11
c-3 -8 -6 -5 -6 6 -1 11 2 17 5 13 3 -3 4 -12 1 -19z m-2113 -23 c16 -9 35
-14 43 -11 7 3 15 2 17 -3 7 -11 38 -153 38 -173 -1 -10 3 -20 9 -23 5 -4 9
-17 9 -31 0 -13 5 -24 10 -24 6 0 10 -7 10 -15 0 -8 4 -15 8 -15 4 0 13 -17
19 -37 17 -56 89 -243 107 -278 9 -16 16 -37 16 -46 0 -8 4 -19 9 -25 5 -5 26
-55 46 -111 33 -90 41 -103 61 -103 13 0 26 5 30 11 3 6 17 9 30 6 13 -2 21
-1 19 3 -4 7 128 63 141 60 4 -1 10 2 13 7 3 5 33 20 66 33 33 13 78 31 100
40 22 10 105 43 185 74 80 32 153 62 163 67 23 12 38 2 17 -11 -8 -6 -10 -10
-5 -10 6 0 9 -17 7 -41 -3 -28 0 -44 9 -50 12 -8 12 -10 0 -18 -17 -11 -8 -16
62 -32 40 -8 54 -16 47 -23 -5 -5 -10 -19 -11 -30 0 -12 -3 -15 -6 -8 -2 6
-12 12 -20 12 -13 0 -13 -3 -3 -15 9 -11 10 -15 1 -15 -8 0 -7 -6 3 -16 9 -8
16 -19 16 -24 0 -14 1 -14 -705 -188 -186 -46 -230 -53 -196 -33 10 6 8 9 -6
13 -12 3 -19 15 -21 35 -2 34 -23 103 -62 208 -6 16 -30 122 -55 248 -2 9 2
17 8 17 7 0 4 5 -5 11 -10 5 -18 19 -18 31 0 30 -22 98 -32 98 -4 0 -8 -11 -8
-25 0 -32 28 -154 41 -177 6 -11 6 -18 0 -18 -5 0 -3 -13 5 -30 9 -16 13 -34
9 -40 -3 -5 -2 -10 3 -10 5 0 15 -42 21 -92 7 -51 19 -113 27 -137 7 -24 12
-61 9 -82 -15 -117 -15 -124 -5 -109 6 10 10 11 10 3 0 -7 7 -13 15 -13 8 0
15 -8 15 -18 0 -10 4 -22 9 -27 5 -6 11 -29 15 -52 6 -40 5 -43 -16 -43 -18 0
-20 -2 -9 -9 8 -5 20 -7 28 -4 9 3 13 -3 13 -21 0 -30 -3 -42 -10 -39 -3 1
-12 4 -21 8 -22 8 -33 -22 -15 -41 8 -8 23 -11 33 -8 13 4 14 3 5 -4 -11 -7
-11 -10 2 -15 10 -4 16 -1 16 8 0 20 17 19 29 -2 8 -13 13 -15 19 -6 4 7 19
16 32 21 l25 10 -26 12 c-20 9 -25 17 -21 41 2 16 9 26 14 23 5 -4 8 -17 5
-31 -3 -16 -1 -21 5 -15 6 6 17 8 24 5 10 -3 12 0 8 10 -3 8 -1 18 5 22 7 3
11 -3 12 -17 1 -14 3 -17 6 -7 2 8 -1 26 -6 40 -7 17 -10 19 -10 7 -1 -23 -13
-23 -41 0 l-22 18 23 0 c32 1 179 34 202 46 12 6 23 6 30 0 7 -6 30 -13 52
-17 30 -5 36 -4 25 4 -8 6 -26 11 -39 11 -13 0 -21 3 -18 6 10 10 216 62 222
56 2 -3 12 1 21 9 13 11 18 11 21 2 3 -7 11 -13 20 -13 8 0 21 -7 29 -15 9 -8
28 -15 43 -15 24 0 28 -3 24 -24 -5 -24 21 -44 32 -26 4 6 1 10 -4 10 -20 0
-11 18 12 25 37 12 70 13 105 3 23 -7 37 -6 46 1 7 6 22 9 32 5 17 -5 18 -5 2
6 -13 8 -23 8 -38 0 -26 -14 -53 0 -40 20 8 13 10 12 10 -2 0 -21 4 -22 29 -6
13 8 29 8 60 1 22 -6 38 -7 35 -2 -3 5 -14 9 -25 9 -12 0 -17 4 -14 11 4 6 19
7 35 4 16 -3 31 -2 35 4 3 6 15 11 26 11 19 0 19 1 2 27 l-18 28 26 -20 c31
-24 28 -42 -9 -48 -21 -3 -19 -4 10 -6 31 -1 37 3 41 22 4 20 4 19 6 -4 1 -24
-4 -27 -51 -38 -29 -7 -62 -12 -73 -12 -10 0 -24 -4 -31 -10 -6 -5 -30 -10
-53 -12 -22 -1 -41 -5 -41 -9 0 -5 -8 -8 -18 -8 -10 0 -51 -11 -92 -24 -41
-14 -97 -28 -125 -32 -27 -4 -65 -14 -85 -22 -60 -25 -192 -55 -255 -57 -38
-2 -53 1 -40 6 12 4 14 8 5 8 -8 0 -24 -4 -35 -9 -18 -8 -18 -9 -2 -9 44 -2 4
-27 -71 -45 -72 -18 -87 -18 -137 -6 -37 9 -63 22 -76 38 -10 14 -19 21 -19
16 -1 -21 -21 29 -29 71 -7 36 -6 48 5 52 8 3 14 19 14 39 0 21 6 37 18 43 15
9 15 10 -4 11 -15 0 -23 8 -26 25 -3 14 -1 25 3 25 5 0 9 8 9 18 -1 15 -2 15
-13 2 -17 -21 -57 -21 -57 1 0 12 6 16 20 12 14 -4 20 0 20 11 0 10 -4 15 -9
12 -5 -4 -17 -3 -26 0 -13 5 -16 15 -12 40 4 20 1 35 -6 38 -8 3 -6 9 6 16 9
6 17 16 17 23 0 8 -4 7 -9 -2 -8 -12 -12 -12 -25 -2 -20 17 -21 35 -1 27 8 -3
15 -1 15 4 0 6 -4 10 -10 10 -5 0 -10 7 -10 15 0 8 -5 15 -11 15 -7 0 -9 10
-7 25 3 14 1 25 -3 25 -5 0 -9 7 -9 16 0 8 5 12 10 9 6 -3 10 -1 10 4 0 6 -6
11 -14 11 -9 0 -19 26 -30 83 -9 45 -20 100 -26 122 -5 22 -17 76 -25 120 -9
44 -23 108 -32 143 -8 35 -13 66 -10 69 4 3 2 14 -3 24 -6 10 -12 30 -14 46
-2 15 -6 35 -8 43 -17 49 -26 94 -21 106 3 8 0 14 -6 14 -6 0 -11 11 -11 25 0
29 5 30 44 10z m1080 -21 c5 -14 4 -15 -9 -4 -10 8 -19 9 -27 3 -14 -11 -58
-24 -58 -17 0 5 62 32 76 33 7 1 15 -6 18 -15z m1461 -14 c3 -5 1 -10 -4 -10
-6 0 -11 5 -11 10 0 6 2 10 4 10 3 0 8 -4 11 -10z m-250 -18 c-3 -3 -11 0 -18
7 -9 10 -8 11 6 5 10 -3 15 -9 12 -12z m88 11 c-7 -2 -21 -2 -30 0 -10 3 -4 5
12 5 17 0 24 -2 18 -5z m137 -9 c0 -2 -13 -4 -30 -4 -16 0 -30 4 -30 8 0 5 14
7 30 4 17 -2 30 -6 30 -8z m-1550 -2 c0 -4 -10 -9 -22 -9 -18 -2 -20 0 -8 7
18 12 30 13 30 2z m90 -23 c0 -6 -4 -7 -10 -4 -5 3 -10 11 -10 16 0 6 5 7 10
4 6 -3 10 -11 10 -16z m1348 14 c-10 -2 -26 -2 -35 0 -10 3 -2 5 17 5 19 0 27
-2 18 -5z m-1463 -37 c8 3 15 1 15 -5 0 -12 -11 -14 -34 -5 -9 3 -16 16 -15
28 0 21 0 21 9 -1 6 -15 15 -21 25 -17z m1402 28 c-3 -3 -12 -4 -19 -1 -8 3
-5 6 6 6 11 1 17 -2 13 -5z m-40 -10 c-3 -3 -12 -4 -19 -1 -8 3 -5 6 6 6 11 1
17 -2 13 -5z m228 -11 c-4 -10 -13 -38 -22 -63 -8 -25 -20 -51 -26 -58 -21
-26 27 -41 65 -21 31 17 31 6 -1 -57 -67 -132 -86 -184 -122 -327 -11 -45 -14
-48 -38 -42 -42 11 -49 22 -61 98 -24 143 -105 320 -163 357 -30 18 -33 2 -3
-21 32 -25 51 -58 39 -69 -4 -5 -31 -12 -60 -16 l-51 -6 5 48 c2 30 11 54 21
62 9 7 15 16 13 20 -14 26 257 110 363 111 42 1 47 -1 41 -16z m-3202 -8 c-3
-9 -8 -14 -10 -11 -10 10 -30 -19 -25 -36 2 -10 0 -18 -6 -18 -5 0 -12 16 -14
35 -3 28 0 35 17 38 39 8 44 7 38 -8z m409 -20 c-5 -44 -26 -41 -30 3 -3 26 0
32 15 32 16 0 18 -6 15 -35z m1123 25 c-3 -5 -11 -10 -16 -10 -6 0 -7 5 -4 10
3 6 11 10 16 10 6 0 7 -4 4 -10z m1402 4 c-3 -3 -12 -4 -19 -1 -8 3 -5 6 6 6
11 1 17 -2 13 -5z m-1177 -13 c0 -9 -24 -21 -41 -21 -14 0 14 29 29 30 6 0 12
-4 12 -9z m1130 5 c0 -2 -7 -7 -16 -10 -8 -3 -12 -2 -9 4 6 10 25 14 25 6z
m-1405 -25 c10 -17 -12 -21 -25 -6 -10 12 -10 15 3 15 9 0 18 -4 22 -9z
m-1785 -26 c0 -14 -4 -25 -9 -25 -4 0 -6 11 -3 25 2 14 6 25 8 25 2 0 4 -11 4
-25z m360 -5 c8 11 10 4 8 -27 -2 -36 -5 -42 -22 -39 -23 3 -34 29 -28 63 4
22 5 22 18 6 12 -16 15 -16 24 -3z m2760 16 c0 -2 -9 -6 -20 -9 -11 -3 -18 -1
-14 4 5 9 34 13 34 5z m-1400 -23 c0 -11 -3 -14 -8 -7 -4 6 -14 14 -22 17 -10
4 -8 6 8 6 15 1 22 -5 22 -16z m217 1 c-16 -9 -31 -13 -34 -10 -3 3 5 10 18
15 37 15 47 12 16 -5z m293 6 c0 -5 -4 -10 -9 -10 -6 0 -13 5 -16 10 -3 6 1
10 9 10 9 0 16 -4 16 -10z m-565 -10 c-3 -5 -14 -10 -23 -10 -15 0 -15 2 -2
10 20 13 33 13 25 0z m590 0 c3 -5 1 -10 -4 -10 -6 0 -11 5 -11 10 0 6 2 10 4
10 3 0 8 -4 11 -10z m-400 -11 c11 -17 -1 -21 -15 -4 -8 9 -8 15 -2 15 6 0 14
-5 17 -11z m385 -20 c0 -5 -4 -9 -10 -9 -5 0 -10 7 -10 16 0 8 5 12 10 9 6 -3
10 -10 10 -16z m-504 -14 c28 -28 21 -35 -8 -8 -15 14 -23 15 -37 6 -11 -7
-22 -9 -25 -6 -12 12 -6 22 17 26 12 2 23 5 25 6 2 0 14 -10 28 -24z m521 -7
c-3 -7 -5 -2 -5 12 0 14 2 19 5 13 2 -7 2 -19 0 -25z m-693 7 c-4 -8 -11 -12
-16 -9 -6 4 -5 10 3 15 19 12 19 11 13 -6z m246 5 c0 -5 -2 -10 -4 -10 -2 0
-12 -3 -22 -7 -16 -6 -17 -5 -4 10 17 19 30 22 30 7z m2820 -42 c12 -29 30
-71 40 -93 10 -23 21 -54 24 -70 6 -29 6 -29 -4 -5 -24 55 -136 140 -185 140
-8 0 -15 7 -15 15 0 8 6 15 13 15 7 0 28 11 47 25 19 13 40 24 46 25 6 0 22
-24 34 -52z m-4025 24 c6 -4 10 -32 10 -62 0 -52 -1 -55 -25 -55 -14 0 -25 6
-24 13 1 6 2 35 3 62 1 49 11 61 36 42z m105 -27 c0 -17 -2 -18 -24 -9 -23 9
-20 24 4 24 11 0 20 -7 20 -15z m770 5 c0 -5 -9 -10 -19 -10 -11 0 -22 -6 -24
-12 -4 -8 -6 -7 -6 4 -1 14 11 22 42 27 4 0 7 -3 7 -9z m119 7 c-2 -1 -12 -9
-21 -16 -15 -12 -18 -11 -18 3 0 10 8 16 22 16 12 0 19 -1 17 -3z m96 -18
c-10 -15 -25 -10 -19 6 4 8 10 12 15 9 5 -3 7 -10 4 -15z m-1340 1 c-3 -5 -10
-10 -16 -10 -5 0 -9 5 -9 10 0 6 7 10 16 10 8 0 12 -4 9 -10z m1915 0 c0 -5
-5 -10 -11 -10 -5 0 -7 5 -4 10 3 6 8 10 11 10 2 0 4 -4 4 -10z m-860 -15 c-7
-8 -18 -15 -24 -15 -6 0 -2 7 8 15 25 19 32 19 16 0z m3088 -18 c81 -28 127
-63 165 -123 32 -54 61 -181 55 -246 -4 -38 -3 -46 5 -32 12 22 15 128 4 167
-5 19 -4 27 3 22 5 -3 10 -15 10 -26 0 -10 4 -27 10 -37 21 -37 69 -262 76
-351 6 -90 8 -95 39 -122 42 -38 117 -148 151 -224 41 -92 93 -261 104 -334
14 -95 19 -231 8 -231 -8 0 -193 65 -328 115 -36 13 -148 53 -250 90 -102 36
-219 78 -260 93 l-74 27 3 48 3 47 -140 0 c-127 0 -144 2 -193 24 -35 16 -46
25 -32 25 43 2 246 98 367 176 61 39 69 41 119 31 31 -7 44 -4 76 17 95 63
283 307 268 350 -3 11 -77 -103 -77 -119 0 -16 -121 -148 -185 -201 -37 -32
-87 -44 -99 -25 -7 12 39 36 52 28 21 -13 21 14 2 78 -51 163 -172 334 -312
443 -62 48 -151 85 -177 75 -11 -5 -4 -10 22 -16 20 -5 37 -12 37 -16 0 -9
-56 -40 -74 -40 -12 0 -16 10 -16 43 0 39 5 48 49 89 55 51 169 121 246 151
102 40 237 41 343 4z m-4202 11 c4 -6 2 -14 -5 -16 -11 -4 -11 -6 0 -13 11 -7
9 -9 -6 -9 -15 0 -20 7 -20 25 0 26 18 34 31 13z m399 4 c6 -4 10 -17 11 -29
0 -17 -5 -23 -21 -23 -18 0 -21 5 -17 30 4 31 10 35 27 22z m817 -42 c14 0 9
-18 -6 -23 -9 -4 -15 0 -14 11 0 9 -3 28 -6 42 -5 23 -5 23 6 -2 7 -16 15 -28
20 -28z m-1129 10 c4 -17 0 -20 -25 -20 -22 0 -29 4 -25 14 3 8 1 17 -6 20 -7
2 2 5 19 5 24 1 33 -4 37 -19z m145 -7 c-2 -22 -8 -28 -28 -28 -20 0 -26 6
-28 28 -3 24 0 27 28 27 28 0 31 -3 28 -27z m1077 17 c-28 -12 -37 -12 -30 0
3 6 16 10 28 9 21 0 21 -1 2 -9z m-250 -10 c8 -13 -5 -13 -25 0 -13 8 -13 10
2 10 9 0 20 -4 23 -10z m510 1 c3 -5 1 -12 -5 -16 -5 -3 -10 -2 -10 4 0 5 -8
12 -17 14 -14 4 -13 5 4 6 12 0 24 -3 28 -8z m-65 -11 c-8 -5 -19 -10 -25 -10
-5 0 -3 5 5 10 8 5 20 10 25 10 6 0 3 -5 -5 -10z m1398 -13 c13 -16 39 -84 61
-164 9 -34 20 -66 24 -69 4 -4 7 -23 7 -41 0 -40 9 -41 -140 14 -116 43 -283
121 -335 156 l-38 26 29 6 c16 4 43 11 59 15 17 5 91 21 165 35 74 15 137 28
139 31 8 7 18 4 29 -9z m-3168 -32 c0 -19 -4 -35 -10 -35 -9 0 -11 46 -3 63 8
15 13 6 13 -28z m5605 25 c3 -5 1 -10 -4 -10 -6 0 -11 5 -11 10 0 6 2 10 4 10
3 0 8 -4 11 -10z m-5648 -52 c-2 -13 -4 -5 -4 17 -1 22 1 32 4 23 2 -10 2 -28
0 -40z m1762 38 c10 -12 8 -13 -9 -9 -25 7 -37 23 -17 23 8 0 20 -6 26 -14z
m131 -9 c13 -9 20 -20 16 -24 -4 -4 -13 0 -20 10 -18 24 -56 23 -56 -3 0 -11
7 -20 16 -20 8 0 12 -4 9 -10 -9 -14 -32 -12 -32 3 0 6 -4 23 -7 37 -6 23 -4
25 22 24 16 0 39 -8 52 -17z m-445 3 c3 -5 -1 -10 -9 -10 -9 0 -16 5 -16 10 0
6 4 10 9 10 6 0 13 -4 16 -10z m1202 -4 c22 -8 71 -33 109 -57 156 -96 288
-156 509 -230 126 -42 134 -44 255 -44 107 1 138 5 219 28 96 29 173 63 223
100 l27 20 67 -49 c100 -72 213 -214 264 -330 17 -38 38 -84 47 -103 8 -18 11
-37 6 -41 -33 -29 -184 -126 -263 -167 -261 -137 -452 -170 -655 -111 -78 23
-247 92 -285 118 -14 9 -56 34 -94 55 -38 21 -85 48 -104 61 -25 17 -49 24
-84 24 -60 0 -78 9 -145 71 -28 27 -61 49 -73 49 -12 0 -46 -25 -81 -60 -72
-72 -95 -78 -156 -37 -26 18 -31 27 -28 52 8 58 46 126 103 180 41 40 51 55
37 55 -27 0 -116 -98 -148 -164 -26 -53 -31 -57 -55 -51 -37 9 -52 26 -62 70
-18 81 46 201 158 294 65 54 70 61 49 61 -18 0 -167 -140 -167 -157 0 -19 -90
-17 -119 3 -20 14 -23 23 -19 63 5 50 70 156 117 192 14 10 31 22 36 27 68 53
163 91 231 92 23 0 59 -6 81 -14z m-2199 -3 c-15 -2 -42 -2 -60 0 -18 2 -6 4
27 4 33 0 48 -2 33 -4z m190 0 c-15 -2 -42 -2 -60 0 -18 2 -6 4 27 4 33 0 48
-2 33 -4z m1745 -3 c13 -1 -22 -30 -35 -30 -4 0 -8 9 -8 21 0 15 4 19 16 15 9
-3 21 -6 27 -6z m-2109 -7 c-5 -5 -12 -12 -16 -18 -4 -6 -8 -2 -8 8 0 9 7 17
17 17 9 0 12 -3 7 -7z m1111 -2 c3 -5 1 -12 -5 -16 -5 -3 -10 1 -10 9 0 18 6
21 15 7z m1413 2 c-10 -2 -26 -2 -35 0 -10 3 -2 5 17 5 19 0 27 -2 18 -5z
m-2498 -13 c0 -5 -5 -10 -11 -10 -5 0 -7 5 -4 10 3 6 8 10 11 10 2 0 4 -4 4
-10z m69 -6 c2 -2 -3 -4 -12 -4 -8 0 -22 -2 -30 -5 -8 -4 -14 0 -14 9 0 12 7
14 26 9 14 -3 28 -7 30 -9z m1328 -16 c-3 -7 -5 -2 -5 12 0 14 2 19 5 13 2 -7
2 -19 0 -25z m80 0 c-3 -7 -5 -2 -5 12 0 14 2 19 5 13 2 -7 2 -19 0 -25z m403
23 c0 -5 -9 -7 -20 -4 -11 3 -20 7 -20 9 0 2 9 4 20 4 11 0 20 -4 20 -9z
m-1770 -5 c0 -2 -7 -6 -15 -10 -8 -3 -15 -1 -15 4 0 6 7 10 15 10 8 0 15 -2
15 -4z m345 -29 c4 -18 5 -51 2 -72 -3 -34 -4 -32 -5 15 -3 67 -8 77 -47 83
-28 4 -27 4 7 6 34 1 38 -1 43 -32z m855 18 c-7 -9 -15 -13 -19 -10 -3 3 1 10
9 15 21 14 24 12 10 -5z m-952 0 c-7 -7 -209 -8 -216 -1 -3 3 46 6 108 6 62 0
111 -2 108 -5z m667 -14 c-3 -6 -11 -11 -17 -11 -6 0 -6 6 2 15 14 17 26 13
15 -4z m752 -7 c-3 -3 -12 -4 -19 -1 -8 3 -5 6 6 6 11 1 17 -2 13 -5z m115
-13 c4 -4 -10 -5 -32 -3 -22 2 -42 8 -45 12 -6 10 66 1 77 -9z m-1831 0 c-7
-5 -10 -14 -7 -20 4 -7 -1 -11 -13 -11 -17 0 -20 10 -12 38 1 1 11 2 24 2 16
0 18 -3 8 -9z m285 -18 c-7 -7 -26 7 -26 19 0 6 6 6 15 -2 9 -7 13 -15 11 -17z
m1127 15 c-6 -11 -61 -10 -67 0 -2 4 13 8 34 7 21 0 36 -3 33 -7z m257 2 c-8
-5 -19 -10 -25 -10 -5 0 -3 5 5 10 8 5 20 10 25 10 6 0 3 -5 -5 -10z m-1314
-47 c-7 -7 -26 7 -26 19 0 6 6 6 15 -2 9 -7 13 -15 11 -17z m1257 2 c4 -25 4
-25 -13 -8 -17 18 -17 33 -1 33 5 0 11 -11 14 -25z m65 0 c-3 -3 -9 2 -12 12
-6 14 -5 15 5 6 7 -7 10 -15 7 -18z m156 11 c-3 -8 -15 -17 -27 -20 -32 -8
-37 -7 -37 8 0 9 8 12 24 9 13 -3 27 0 30 6 10 16 16 14 10 -3z m-119 -6 c3
-5 2 -10 -4 -10 -5 0 -13 5 -16 10 -3 6 -2 10 4 10 5 0 13 -4 16 -10z m-420
-10 c-3 -5 -14 -10 -23 -10 -15 0 -15 2 -2 10 20 13 33 13 25 0z m249 -5 c-7
-16 -24 -21 -24 -6 0 8 7 13 27 20 1 1 0 -6 -3 -14z m-1561 -12 c-7 -2 -19 -2
-25 0 -7 3 -2 5 12 5 14 0 19 -2 13 -5z m1767 -2 c0 -5 -8 -11 -17 -14 -10 -2
-26 -8 -35 -12 -10 -4 -18 -3 -18 2 0 5 15 14 33 20 17 5 33 11 35 12 1 0 2
-3 2 -8z m-1715 -19 c-3 -3 -11 0 -18 7 -9 10 -8 11 6 5 10 -3 15 -9 12 -12z
m1435 -2 c0 -5 -7 -10 -15 -10 -8 0 -15 5 -15 10 0 6 7 10 15 10 8 0 15 -4 15
-10z m-1388 -15 c64 0 111 -3 105 -7 -15 -10 -153 -10 -238 -1 -44 4 -57 9
-44 14 11 4 29 4 40 1 11 -4 72 -7 137 -7z m175 9 c-3 -3 -12 -4 -19 -1 -8 3
-5 6 6 6 11 1 17 -2 13 -5z m113 -4 c11 -8 7 -9 -15 -4 -37 8 -45 14 -19 14
10 0 26 -5 34 -10z m1021 -33 c-8 -8 -11 -7 -11 4 0 9 3 19 7 23 4 4 9 2 11
-4 3 -7 -1 -17 -7 -23z m265 24 c-3 -5 -15 -11 -26 -14 -17 -4 -19 -3 -9 9 12
15 44 20 35 5z m-1358 -8 c-15 -2 -42 -2 -60 0 -18 2 -6 4 27 4 33 0 48 -2 33
-4z m1286 -24 c-8 -14 -24 -10 -24 6 0 9 6 12 15 9 8 -4 12 -10 9 -15z m-254
-9 c0 -5 -6 -10 -14 -10 -8 0 -18 5 -21 10 -3 6 3 10 14 10 12 0 21 -4 21 -10z
m-1382 -17 c-10 -2 -28 -2 -40 0 -13 2 -5 4 17 4 22 1 32 -1 23 -4z m438 -8
c-11 -8 -29 -12 -39 -9 -13 4 -17 2 -13 -5 5 -8 0 -8 -19 -1 -31 12 -58 13
-52 2 5 -7 -240 3 -273 11 -8 2 65 4 163 4 98 0 181 3 184 7 4 3 20 6 37 6 29
-1 30 -1 12 -15z m879 5 c-3 -5 -10 -10 -16 -10 -5 0 -9 5 -9 10 0 6 7 10 16
10 8 0 12 -4 9 -10z m240 0 c-3 -5 -13 -10 -21 -10 -8 0 -12 5 -9 10 3 6 13
10 21 10 8 0 12 -4 9 -10z m-295 -15 c-14 -17 -30 -20 -30 -6 0 5 8 12 18 14
9 3 19 5 21 6 2 0 -2 -6 -9 -14z m235 -5 c-3 -5 -12 -10 -18 -10 -7 0 -6 4 3
10 19 12 23 12 15 0z m-51 -21 c-6 -11 -24 -2 -24 11 0 5 7 7 15 4 8 -4 12
-10 9 -15z m-1317 5 c-3 -3 -12 -4 -19 -1 -8 3 -5 6 6 6 11 1 17 -2 13 -5z
m186 -11 c-7 -2 -19 -2 -25 0 -7 3 -2 5 12 5 14 0 19 -2 13 -5z m899 -10 c10
-9 18 -26 17 -37 0 -20 -1 -20 -9 2 -12 29 -36 38 -71 25 -16 -6 -29 -8 -29
-3 0 8 43 27 64 29 5 1 18 -6 28 -16z m84 -43 c7 0 16 5 19 10 3 6 11 10 16
10 6 0 4 -7 -5 -15 -29 -29 -57 -15 -70 35 -5 19 -2 18 11 -7 9 -18 22 -33 29
-33z m114 40 c0 -4 -8 -10 -19 -13 -14 -3 -17 0 -14 14 5 17 33 16 33 -1z
m-1000 -18 c0 -15 -11 -21 -27 -15 -12 5 -12 7 -1 14 17 11 28 11 28 1z m20
-57 c0 -8 -2 -15 -4 -15 -2 0 -6 7 -10 15 -3 8 -1 15 4 15 6 0 10 -7 10 -15z
m790 7 c0 -10 -50 -35 -57 -28 -3 3 29 24 55 35 1 1 2 -3 2 -7z m-813 -54 c-3
-8 -6 -5 -6 6 -1 11 2 17 5 13 3 -3 4 -12 1 -19z m40 -80 c-2 -13 -4 -3 -4 22
0 25 2 35 4 23 2 -13 2 -33 0 -45z m-220 30 c-3 -8 -6 -5 -6 6 -1 11 2 17 5
13 3 -3 4 -12 1 -19z m-260 -44 c-3 -3 -12 -4 -19 -1 -8 3 -5 6 6 6 11 1 17
-2 13 -5z m61 -11 c-10 -2 -26 -2 -35 0 -10 3 -2 5 17 5 19 0 27 -2 18 -5z
m385 0 c-7 -2 -19 -2 -25 0 -7 3 -2 5 12 5 14 0 19 -2 13 -5z m-286 -9 c-3 -3
-12 -4 -19 -1 -8 3 -5 6 6 6 11 1 17 -2 13 -5z m56 -1 c-7 -2 -19 -2 -25 0 -7
3 -2 5 12 5 14 0 19 -2 13 -5z m137 -3 c0 -5 -2 -10 -4 -10 -3 0 -8 5 -11 10
-3 6 -1 10 4 10 6 0 11 -4 11 -10z m-223 -26 c-3 -3 -12 -4 -19 -1 -8 3 -5 6
6 6 11 1 17 -2 13 -5z m1846 -15 c7 -27 -12 -58 -40 -65 -13 -4 -21 -10 -18
-14 2 -4 -23 -10 -57 -13 -35 -3 -67 -12 -73 -19 -5 -8 -18 -12 -29 -10 -10 2
-38 -4 -63 -13 -24 -9 -47 -15 -50 -11 -9 9 -44 -14 -38 -25 4 -5 -5 -9 -19
-9 -14 0 -27 4 -30 9 -9 14 -91 -14 -94 -33 -2 -10 -14 -16 -32 -16 -16 0 -31
-6 -33 -12 -4 -10 -8 -9 -16 2 -6 8 -11 10 -11 4 0 -13 -118 -37 -187 -38 -56
-1 -77 -12 -50 -27 9 -6 17 -17 17 -26 0 -14 -2 -14 -15 3 -14 18 -14 17 -15
-13 0 -18 -4 -33 -8 -33 -5 0 -6 23 -2 50 5 39 3 50 -7 50 -9 0 -11 -5 -7 -12
4 -7 3 -10 -1 -5 -5 4 -10 15 -11 25 -1 9 -5 24 -8 33 -6 14 3 19 46 30 29 8
58 14 63 15 6 0 17 3 25 7 14 5 369 95 400 101 8 2 22 6 30 9 30 11 255 61
268 58 6 -1 12 3 12 9 0 20 47 11 53 -11z m-1990 -9 c3 -11 1 -20 -4 -20 -5 0
-9 9 -9 20 0 11 2 20 4 20 2 0 6 -9 9 -20z m494 -2 c-3 -8 -6 -5 -6 6 -1 11 2
17 5 13 3 -3 4 -12 1 -19z m-22 1 c11 -16 1 -19 -13 -3 -7 8 -8 14 -3 14 5 0
13 -5 16 -11z m-367 -6 c-10 -2 -26 -2 -35 0 -10 3 -2 5 17 5 19 0 27 -2 18
-5z m305 0 c-7 -2 -19 -2 -25 0 -7 3 -2 5 12 5 14 0 19 -2 13 -5z m-100 -10
c-35 -2 -91 -2 -125 0 -35 2 -7 3 62 3 69 0 97 -1 63 -3z m184 -35 c-3 -7 -5
-2 -5 12 0 14 2 19 5 13 2 -7 2 -19 0 -25z m1523 18 c0 -8 6 -16 13 -19 6 -2
-1 -6 -16 -9 -22 -4 -27 -2 -23 9 3 8 6 19 6 24 0 5 5 9 10 9 6 0 10 -6 10
-14z m-1963 -82 c-3 -3 -12 -4 -19 -1 -8 3 -5 6 6 6 11 1 17 -2 13 -5z m40 0
c-3 -3 -12 -4 -19 -1 -8 3 -5 6 6 6 11 1 17 -2 13 -5z m363 -4 c-34 -11 -60
-11 -35 0 11 5 29 8 40 8 16 0 15 -2 -5 -8z m-262 -7 c-10 -2 -28 -2 -40 0
-13 2 -5 4 17 4 22 1 32 -1 23 -4z m175 0 c-7 -2 -19 -2 -25 0 -7 3 -2 5 12 5
14 0 19 -2 13 -5z m1765 -6 c-7 -8 -20 -12 -30 -9 -29 7 -21 22 12 22 25 0 29
-2 18 -13z m-1105 -60 c-8 -14 -23 4 -23 27 0 35 14 41 21 9 3 -15 4 -31 2
-36z m1031 48 c-3 -8 -13 -14 -22 -13 -10 1 -30 0 -47 -1 l-30 -3 29 -12 c16
-7 24 -16 19 -19 -5 -3 -22 5 -39 18 l-29 24 35 2 c28 1 68 9 87 18 1 1 0 -6
-3 -14z m110 -1 c9 -3 16 -16 15 -28 0 -19 -1 -19 -8 -3 -4 10 -11 18 -16 17
-5 -1 -11 3 -13 9 -4 13 0 13 22 5z m-1931 -21 c-18 -2 -48 -2 -65 0 -18 2 -4
4 32 4 36 0 50 -2 33 -4z m130 0 c-18 -2 -48 -2 -65 0 -18 2 -4 4 32 4 36 0
50 -2 33 -4z m1347 -2 c0 -17 -15 -19 -28 -5 -11 12 -9 14 8 14 11 0 20 -4 20
-9z m230 -6 c9 -11 10 -19 3 -26 -8 -8 -13 -5 -18 10 -8 28 -23 27 -27 -1 -2
-13 -9 -24 -15 -24 -7 -1 -18 -2 -24 -3 -5 0 -8 -4 -5 -9 2 -4 -13 -6 -35 -4
-32 3 -39 1 -40 -14 0 -11 -3 -14 -6 -6 -2 6 -13 12 -24 12 -10 0 -19 5 -19
11 0 5 -4 8 -8 5 -4 -2 -14 -1 -21 3 -8 5 3 11 30 15 23 4 44 4 47 1 3 -3 -2
-5 -11 -5 -9 0 -17 -5 -17 -10 0 -13 79 -1 104 16 16 11 12 12 -25 8 l-44 -3
53 13 c30 8 56 17 59 20 11 11 30 6 43 -9z m163 8 c-7 -2 -19 -2 -25 0 -7 3
-2 5 12 5 14 0 19 -2 13 -5z m-38 -13 c3 -5 1 -10 -4 -10 -6 0 -11 5 -11 10 0
6 2 10 4 10 3 0 8 -4 11 -10z m-1115 -10 c0 -5 -4 -10 -10 -10 -5 0 -10 -7
-10 -17 0 -9 -3 -14 -6 -10 -8 8 5 47 17 47 5 0 9 -4 9 -10z m1075 -20 c3 -5
-1 -10 -10 -10 -9 0 -13 5 -10 10 3 6 8 10 10 10 2 0 7 -4 10 -10z m72 4 c-3
-3 -12 -4 -19 -1 -8 3 -5 6 6 6 11 1 17 -2 13 -5z m-1128 -57 c1 -15 -2 -15
-19 -5 -11 7 -16 14 -10 16 5 2 10 13 11 25 0 21 1 21 9 2 5 -11 9 -28 9 -38z
m-63 -22 c7 -22 17 -66 24 -97 27 -135 164 -181 363 -122 14 5 17 -2 17 -40 0
-44 1 -46 30 -46 l30 0 0 -115 c0 -109 -1 -115 -21 -115 -11 0 -17 -4 -14 -10
10 -17 -38 -10 -75 10 -27 15 -30 19 -15 20 15 0 10 7 -20 25 -22 13 -44 28
-50 32 -21 18 -227 143 -235 143 -5 0 -10 3 -12 8 -3 7 -53 41 -128 87 -19 12
-61 38 -92 58 -32 20 -60 37 -62 37 -2 0 -45 27 -94 60 -50 33 -94 60 -97 60
-4 0 -18 9 -32 20 l-25 20 213 2 c118 2 230 3 249 3 32 0 36 -3 46 -40z m934
41 c0 -2 -11 -6 -25 -8 -14 -3 -25 -1 -25 3 0 5 11 9 25 9 14 0 25 -2 25 -4z
m40 -6 c0 -5 -8 -10 -17 -10 -15 0 -16 2 -3 10 19 12 20 12 20 0z m390 -82
c58 -22 132 -50 165 -63 33 -12 71 -27 85 -31 41 -14 -85 -21 -392 -23 l-277
-1 -6 -37 c-11 -67 -13 -69 -14 -15 l-1 52 -157 0 c-86 0 -154 2 -152 5 3 2
57 18 119 34 120 31 309 81 420 112 74 20 69 21 210 -33z m-1305 32 c-3 -5
-10 -10 -16 -10 -5 0 -9 5 -9 10 0 6 7 10 16 10 8 0 12 -4 9 -10z m105 -143
c9 -3 3 -6 -12 -6 -20 -1 -28 4 -28 15 0 12 4 14 13 7 6 -6 19 -13 27 -16z
m1485 -43 c34 -16 45 -37 45 -86 0 -26 -3 -28 -45 -28 -44 0 -45 1 -45 31 0
37 -23 35 -28 -2 -2 -21 7 -33 50 -65 62 -47 78 -73 78 -136 0 -35 -6 -54 -24
-75 -22 -25 -31 -28 -85 -28 -78 0 -102 21 -109 94 l-5 51 47 0 46 0 0 -41 c0
-33 3 -40 18 -37 12 2 17 13 17 38 0 29 -7 39 -54 75 -61 47 -69 61 -70 123
-2 85 79 127 164 86z m115 0 l40 -16 0 -139 0 -139 -27 -1 -28 -1 30 -7 30 -7
-30 -6 c-38 -8 -45 3 -45 68 0 37 -6 59 -21 78 -18 23 -18 26 -4 26 15 0 17
10 13 80 -2 44 -2 80 -1 80 2 0 21 -7 43 -16z m939 1 c33 -17 51 -59 51 -121
l0 -44 -45 0 -45 0 0 56 c0 47 -3 55 -17 52 -16 -3 -18 -17 -18 -133 0 -109 2
-130 15 -130 11 0 16 13 18 48 l3 47 46 0 45 0 -4 -57 c-4 -48 -10 -61 -37
-85 -55 -49 -148 -31 -170 33 -16 46 -14 268 3 298 27 48 99 65 155 36z
m-2049 -35 c0 -39 -1 -40 -35 -40 l-35 0 0 -155 0 -155 -45 0 -45 0 0 155 0
155 -30 0 c-28 0 -30 2 -30 40 l0 40 110 0 110 0 0 -40z m110 -35 c0 -68 2
-75 20 -75 18 0 20 7 20 75 l0 75 45 0 45 0 0 -195 0 -195 -45 0 -45 0 0 80
c0 73 -2 80 -20 80 -18 0 -20 -7 -20 -80 l0 -80 -45 0 -45 0 0 195 0 195 45 0
45 0 0 -75z m360 63 c0 -7 11 -87 25 -178 14 -91 25 -173 25 -182 0 -15 -9
-18 -50 -18 l-50 0 0 35 c0 31 -3 35 -25 35 -22 0 -25 -4 -25 -35 l0 -35 -50
0 c-60 0 -59 -14 -25 205 14 88 25 166 25 173 0 8 22 12 75 12 53 0 75 -4 75
-12z m250 -28 c0 -39 -1 -40 -35 -40 l-35 0 0 -155 0 -155 -45 0 -45 0 0 155
0 155 -30 0 c-28 0 -30 2 -30 40 l0 40 110 0 110 0 0 -40z m90 11 c0 -40 -20
-91 -35 -91 -15 0 -35 51 -35 91 0 26 3 29 35 29 32 0 35 -3 35 -29z m540 -11
l0 -40 -40 0 -40 0 0 -40 0 -40 40 0 c39 0 40 -1 40 -35 0 -34 -1 -35 -40 -35
l-40 0 0 -80 0 -80 -45 0 -45 0 0 195 0 195 85 0 85 0 0 -40z m190 28 c0 -7
11 -87 25 -178 14 -91 25 -173 25 -182 0 -15 -9 -18 -50 -18 l-50 0 0 35 c0
31 -3 35 -25 35 -22 0 -25 -4 -25 -35 l0 -35 -50 0 c-60 0 -59 -14 -25 205 14
88 25 166 25 173 0 8 22 12 75 12 53 0 75 -4 75 -12z m179 -70 l30 -83 0 83 1
82 45 0 45 0 0 -195 0 -195 -40 0 -39 0 -21 72 c-12 40 -23 78 -25 83 -2 6 -4
-27 -4 -72 l-1 -83 -45 0 -45 0 0 195 0 195 34 0 c34 0 35 -1 65 -82z m515 30
c4 -29 10 -64 13 -77 6 -24 7 -24 14 -5 4 12 10 46 14 77 l7 57 45 0 c34 0 44
-3 40 -13 -30 -79 -67 -247 -67 -307 l0 -70 -45 0 -45 0 0 73 c0 64 -20 154
-65 296 -6 19 -3 21 38 21 l44 0 7 -52z m-2246 -170 c-2 -78 -7 -113 -15 -116
-10 -3 -13 24 -13 112 0 98 2 116 15 116 13 0 15 -17 13 -112z m539 90 c-3 -8
-6 -5 -6 6 -1 11 2 17 5 13 3 -3 4 -12 1 -19z m196 2 c4 -15 14 -20 39 -20 28
-1 36 -6 49 -35 13 -29 14 -35 3 -35 -10 0 -14 -14 -14 -45 l0 -45 -47 -2 -48
-1 50 -7 50 -7 -40 -2 c-22 -2 -50 -4 -62 -5 -23 -3 -23 -1 -23 111 0 104 1
113 19 113 10 0 21 -9 24 -20z m617 10 c0 -5 -9 -10 -20 -10 -11 0 -20 5 -20
10 0 6 9 10 20 10 11 0 20 -4 20 -10z m-28 -170 c-2 -16 -6 -30 -8 -30 -2 0
-4 14 -4 30 0 17 4 30 8 30 5 0 7 -13 4 -30z m1063 -40 c-3 -5 -14 -10 -23 -9
-14 0 -13 2 3 9 27 11 27 11 20 0z m775 -90 c0 -16 5 -30 10 -30 6 0 10 5 10
10 0 6 7 10 16 10 13 0 14 -3 5 -14 -10 -11 -10 -20 -1 -36 15 -27 3 -41 -14
-17 -16 21 -26 22 -26 2 0 -8 -4 -15 -10 -15 -6 0 -10 27 -10 60 0 33 4 60 10
60 6 0 10 -13 10 -30z m-935 -10 c-3 -5 -12 -10 -18 -10 -7 0 -6 4 3 10 19 12
23 12 15 0z m803 -43 c2 -20 -1 -37 -7 -37 -5 0 -11 15 -13 33 -2 17 -7 32
-13 32 -5 0 -11 -15 -13 -32 -4 -41 -22 -43 -22 -3 0 20 -5 30 -15 30 -10 0
-15 -10 -15 -30 0 -16 -4 -30 -10 -30 -5 0 -10 18 -10 39 0 44 13 51 80 41 32
-5 35 -8 38 -43z m267 26 c7 -19 -12 -34 -32 -26 -7 3 -13 0 -13 -6 0 -6 9
-11 20 -11 11 0 20 -4 20 -10 0 -13 -26 -13 -51 0 -25 14 -24 45 2 64 24 16
45 12 54 -11z m85 -27 c0 -32 -2 -34 -32 -33 -39 2 -53 35 -19 44 25 6 28 23
4 23 -15 0 -15 2 -4 9 25 16 51 -6 51 -43z m358 40 c14 -9 16 -76 3 -76 -6 0
-11 15 -13 33 -2 17 -7 32 -13 32 -5 0 -11 -15 -13 -32 -4 -41 -22 -43 -22 -3
0 20 -5 30 -15 30 -10 0 -15 -10 -15 -30 0 -16 -4 -30 -10 -30 -5 0 -10 18
-10 39 0 33 4 40 23 43 34 5 72 2 85 -6z m90 2 c20 -20 14 -38 -13 -38 -34 0
-32 -18 3 -22 24 -4 25 -5 8 -13 -41 -18 -77 45 -40 72 22 16 27 16 42 1z
m147 -18 c9 -15 -4 -47 -22 -54 -46 -18 -81 35 -43 66 22 18 50 13 65 -12z
m-857 -22 c3 -35 2 -36 -30 -35 -39 2 -53 35 -19 44 28 7 27 20 -1 26 -13 3
-7 4 12 4 33 -2 35 -4 38 -39z m400 0 c2 -21 -1 -38 -7 -38 -5 0 -11 15 -13
33 -2 17 -7 32 -13 32 -5 0 -11 -15 -13 -32 -4 -41 -22 -44 -22 -4 0 17 -4 32
-9 35 -10 7 -21 -17 -21 -45 0 -10 -4 -19 -10 -19 -5 0 -10 18 -10 40 l0 40
58 -2 57 -3 3 -37z m90 20 c3 -14 -3 -18 -24 -18 -30 0 -23 -15 11 -22 19 -5
19 -5 1 -13 -34 -15 -67 23 -52 61 8 21 60 14 64 -8z m432 11 c0 -5 -4 -9 -9
-9 -5 0 -11 -12 -13 -27 -4 -40 -22 -34 -26 8 -3 33 -1 37 22 37 15 0 26 -4
26 -9z m90 -32 c0 -24 -5 -48 -12 -55 -15 -15 -58 -16 -58 -2 0 6 11 10 25 10
14 0 25 5 25 11 0 6 -6 9 -14 6 -25 -10 -50 17 -42 46 5 23 12 27 41 27 35 0
35 -1 35 -43z m-1990 -2 c0 -6 -83 -46 -87 -41 -2 2 16 13 39 24 49 24 48 24
48 17z m1740 -20 c0 -8 -4 -15 -9 -15 -13 0 -22 16 -14 24 11 11 23 6 23 -9z"/>
<path d="M2507 4323 c-4 -3 -7 -67 -7 -140 0 -103 3 -134 13 -131 9 3 13 43
15 141 2 125 -2 150 -21 130z"/>
<path d="M2777 4323 c-4 -3 -7 -67 -7 -140 0 -103 3 -134 13 -131 9 3 13 43
15 141 2 125 -2 150 -21 130z"/>
<path d="M3050 4189 c0 -108 3 -140 13 -137 9 3 13 43 15 141 2 117 0 137 -13
137 -13 0 -15 -21 -15 -141z"/>
<path d="M5817 4136 c-3 -8 -2 -27 3 -43 8 -26 8 -25 9 15 1 43 -3 52 -12 28z"/>
<path d="M5863 4093 c-21 -8 -15 -22 7 -16 11 3 20 9 20 14 0 10 -8 10 -27 2z"/>
<path d="M4470 2775 c-10 -13 -9 -15 8 -15 12 0 28 -10 36 -22 l16 -22 0 22
c0 12 -6 22 -12 22 -8 0 -5 7 6 15 19 14 18 15 -11 15 -17 0 -36 -7 -43 -15z"/>
<path d="M5588 3683 c-20 -5 -23 -20 -8 -43 8 -13 12 -12 27 6 34 37 27 49
-19 37z m17 -22 c-3 -6 -11 -11 -16 -11 -5 0 -4 6 3 14 14 16 24 13 13 -3z"/>
<path d="M5446 3374 c-8 -22 -8 -26 3 -19 5 3 12 1 16 -5 3 -5 -1 -10 -9 -10
-9 0 -16 -4 -16 -10 0 -15 15 -12 33 8 13 14 13 20 3 35 -16 21 -22 21 -30 1z"/>
<path d="M3968 2733 c6 -2 18 -2 25 0 6 3 1 5 -13 5 -14 0 -19 -2 -12 -5z"/>
<path d="M4120 2680 c0 -5 5 -10 11 -10 5 0 7 5 4 10 -3 6 -8 10 -11 10 -2 0
-4 -4 -4 -10z"/>
<path d="M4090 2676 c0 -2 8 -10 18 -17 15 -13 16 -12 3 4 -13 16 -21 21 -21
13z"/>
<path d="M3436 2527 c3 -10 9 -15 12 -12 3 3 0 11 -7 18 -10 9 -11 8 -5 -6z"/>
<path d="M3471 2504 c0 -11 3 -14 6 -6 3 7 2 16 -1 19 -3 4 -6 -2 -5 -13z"/>
<path d="M3700 2421 c0 -5 5 -13 10 -16 6 -3 10 -2 10 4 0 5 -4 13 -10 16 -5
3 -10 2 -10 -4z"/>
<path d="M3610 2384 c0 -11 6 -15 20 -11 16 4 20 0 20 -22 0 -37 38 -59 69
-40 29 19 27 33 -10 63 -36 31 -99 37 -99 10z"/>
<path d="M3725 2290 c-13 -6 -15 -9 -5 -9 8 0 22 4 30 9 18 12 2 12 -25 0z"/>
<path d="M3746 2263 c6 -4 14 -15 17 -23 5 -11 6 -9 4 4 -1 11 -9 21 -17 23
-10 3 -11 2 -4 -4z"/>
<path d="M4100 2215 c-11 -13 -10 -14 4 -9 9 3 16 10 16 15 0 13 -6 11 -20 -6z"/>
<path d="M3835 2200 c-3 -5 -1 -10 4 -10 6 0 11 5 11 10 0 6 -2 10 -4 10 -3 0
-8 -4 -11 -10z"/>
<path d="M1318 2003 c7 -3 16 -2 19 1 4 3 -2 6 -13 5 -11 0 -14 -3 -6 -6z"/>
<path d="M2225 1989 c-4 -6 -5 -12 -2 -15 2 -3 7 2 10 11 7 17 1 20 -8 4z"/>
<path d="M2231 1924 c0 -11 3 -14 6 -6 3 7 2 16 -1 19 -3 4 -6 -2 -5 -13z"/>
<path d="M1208 1773 c7 -3 16 -2 19 1 4 3 -2 6 -13 5 -11 0 -14 -3 -6 -6z"/>
<path d="M1161 1604 c0 -11 3 -14 6 -6 3 7 2 16 -1 19 -3 4 -6 -2 -5 -13z"/>
<path d="M1065 1600 c-3 -5 -1 -10 4 -10 6 0 11 5 11 10 0 6 -2 10 -4 10 -3 0
-8 -4 -11 -10z"/>
<path d="M1070 1550 c0 -5 5 -10 10 -10 6 0 10 5 10 10 0 6 -4 10 -10 10 -5 0
-10 -4 -10 -10z"/>
<path d="M2130 1380 c20 -13 33 -13 25 0 -3 6 -14 10 -23 10 -15 0 -15 -2 -2
-10z"/>
<path d="M1765 1230 c4 -6 11 -8 16 -5 14 9 11 15 -7 15 -8 0 -12 -5 -9 -10z"/>
<path d="M2200 1230 c0 -5 5 -10 10 -10 6 0 10 5 10 10 0 6 -4 10 -10 10 -5 0
-10 -4 -10 -10z"/>
<path d="M1145 1220 c3 -5 8 -10 11 -10 2 0 4 5 4 10 0 6 -5 10 -11 10 -5 0
-7 -4 -4 -10z"/>
<path d="M1231 1169 c0 -13 4 -33 9 -44 7 -14 8 -8 3 20 -7 46 -13 59 -12 24z"/>
<path d="M1181 1164 c0 -11 3 -14 6 -6 3 7 2 16 -1 19 -3 4 -6 -2 -5 -13z"/>
<path d="M1555 1140 c-3 -5 -1 -10 4 -10 6 0 11 5 11 10 0 6 -2 10 -4 10 -3 0
-8 -4 -11 -10z"/>
<path d="M1175 1130 c-3 -5 -1 -10 4 -10 6 0 11 5 11 10 0 6 -2 10 -4 10 -3 0
-8 -4 -11 -10z"/>
<path d="M1271 994 c0 -11 3 -14 6 -6 3 7 2 16 -1 19 -3 4 -6 -2 -5 -13z"/>
<path d="M1385 940 c-3 -5 -1 -10 4 -10 6 0 11 5 11 10 0 6 -2 10 -4 10 -3 0
-8 -4 -11 -10z"/>
<path d="M1435 930 c3 -5 8 -10 11 -10 2 0 4 5 4 10 0 6 -5 10 -11 10 -5 0 -7
-4 -4 -10z"/>
<path d="M1950 800 c12 -8 10 -10 -10 -8 -14 2 -26 -1 -28 -7 -1 -5 12 -11 30
-13 39 -4 47 -10 29 -21 -17 -11 -6 -31 17 -31 12 0 13 -3 5 -11 -20 -20 -88
18 -102 58 -12 31 -15 33 -29 20 -10 -8 -24 -12 -32 -10 -13 4 -13 3 0 -6 8
-6 22 -11 32 -11 9 0 22 -13 29 -30 11 -23 18 -28 36 -24 15 4 23 2 23 -6 0
-8 9 -10 28 -6 15 4 42 8 60 11 45 5 50 12 26 36 -13 13 -27 17 -38 13 -17 -6
-16 -8 5 -20 l24 -13 -27 -1 c-33 0 -38 25 -10 46 16 13 16 13 -1 14 -10 0
-25 7 -33 15 -9 8 -23 15 -32 15 -15 0 -15 -2 -2 -10z"/>
<path d="M1311 773 c0 -10 4 -27 9 -38 7 -16 9 -13 9 18 1 20 -3 37 -9 37 -5
0 -10 -8 -9 -17z"/>
<path d="M1760 761 c0 -6 7 -11 16 -11 8 0 13 -4 10 -8 -12 -20 11 -29 54 -22
41 7 33 13 -15 12 -17 -1 -17 0 -2 4 25 8 21 24 -7 24 -13 0 -31 3 -40 6 -9 3
-16 1 -16 -5z"/>
<path d="M2185 760 c-3 -5 1 -10 9 -10 9 0 16 5 16 10 0 6 -4 10 -9 10 -6 0
-13 -4 -16 -10z"/>
<path d="M1920 750 c0 -5 7 -10 16 -10 8 0 12 5 9 10 -3 6 -10 10 -16 10 -5 0
-9 -4 -9 -10z"/>
<path d="M2135 750 c-3 -5 3 -10 15 -10 12 0 18 5 15 10 -3 6 -10 10 -15 10
-5 0 -12 -4 -15 -10z"/>
<path d="M1678 728 c6 -6 18 -8 28 -6 14 3 12 5 -9 10 -19 3 -25 2 -19 -4z"/>
<path d="M1630 726 c0 -2 9 -6 20 -9 11 -3 18 -1 14 4 -5 9 -34 13 -34 5z"/>
<path d="M1285 710 c-4 -6 -11 -8 -16 -5 -5 4 -9 -8 -9 -24 0 -17 5 -31 10
-31 6 0 10 -7 10 -16 0 -8 5 -12 11 -9 6 4 8 10 5 13 -3 3 -1 11 6 19 6 7 8
17 4 20 -4 4 -11 1 -16 -7 -5 -8 -12 -12 -15 -8 -4 3 1 18 10 32 10 14 15 26
12 26 -3 0 -9 -5 -12 -10z"/>
<path d="M1572 708 c10 -5 8 -8 -5 -8 -21 0 -53 -28 -43 -38 4 -3 10 -2 14 3
13 18 53 36 64 29 6 -4 8 -3 4 4 -3 5 0 12 6 14 7 3 -2 5 -20 5 -21 0 -28 -3
-20 -9z"/>
<path d="M1715 710 c-19 -8 -19 -9 2 -9 12 -1 25 4 28 9 7 12 -2 12 -30 0z"/>
<path d="M1820 698 c-35 -17 -36 -18 -20 -29 11 -7 7 -9 -15 -8 -16 0 -48 -4
-70 -10 -22 -6 -58 -11 -80 -12 -28 -1 -33 -3 -15 -6 14 -3 28 -10 32 -17 5
-8 8 -7 8 3 0 11 3 11 17 0 12 -10 15 -11 9 -1 -6 10 -1 11 20 6 21 -5 25 -4
19 6 -6 10 -1 12 22 7 19 -4 38 -1 51 9 13 9 33 12 49 9 23 -4 24 -4 8 4 -19
9 -19 10 -1 10 20 1 20 1 0 16 -17 13 -17 14 -2 15 9 0 20 -4 23 -10 3 -5 20
-10 37 -10 32 0 32 12 0 16 -9 0 -28 4 -42 7 -14 3 -36 1 -50 -5z m20 -18 c0
-5 -4 -10 -10 -10 -5 0 -10 5 -10 10 0 6 5 10 10 10 6 0 10 -4 10 -10z"/>
<path d="M1674 681 c0 -11 5 -17 13 -14 10 4 11 9 2 19 -15 18 -15 18 -15 -5z"/>
<path d="M1564 655 c-17 -13 -17 -14 -1 -15 9 0 17 4 17 9 0 5 8 12 18 14 13
4 14 5 1 6 -8 0 -24 -6 -35 -14z"/>
<path d="M1509 618 c-11 -7 -9 -8 5 -4 13 5 17 2 12 -9 -3 -8 -1 -15 3 -15 5
0 18 -3 28 -6 14 -4 15 -4 4 4 -7 5 -11 14 -7 20 8 14 -29 22 -45 10z"/>
<path d="M1435 570 c-3 -5 3 -10 14 -10 11 0 23 5 26 10 3 6 -3 10 -14 10 -11
0 -23 -4 -26 -10z"/>
<path d="M722 1890 c0 -14 2 -19 5 -12 2 6 2 18 0 25 -3 6 -5 1 -5 -13z"/>
<path d="M366 1815 c-3 -8 -1 -15 4 -15 6 0 10 7 10 15 0 8 -2 15 -4 15 -2 0
-6 -7 -10 -15z"/>
<path d="M4727 1284 c-4 -4 -7 -14 -7 -23 0 -11 3 -12 11 -4 6 6 10 16 7 23
-2 6 -7 8 -11 4z"/>
<path d="M2240 1050 c0 -5 5 -10 10 -10 6 0 10 5 10 10 0 6 -4 10 -10 10 -5 0
-10 -4 -10 -10z"/>
<path d="M2188 1043 c7 -3 16 -2 19 1 4 3 -2 6 -13 5 -11 0 -14 -3 -6 -6z"/>
<path d="M2148 1033 c7 -3 16 -2 19 1 4 3 -2 6 -13 5 -11 0 -14 -3 -6 -6z"/>
<path d="M2100 1026 c0 -2 7 -7 16 -10 8 -3 12 -2 9 4 -6 10 -25 14 -25 6z"/>
<path d="M2193 1020 c2 -8 12 -16 23 -17 13 -2 15 -1 4 4 -8 3 -19 11 -23 17
-6 7 -7 6 -4 -4z"/>
<path d="M2235 1020 c3 -5 8 -10 11 -10 2 0 4 5 4 10 0 6 -5 10 -11 10 -5 0
-7 -4 -4 -10z"/>
<path d="M1994 1002 c5 -8 -1 -12 -16 -13 -18 -1 -19 -2 -4 -6 23 -6 43 12 25
22 -8 5 -10 4 -5 -3z"/>
<path d="M1958 963 c7 -3 16 -2 19 1 4 3 -2 6 -13 5 -11 0 -14 -3 -6 -6z"/>
<path d="M1820 950 c-18 -12 -2 -12 25 0 13 6 15 9 5 9 -8 0 -22 -4 -30 -9z"/>
<path d="M1980 950 c-11 -7 -5 -8 20 -4 43 8 51 14 19 14 -13 0 -31 -5 -39
-10z"/>
<path d="M1855 940 c-13 -6 -15 -9 -5 -9 8 0 22 4 30 9 18 12 2 12 -25 0z"/>
<path d="M1951 934 c0 -11 3 -14 6 -6 3 7 2 16 -1 19 -3 4 -6 -2 -5 -13z"/>
<path d="M1718 923 c7 -3 16 -2 19 1 4 3 -2 6 -13 5 -11 0 -14 -3 -6 -6z"/>
<path d="M1669 902 c11 -8 8 -11 -15 -15 l-29 -4 28 -2 c16 0 26 -5 22 -10 -3
-5 -1 -13 5 -16 7 -4 10 3 7 21 -2 15 -10 30 -18 32 -12 3 -12 2 0 -6z"/>
<path d="M1560 890 c-20 -6 -21 -8 -5 -8 11 0 29 3 40 8 25 11 -1 11 -35 0z"/>
<path d="M1595 850 c-7 -12 19 -24 37 -17 7 3 2 6 -12 6 -20 1 -22 3 -10 11 9
6 10 10 3 10 -6 0 -15 -5 -18 -10z"/>
<path d="M1396 833 c5 -5 12 -12 16 -18 4 -6 8 -2 8 8 0 9 -7 17 -17 17 -9 0
-12 -3 -7 -7z"/>
<path d="M1490 829 c0 -5 5 -7 10 -4 6 3 10 8 10 11 0 2 -4 4 -10 4 -5 0 -10
-5 -10 -11z"/>
<path d="M1530 819 c0 -5 5 -7 10 -4 6 3 10 8 10 11 0 2 -4 4 -10 4 -5 0 -10
-5 -10 -11z"/>
<path d="M2241 450 c-1 -14 -4 -49 -7 -77 -6 -45 -4 -53 10 -53 11 0 16 8 15
28 -1 44 -16 129 -18 102z"/>
<path d="M3307 420 c-10 -82 -9 -100 8 -100 16 0 18 22 6 105 l-7 50 -7 -55z"/>
<path d="M5090 120 c0 -5 5 -10 10 -10 6 0 10 5 10 10 0 6 -4 10 -10 10 -5 0
-10 -4 -10 -10z"/>
<path d="M5175 90 c-3 -5 -2 -10 4 -10 5 0 13 5 16 10 3 6 2 10 -4 10 -5 0
-13 -4 -16 -10z"/>
<path d="M5635 120 c-3 -5 1 -10 9 -10 9 0 16 5 16 10 0 6 -4 10 -9 10 -6 0
-13 -4 -16 -10z"/>
<path d="M5767 123 c-13 -12 -7 -43 8 -43 9 0 15 9 15 25 0 24 -10 32 -23 18z"/>
<path d="M4910 90 c0 -5 4 -10 9 -10 6 0 13 5 16 10 3 6 -1 10 -9 10 -9 0 -16
-4 -16 -10z"/>
<path d="M5405 120 c-3 -5 1 -10 9 -10 9 0 16 5 16 10 0 6 -4 10 -9 10 -6 0
-13 -4 -16 -10z"/>
<path d="M5922 117 c-13 -15 1 -42 17 -33 13 9 15 33 2 40 -5 3 -13 0 -19 -7z"/>
<path d="M35 1407 c-15 -17 -13 -55 2 -61 8 -3 10 1 6 11 -4 11 -2 14 5 9 7
-4 12 -2 12 3 0 6 -4 11 -9 11 -5 0 -7 9 -4 20 6 23 3 25 -12 7z"/>
<path d="M2 1305 c0 -16 2 -22 5 -12 2 9 2 23 0 30 -3 6 -5 -1 -5 -18z"/>
<path d="M35 1310 c4 -11 2 -20 -4 -20 -13 0 -14 -10 -1 -30 8 -13 11 -13 22
-1 10 10 10 12 1 7 -16 -9 -17 6 -2 21 13 13 5 43 -11 43 -7 0 -9 -8 -5 -20z"/>
<path d="M51 1164 c0 -11 3 -14 6 -6 3 7 2 16 -1 19 -3 4 -6 -2 -5 -13z"/>
<path d="M23 1146 c0 -14 3 -26 8 -26 11 0 11 21 0 39 -6 9 -8 5 -8 -13z"/>
<path d="M1 1114 c0 -11 3 -14 6 -6 3 7 2 16 -1 19 -3 4 -6 -2 -5 -13z"/>
</g>
</svg>
