<?xml version="1.0" standalone="no"?>
<!DOCTYPE svg PUBLIC "-//W3C//DTD SVG 20010904//EN"
 "http://www.w3.org/TR/2001/REC-SVG-20010904/DTD/svg10.dtd">
<svg version="1.0" xmlns="http://www.w3.org/2000/svg"
 width="600.000000pt" height="462.000000pt" viewBox="0 0 600.000000 462.000000"
 preserveAspectRatio="xMidYMid meet">

<g transform="translate(0.000000,462.000000) scale(0.100000,-0.100000)"
fill="#000000" stroke="none">
<path d="M4198 4613 c7 -3 16 -2 19 1 4 3 -2 6 -13 5 -11 0 -14 -3 -6 -6z"/>
<path d="M4265 4609 c5 -8 0 -9 -16 -4 -23 7 -24 7 -4 -9 15 -12 16 -15 5 -16
-13 0 -13 -1 0 -10 9 -6 10 -10 3 -10 -6 0 -11 -9 -10 -21 1 -19 2 -19 14 -3
7 10 13 21 13 26 0 4 10 8 21 8 20 0 19 -2 -10 -30 -17 -17 -32 -37 -32 -45
-4 -50 -5 -50 34 -50 20 0 37 -1 37 -2 0 -2 -16 -10 -36 -18 -22 -9 -67 -15
-115 -15 -99 0 -163 -21 -206 -68 -18 -20 -33 -40 -33 -45 0 -4 -5 -5 -11 -2
-6 4 -8 13 -6 19 8 21 -23 74 -46 80 -39 10 -161 5 -198 -8 -30 -10 -39 -10
-55 1 -41 30 -193 9 -207 -29 -3 -9 -12 -5 -31 12 -23 21 -38 25 -106 27 -64
2 -83 -1 -102 -16 -22 -19 -23 -24 -28 -238 -3 -120 -9 -212 -13 -205 -5 6
-15 12 -24 12 -11 0 -14 -7 -11 -25 13 -66 -42 15 -57 85 -4 19 -16 47 -26 61
-10 14 -15 30 -11 34 4 5 -1 5 -12 1 -14 -5 -17 -3 -12 10 3 8 6 18 6 21 0 4
9 -2 20 -12 23 -21 26 -9 5 22 -13 18 -13 27 1 74 8 30 17 74 21 99 8 66 -7
75 -124 75 -79 0 -97 -3 -107 -17 -17 -23 -33 -23 -46 2 -7 13 -21 20 -40 20
-22 0 -28 4 -23 15 7 20 -24 55 -48 55 -21 0 -65 -43 -49 -48 20 -7 10 -22
-14 -22 -32 0 -38 12 -26 47 l10 28 -23 -26 c-13 -14 -34 -29 -48 -33 -22 -8
-353 -27 -424 -25 -16 1 -153 2 -303 2 l-274 2 -20 -25 c-14 -17 -22 -21 -25
-12 -9 25 -62 42 -131 42 -83 0 -131 -15 -142 -44 -7 -20 3 -108 45 -371 62
-394 57 -370 86 -385 10 -6 81 -10 158 -10 167 0 174 4 186 95 4 32 10 68 15
79 7 19 9 19 15 3 4 -9 4 -29 -1 -45 -11 -35 -12 -112 -2 -112 4 0 3 -12 -3
-27 -11 -29 -3 -38 38 -49 27 -7 58 -82 48 -113 -5 -16 2 -29 24 -52 19 -18
31 -41 31 -57 0 -14 8 -35 19 -46 20 -23 51 -108 51 -142 0 -22 17 -34 49 -34
15 0 19 -13 24 -82 4 -46 16 -112 28 -148 11 -36 25 -96 29 -133 7 -64 6 -71
-18 -107 -14 -22 -42 -50 -62 -64 l-37 -24 -28 24 c-31 26 -41 29 -50 14 -4
-6 -10 -8 -15 -5 -5 3 -19 -4 -30 -15 -12 -12 -28 -19 -36 -16 -20 8 -53 -14
-47 -31 3 -7 0 -13 -6 -13 -6 0 -11 -7 -11 -15 0 -8 -6 -12 -15 -9 -8 3 -24
-1 -35 -9 -21 -15 -21 -15 9 -22 32 -7 43 -25 16 -25 -8 0 -15 -5 -15 -11 0
-7 12 -9 34 -5 25 5 35 3 40 -9 4 -12 -3 -15 -43 -12 -27 1 -47 -1 -45 -5 7
-10 -46 -30 -62 -24 -20 8 -77 -17 -106 -47 -15 -15 -32 -27 -38 -27 -5 0 -10
-5 -10 -10 0 -12 95 34 105 50 4 6 10 8 15 5 13 -8 196 41 232 63 18 11 59 25
92 32 66 13 75 8 76 -45 0 -16 14 -84 30 -150 17 -66 33 -142 37 -170 l8 -50
5 50 5 50 41 -75 c32 -61 45 -75 64 -75 13 0 25 6 28 13 2 7 -2 10 -12 6 -24
-9 -43 11 -80 85 -18 36 -45 88 -59 115 -15 27 -27 58 -26 70 0 21 1 21 9 1 5
-11 9 -14 9 -6 1 8 7 11 17 7 8 -3 12 -2 9 4 -4 6 -3 20 0 31 7 21 7 21 31 -2
13 -12 24 -26 24 -31 0 -4 20 -26 45 -49 25 -23 55 -57 66 -76 16 -26 24 -31
30 -21 20 31 7 -11 -16 -49 -23 -42 -24 -59 0 -27 22 31 61 -217 45 -296 -8
-43 -6 -68 4 -39 34 103 49 136 63 135 20 -1 38 55 21 65 -17 11 -1 27 35 35
31 7 31 7 10 17 -13 6 -23 17 -23 25 0 17 -33 74 -67 115 -31 38 -29 61 8 88
30 21 35 21 97 10 36 -7 73 -16 82 -21 24 -13 30 -54 15 -104 -16 -51 -27
-151 -18 -160 12 -11 33 -80 34 -111 1 -16 7 11 13 62 16 129 30 130 22 1 -6
-80 -4 -108 4 -108 8 0 10 9 6 24 -3 14 -2 28 4 31 6 3 8 23 5 43 -4 21 0 56
9 82 l15 45 -5 -42 c-3 -25 -2 -43 4 -43 12 0 10 -33 -3 -42 -13 -10 10 -32
24 -24 6 4 11 27 11 51 0 34 3 43 14 39 7 -3 -6 34 -31 83 l-44 87 96 92 c52
51 95 89 95 85 0 -4 -5 -12 -12 -19 -7 -7 -9 -12 -5 -12 12 0 66 64 67 78 0
16 17 16 24 0 4 -9 5 -8 4 2 -1 8 2 42 6 75 6 48 3 72 -13 117 -10 31 -17 59
-14 62 4 3 2 6 -4 6 -13 0 -23 -33 -23 -77 0 -47 -34 -80 -164 -158 -71 -42
-115 -74 -112 -82 3 -7 -1 -10 -9 -7 -7 3 -26 -1 -42 -9 -15 -8 -36 -11 -47
-8 -17 6 -10 17 50 75 38 38 86 80 107 94 20 13 37 29 37 33 0 5 18 28 41 51
62 66 68 88 9 35 -29 -26 -55 -46 -57 -43 -2 2 16 35 42 73 45 65 38 63 -15
-6 -39 -50 -111 -77 -207 -75 -34 0 -59 6 -71 17 -10 9 -23 17 -28 17 -12 0
-96 95 -114 130 -7 14 -16 27 -20 30 -10 8 -40 88 -40 108 0 10 9 25 20 35 19
16 21 15 42 -23 13 -22 28 -40 34 -40 6 0 15 -10 21 -23 12 -25 59 -40 177
-56 51 -7 77 -7 100 3 30 12 29 13 -44 20 -112 10 -193 26 -214 41 -16 12 -17
16 -3 29 13 13 17 13 33 -3 11 -10 30 -20 42 -23 22 -6 23 -6 8 17 -9 14 -16
31 -16 39 0 20 40 32 51 15 4 -7 12 -10 16 -5 4 5 2 11 -4 13 -7 3 -13 14 -13
26 0 17 -2 19 -9 8 -12 -18 -31 -5 -28 19 4 26 13 34 28 25 10 -7 134 -10 142
-5 1 1 17 3 35 5 28 2 32 0 32 -22 0 -16 -7 -27 -20 -30 -11 -3 -20 -9 -20
-14 0 -15 20 -10 52 12 23 17 32 19 38 9 5 -9 9 -9 14 -1 10 16 36 13 36 -4 0
-21 33 -19 52 3 23 25 58 98 58 119 0 10 -27 45 -60 78 -33 33 -60 63 -60 67
0 4 16 8 35 8 19 0 35 4 35 9 0 4 -11 6 -24 4 -38 -8 -92 15 -105 43 -15 34
-15 34 20 17 39 -20 99 -33 99 -23 0 14 50 21 72 9 21 -11 21 -12 3 -25 -10
-8 -28 -15 -39 -15 -15 -1 -16 -3 -5 -6 29 -7 69 15 69 39 0 14 16 38 40 61
22 20 40 44 40 52 0 8 5 15 11 15 7 0 9 10 5 25 -5 19 -2 25 9 25 9 0 27 12
40 26 l25 27 0 -33 c0 -18 -7 -41 -16 -51 -9 -10 -14 -26 -12 -36 3 -15 8 -11
26 16 11 19 19 38 16 43 -3 5 0 15 6 23 7 8 9 15 5 15 -4 0 4 9 19 21 17 13
26 30 26 49 0 22 16 45 70 99 l70 71 74 0 c69 0 76 2 93 26 l20 27 26 -27 c24
-24 33 -26 111 -26 57 0 89 4 98 13 22 22 24 23 42 5 14 -15 35 -18 112 -18
106 0 134 14 134 70 0 17 2 30 5 30 3 0 20 -16 37 -36 49 -55 107 -77 203 -77
48 0 97 6 121 15 24 10 47 13 54 8 15 -9 3 -16 -65 -39 -27 -9 -24 -10 23 -7
28 2 52 -1 52 -5 0 -5 -4 -10 -10 -10 -22 -3 -26 -5 -50 -22 -13 -9 -19 -17
-13 -17 7 0 15 5 18 10 3 6 18 10 32 10 21 0 23 -2 13 -15 -7 -8 -17 -12 -23
-8 -5 3 -7 1 -3 -5 3 -5 0 -13 -6 -16 -7 -2 2 -4 21 -3 34 2 56 -17 24 -20
-41 -5 -90 -13 -123 -22 l-35 -9 31 -1 c16 -1 35 4 42 11 9 9 12 9 12 0 0 -6
-8 -16 -17 -22 -22 -13 -11 -10 41 14 30 13 44 15 60 7 20 -10 20 -11 1 -10
-11 1 -29 1 -40 0 -16 -2 -15 -4 9 -14 27 -12 28 -14 12 -30 -10 -9 -14 -17
-10 -17 3 0 1 -6 -5 -14 -9 -11 -5 -15 19 -19 21 -5 28 -11 24 -22 -7 -18 -24
-20 -24 -2 0 6 -5 4 -11 -5 -5 -10 -20 -19 -32 -19 -14 -1 -10 -4 13 -9 31 -7
32 -8 14 -15 -15 -4 -21 -14 -20 -30 l1 -24 22 21 c13 12 26 18 30 15 3 -4 1
-7 -5 -7 -6 0 -9 -6 -6 -13 6 -18 -31 -51 -50 -44 -8 3 -20 0 -26 -8 -8 -10
-7 -13 7 -11 13 1 17 -5 15 -19 -2 -19 -2 -19 9 -2 8 14 14 15 24 7 8 -6 11
-18 8 -27 -5 -12 -1 -14 15 -9 12 4 23 2 28 -5 5 -9 -3 -10 -32 -6 -30 5 -45
2 -64 -14 -18 -14 -20 -17 -6 -12 14 5 17 3 11 -6 -6 -10 -3 -11 15 -1 17 9
21 9 15 0 -6 -9 1 -10 25 -5 24 5 31 4 25 -5 -4 -7 -1 -16 6 -22 10 -7 8 -8
-7 -3 -13 3 -30 -2 -44 -13 l-23 -18 39 2 c22 2 31 1 22 -2 -25 -8 -22 -24 4
-24 20 0 20 -1 4 -19 -10 -11 -15 -24 -12 -29 8 -13 -17 -22 -62 -23 l-37 -1
30 -9 c17 -5 38 -6 47 -3 10 3 23 2 28 -1 17 -10 -8 -35 -27 -28 -10 4 -14 2
-10 -4 4 -6 -11 -23 -32 -38 -22 -14 -48 -36 -58 -47 -18 -20 -18 -20 17 0 43
26 93 26 109 1 6 -11 7 -19 2 -19 -5 0 -11 5 -13 12 -2 6 -10 8 -16 4 -9 -5
-6 -13 10 -27 21 -18 21 -20 3 -15 -11 3 -27 1 -35 -4 -15 -10 -15 -10 30 -23
8 -2 -4 -10 -27 -17 -27 -8 -40 -17 -36 -26 3 -8 -5 -16 -22 -20 -16 -4 -24
-12 -21 -20 7 -18 -73 -35 -94 -20 -46 34 -83 47 -108 40 -15 -4 -42 -8 -60
-8 -18 -1 -37 -7 -41 -15 -5 -8 -16 -11 -29 -7 -13 4 -31 0 -47 -10 -21 -14
-25 -14 -25 -1 0 8 10 21 23 30 39 27 10 29 -32 3 -22 -14 -43 -26 -46 -26
-11 0 -4 24 11 41 15 17 14 19 -12 25 -18 5 -29 3 -32 -4 -2 -7 -22 -15 -43
-18 -30 -5 -39 -11 -35 -21 4 -9 -1 -17 -14 -20 -13 -3 -20 -14 -20 -29 0 -28
-2 -29 -41 -8 -28 14 -76 13 -103 -3 -4 -3 -26 -7 -47 -8 -21 -2 -43 -6 -49
-10 -15 -10 -12 -23 8 -28 10 -3 6 -5 -11 -6 -16 0 -26 3 -23 7 3 5 -9 6 -27
4 -18 -3 -26 -7 -19 -9 22 -8 13 -23 -14 -23 -19 0 -25 4 -21 14 4 11 -1 14
-21 12 -15 -1 -26 -7 -25 -14 4 -16 -35 -35 -68 -34 -15 0 -30 -6 -33 -14 -7
-19 -26 -18 -26 1 0 17 -11 20 -25 6 -6 -6 -41 -12 -80 -15 -38 -3 -79 -7 -90
-11 -21 -5 -54 9 -44 20 3 3 47 9 98 14 100 9 132 21 58 21 -45 0 -63 15 -32
26 16 6 11 24 -6 24 -6 0 -7 -5 -4 -10 3 -6 -1 -10 -9 -10 -9 0 -16 5 -16 11
0 8 -4 8 -15 -1 -8 -6 -23 -9 -33 -6 -14 5 -24 -1 -36 -19 -9 -14 -22 -23 -28
-19 -8 5 -9 -2 -4 -22 8 -33 45 -76 57 -68 5 3 9 -3 9 -13 0 -31 60 -80 138
-113 56 -24 77 -28 87 -20 18 15 57 9 63 -8 3 -11 0 -12 -18 -2 -18 10 -21 9
-18 -2 5 -14 56 -20 64 -7 3 5 0 9 -6 9 -6 0 -8 5 -5 10 4 7 11 8 18 2 7 -6
21 -12 32 -14 16 -3 14 -6 -14 -19 l-33 -16 31 -11 c29 -10 46 0 19 11 -8 4
-9 6 -2 6 6 1 17 -6 24 -14 7 -8 20 -15 29 -15 13 0 13 -2 2 -9 -10 -6 -10
-10 -1 -16 13 -8 50 22 50 41 0 7 -13 15 -30 19 -16 4 -38 17 -49 31 -10 13
-26 24 -35 24 -9 0 -16 5 -16 10 0 6 6 10 14 10 8 0 17 4 20 9 4 5 -4 7 -16 4
l-23 -5 23 21 c19 17 21 24 12 41 -8 15 -8 20 1 20 6 0 9 7 5 15 -3 8 0 15 5
15 7 0 9 -9 6 -21 -7 -28 2 -49 21 -49 13 0 12 -3 -3 -20 -10 -11 -15 -23 -10
-28 4 -4 10 -1 12 6 5 14 43 17 43 3 0 -5 9 -7 20 -4 11 3 20 9 20 14 0 5 10
19 22 31 l21 21 -31 -6 -30 -6 21 22 c14 14 23 18 25 10 2 -7 21 -20 42 -29
24 -11 36 -22 33 -31 -4 -9 -9 -10 -17 -4 -6 5 -18 6 -25 2 -9 -6 -10 -10 -2
-15 6 -4 9 -12 6 -17 -9 -14 -25 -11 -25 6 0 17 -21 20 -36 5 -5 -5 -25 -12
-43 -14 -33 -4 -60 -21 -49 -32 3 -3 33 -6 66 -7 33 -1 55 -5 48 -9 -6 -4 -19
-8 -28 -8 -11 0 -15 -5 -12 -15 4 -8 16 -15 28 -15 29 0 50 -15 41 -30 -6 -9
-9 -9 -16 1 -6 10 -12 9 -28 -5 -12 -11 -21 -22 -21 -26 0 -4 26 -18 58 -31
31 -12 98 -43 147 -67 70 -35 101 -45 142 -45 29 -1 48 -4 42 -8 -6 -3 -2 -8
10 -12 22 -5 29 -27 10 -27 -8 0 -8 -5 1 -15 16 -19 34 -19 26 0 -6 17 11 20
33 6 8 -5 11 -16 8 -25 -4 -10 1 -20 13 -26 23 -12 40 -43 68 -125 28 -82 69
-301 76 -409 8 -112 24 -177 46 -183 19 -5 46 -43 29 -43 -5 0 -7 -6 -3 -12 5
-9 2 -9 -9 1 -15 12 -17 11 -17 -7 0 -12 5 -44 11 -72 8 -39 15 -50 26 -46 8
3 17 6 19 6 2 0 4 7 4 16 0 10 4 12 13 7 6 -4 15 -8 19 -8 3 0 10 -4 15 -8 4
-5 3 -8 -2 -7 -22 5 -46 -1 -41 -9 3 -5 -2 -8 -12 -7 -11 1 -18 -8 -20 -24 -2
-13 -15 -37 -28 -53 -13 -16 -24 -33 -24 -38 0 -22 -19 -6 -30 25 -6 18 -24
44 -41 57 -16 12 -27 29 -25 36 4 10 -1 12 -22 7 l-27 -6 23 17 c12 9 27 13
32 10 6 -3 10 0 11 7 0 7 2 23 3 35 2 21 1 21 -26 7 -34 -17 -37 -28 -5 -19
17 5 14 1 -11 -18 -35 -26 -67 -28 -136 -6 -16 5 -55 9 -87 9 -46 0 -63 5 -82
23 -35 31 -50 82 -30 98 13 11 12 14 -5 20 -26 10 -55 74 -50 110 3 19 0 29
-8 29 -16 0 -38 37 -40 65 -3 70 -3 69 -22 51 -18 -15 -19 -14 -31 24 -6 22
-9 45 -6 50 9 14 25 12 23 -2 -2 -7 3 -13 10 -12 40 3 40 3 30 42 -5 20 -10
43 -10 51 -3 33 -88 -109 -88 -146 0 -9 12 -29 27 -45 23 -24 26 -35 24 -82
-2 -52 -1 -55 39 -87 22 -18 40 -38 40 -45 0 -7 8 -21 19 -31 10 -10 19 -33
19 -52 0 -18 8 -41 17 -51 9 -10 18 -33 21 -51 4 -28 -2 -41 -31 -74 l-35 -40
0 40 c0 22 -4 45 -8 52 -11 18 -59 33 -103 33 -34 0 -41 4 -49 28 -6 15 -16
38 -24 52 -16 28 -66 60 -80 52 -5 -3 -6 -1 -3 5 4 6 -4 20 -17 32 -13 12 -29
43 -36 69 -17 66 -31 102 -40 102 -5 0 -15 6 -23 14 -12 13 -17 13 -36 0 -18
-13 -21 -25 -21 -77 0 -34 7 -80 14 -102 8 -22 12 -52 9 -66 -4 -22 -13 -29
-56 -40 -50 -13 -70 -35 -90 -94 -2 -5 -21 0 -43 10 -27 13 -67 21 -127 23
-79 4 -93 1 -142 -23 -80 -39 -110 -92 -110 -200 0 -101 14 -141 70 -197 l45
-46 -39 -6 c-62 -10 -74 -32 -69 -123 7 -114 39 -166 128 -205 37 -16 61 -19
135 -16 77 3 97 8 138 32 26 16 54 41 63 57 8 16 18 29 22 29 4 0 20 -16 36
-36 41 -52 118 -85 201 -85 l68 -1 -6 -46 c-3 -26 -9 -68 -13 -94 l-7 -48 282
0 281 0 0 28 c0 15 5 34 10 42 9 13 11 13 19 1 5 -8 7 -20 4 -28 -6 -15 14
-43 29 -43 6 0 7 8 4 17 -4 10 -4 14 0 11 8 -8 44 34 44 51 0 6 -4 11 -10 11
-5 0 -10 -6 -10 -14 0 -8 -7 -16 -15 -20 -20 -7 -19 9 2 29 18 19 28 75 13 75
-6 0 -10 -11 -10 -24 0 -13 -7 -30 -17 -37 -15 -13 -16 -11 -10 13 4 15 3 30
-3 33 -23 14 -9 57 34 100 24 25 49 59 56 76 l13 31 18 -40 c39 -85 114 -124
246 -126 40 0 73 -4 73 -8 0 -4 9 -9 19 -13 17 -5 15 -10 -22 -46 -23 -23 -37
-38 -31 -35 7 3 25 -1 40 -10 l29 -16 -33 6 c-18 3 -31 2 -28 -3 7 -10 -24
-25 -33 -16 -3 3 1 10 9 15 8 6 10 10 5 10 -6 0 -18 -9 -28 -20 -14 -17 -14
-20 -2 -20 8 0 15 -6 15 -14 0 -12 31 -15 183 -14 100 0 191 3 202 8 19 8 19
9 1 9 -13 1 -17 6 -13 20 3 12 -1 22 -12 26 -13 6 -12 9 8 16 23 9 23 10 5 23
-22 17 -28 90 -6 81 7 -2 35 1 62 7 57 13 71 7 45 -22 -13 -14 -25 -18 -43
-13 -16 4 -23 2 -19 -4 4 -6 18 -13 32 -15 18 -4 29 1 40 18 19 29 31 30 38 4
4 -15 0 -20 -13 -20 -11 0 -22 -12 -29 -30 -6 -18 -6 -28 -1 -25 6 4 10 13 10
21 0 19 13 18 26 -4 16 -26 -10 -82 -39 -82 -18 0 -19 -2 -7 -10 8 -5 79 -10
156 -10 114 0 144 3 154 15 9 11 9 15 1 15 -7 0 -9 5 -6 11 4 6 -1 16 -11 24
-18 13 -17 14 10 21 24 6 27 9 14 18 -8 6 -15 18 -16 26 0 8 -3 24 -7 35 -6
19 -1 20 91 22 54 0 101 6 107 12 6 6 14 11 19 11 12 0 7 -92 -6 -125 -7 -16
-16 -43 -20 -58 l-7 -28 158 2 c87 1 164 4 171 7 6 2 11 14 11 26 -1 16 -2 17
-6 4 -6 -26 -23 -22 -24 5 -1 20 -1 21 -7 2 -5 -13 -16 -20 -34 -21 -26 0 -28
3 -27 35 1 32 2 33 8 11 5 -17 9 -21 15 -12 4 7 11 10 16 7 5 -3 11 -1 15 5 3
5 -1 10 -9 10 -9 0 -16 7 -16 16 0 8 -4 13 -9 10 -5 -3 -15 2 -22 11 -12 14
-11 15 9 9 13 -5 22 -3 22 3 0 6 10 11 22 11 20 0 20 1 5 18 -10 10 -17 23
-17 28 0 5 4 4 8 -2 5 -8 28 -9 76 -3 38 5 72 6 76 4 4 -3 4 -21 0 -40 -6 -28
-5 -35 8 -35 12 0 11 -4 -5 -18 -15 -12 -20 -26 -16 -44 3 -14 0 -29 -6 -32
-7 -5 -11 5 -12 26 0 18 -3 26 -6 18 -3 -8 -11 -18 -17 -22 -8 -5 -7 -8 2 -8
6 0 12 -7 12 -15 0 -13 24 -15 159 -14 122 0 162 3 171 14 8 10 8 15 -1 21 -8
4 -9 3 -5 -4 4 -7 2 -12 -3 -12 -6 0 -12 9 -12 20 -1 11 -2 26 -3 33 -1 6 3
16 9 20 7 6 6 10 -2 14 -7 2 -13 9 -13 14 0 6 4 8 9 5 13 -8 0 37 -13 47 -7 5
-5 12 7 21 9 7 17 18 17 24 0 6 6 13 13 16 6 3 1 3 -13 0 -24 -6 -24 -6 -7 13
21 24 21 29 3 36 -11 4 -13 1 -9 -11 3 -9 3 -14 -1 -11 -11 10 -16 50 -5 44 5
-4 9 1 9 9 0 9 4 16 8 16 5 0 4 23 -2 51 -8 40 -7 52 3 58 11 7 11 9 1 13 -7
2 -15 14 -17 27 -2 15 1 20 9 15 7 -5 9 -2 5 9 -3 9 0 18 9 21 8 3 14 10 14
16 0 6 -4 8 -10 5 -6 -3 -7 1 -4 10 4 8 1 22 -6 30 -10 12 -9 15 4 15 14 0 16
37 16 389 0 302 -3 391 -12 395 -10 5 -10 7 0 12 9 4 12 55 12 205 0 109 -3
199 -7 199 -7 0 -149 -105 -170 -126 -16 -16 -6 -24 31 -24 26 0 31 -4 32 -25
1 -18 -3 -25 -16 -25 -9 0 -24 -8 -32 -17 -16 -18 -34 -79 -29 -97 1 -5 -3
-30 -9 -55 -5 -25 -12 -64 -14 -87 -1 -23 -6 -46 -10 -52 -3 -6 -2 -13 2 -16
9 -5 6 -46 -5 -76 -4 -8 -5 -41 -4 -73 2 -40 -2 -66 -13 -83 -9 -13 -13 -24
-9 -24 5 0 1 -5 -7 -10 -8 -5 -24 -7 -35 -5 -11 2 -35 6 -52 9 -18 2 -40 11
-49 20 -14 15 -13 16 8 16 18 0 20 2 8 9 -8 6 -17 8 -21 5 -4 -2 -10 3 -13 12
-8 21 -8 24 5 24 5 0 7 -5 4 -10 -3 -6 1 -10 11 -10 15 0 15 2 0 25 -19 29 -7
32 32 8 21 -13 19 -9 -8 15 -29 26 -33 33 -20 42 13 8 13 10 -1 10 -21 0 -33
30 -18 44 9 8 10 7 6 -5 -4 -12 1 -18 19 -22 28 -5 29 -4 8 17 -17 17 -11 36
12 36 22 0 17 18 -7 25 -17 6 -19 9 -8 16 11 7 11 9 -3 9 -9 0 -18 -3 -21 -7
-2 -5 -2 -1 1 7 2 8 5 21 5 28 0 10 12 13 39 10 21 -2 38 -2 38 0 0 2 -16 10
-36 18 -39 17 -38 26 4 32 15 2 29 6 32 9 3 3 -14 3 -37 0 -46 -6 -53 4 -28
37 13 17 18 17 45 6 39 -16 49 -8 12 10 -53 27 -56 32 -30 52 13 9 18 18 11
18 -6 0 -15 -5 -18 -10 -10 -17 -32 -11 -30 8 4 37 17 53 31 41 11 -9 14 -8
14 1 0 10 14 11 53 7 35 -4 47 -3 37 3 -8 5 -29 10 -46 10 -29 0 -94 39 -68
40 7 0 15 7 18 16 5 13 4 14 -7 6 -8 -7 -16 -9 -20 -6 -8 9 14 64 26 64 7 0 7
4 -1 12 -9 9 -6 15 16 24 19 9 22 13 9 13 -10 1 -28 -4 -39 -10 -20 -11 -20
-9 -13 27 3 22 11 40 16 42 13 5 11 18 -11 64 -24 51 -20 69 23 92 17 9 24 14
15 12 -21 -6 -23 5 -6 22 9 9 9 12 -2 12 -9 0 -3 10 15 25 21 17 24 23 10 18
-23 -8 -45 -34 -39 -45 13 -21 -16 -5 -30 16 -15 24 -14 26 12 46 25 20 25 21
5 17 -29 -6 -30 9 -2 18 11 4 18 9 15 12 -3 3 -17 -2 -31 -11 -23 -15 -26 -15
-32 0 -3 9 -1 19 5 23 6 3 9 15 8 26 -3 14 -10 19 -27 17 -17 -1 -20 0 -10 7
8 5 11 16 7 26 -5 13 -2 16 10 11 14 -5 15 -4 4 9 -10 12 -10 15 4 15 9 0 16
5 16 10 0 6 -13 10 -29 10 -31 0 -43 16 -36 51 7 36 19 41 69 28 33 -8 46 -16
46 -29 0 -10 3 -25 6 -33 4 -11 -2 -17 -23 -20 -27 -4 -27 -4 4 -6 36 -1 38
-3 47 -47 5 -22 2 -36 -8 -47 -13 -13 -14 -16 -1 -21 8 -3 14 -2 12 2 -1 4 3
8 8 9 6 1 9 -5 7 -13 -2 -8 5 -14 14 -14 12 0 15 -6 10 -26 -5 -18 -3 -24 5
-19 6 4 14 3 18 -3 7 -11 71 5 87 21 16 16 20 4 16 -53 -3 -40 0 -60 7 -60 6
0 12 20 12 45 2 50 2 51 13 83 4 12 12 22 17 22 6 0 7 5 4 10 -4 6 -11 8 -16
5 -5 -3 -6 1 -3 9 8 20 7 20 55 -5 22 -11 46 -18 52 -16 7 2 -4 9 -24 16 -20
6 -44 20 -54 31 -16 17 -16 19 4 30 19 10 20 12 6 27 -10 9 -13 23 -9 37 9 29
9 29 45 21 21 -5 27 -10 19 -15 -9 -6 -7 -11 8 -19 20 -10 20 -9 19 91 -2 71
-6 103 -15 105 -7 3 -10 -1 -6 -11 5 -13 -2 -16 -35 -16 -39 0 -53 11 -31 25
6 4 8 11 5 16 -4 5 3 5 17 0 19 -7 24 -6 24 9 0 11 -6 16 -14 13 -8 -4 -16 3
-19 16 -4 15 -11 20 -22 17 -11 -4 -10 -2 3 9 11 8 23 15 27 15 4 0 10 7 13
16 5 12 2 15 -11 9 -10 -4 -27 -9 -38 -12 -19 -4 -19 -4 -2 10 21 17 22 28 2
21 -11 -5 -13 -2 -9 10 8 20 41 39 54 31 5 -3 11 -1 15 5 3 5 -3 10 -14 10
-20 0 -39 25 -46 61 -2 10 1 19 6 19 6 0 7 5 4 10 -3 6 4 11 17 11 17 1 18 3
5 6 -9 2 -15 9 -12 14 4 5 1 9 -5 9 -7 0 -10 7 -6 15 3 8 1 15 -5 15 -6 0 -7
5 -3 11 4 8 9 7 15 -2 4 -7 11 -10 15 -6 4 4 2 13 -4 19 -22 22 -12 46 28 69
46 26 47 38 1 15 -32 -17 -56 -22 -32 -7 9 6 10 14 4 27 -16 32 -9 49 22 55
30 7 30 7 3 8 -30 1 -45 18 -30 33 7 7 20 7 42 0 18 -7 28 -7 25 -2 -4 6 -12
10 -19 10 -20 0 -65 39 -47 40 12 0 12 3 3 12 -7 7 -12 17 -12 23 0 5 4 4 9
-4 5 -7 14 -10 21 -6 9 6 9 9 -1 16 -11 7 -11 14 4 39 18 30 12 41 -11 18 -9
-9 -12 -9 -12 0 0 14 60 43 72 36 5 -3 8 0 8 5 0 14 -11 14 -46 1 -24 -9 -25
-9 -14 5 14 17 0 21 -18 3 -8 -8 -10 -5 -8 13 5 43 16 57 39 51 22 -5 22 -5 4
16 -18 20 -18 20 0 25 15 4 14 5 -4 6 -17 1 -21 5 -16 18 5 12 2 15 -10 10
-21 -8 -21 -2 0 22 19 23 26 51 12 51 -5 0 -9 5 -9 10 0 6 7 10 15 10 8 0 15
-4 15 -10 0 -5 8 -10 18 -10 16 1 16 1 0 11 -10 5 -18 21 -18 34 0 13 8 29 18
35 15 10 14 11 -6 6 -17 -3 -22 -1 -18 9 3 8 0 16 -7 18 -9 3 -8 10 2 28 13
22 13 23 -2 10 -15 -12 -17 -11 -17 8 0 21 7 24 45 22 14 -1 11 3 -10 13 l-30
14 25 10 25 11 -29 0 c-23 1 -27 4 -21 19 5 9 8 25 9 35 0 16 12 21 43 20 7
-1 10 3 7 8 -3 5 -12 9 -20 9 -8 0 -14 5 -14 10 0 6 7 10 15 10 8 0 15 4 15 9
0 5 -9 7 -20 4 -15 -4 -20 0 -20 16 0 32 18 61 38 62 10 0 6 5 -11 11 -15 5
-24 14 -21 20 4 7 9 7 13 -1 4 -6 12 2 18 19 11 29 11 29 -12 14 l-24 -15 16
50 c9 27 21 47 26 44 6 -3 7 -1 3 5 -4 6 -14 8 -23 5 -13 -5 -12 1 7 28 23 33
23 33 2 15 -15 -13 -26 -16 -33 -9 -11 11 -2 43 12 43 5 0 9 7 9 15 0 9 6 12
15 8 13 -5 14 -2 4 21 -12 25 -13 26 -32 9 -19 -17 -20 -17 -8 4 6 12 11 30
11 40 0 10 7 31 16 48 8 16 11 31 7 32 -12 4 -3 87 11 96 8 5 7 9 -3 16 -11 7
-11 9 0 14 12 5 12 6 0 6 -11 1 -11 4 0 18 13 15 12 15 -7 5 -20 -11 -21 -10
-10 31 6 23 15 45 21 50 6 4 5 11 -5 17 -10 6 -11 10 -3 10 7 0 10 7 7 15 -4
8 -10 13 -14 10 -5 -3 -10 7 -12 22 l-3 28 -129 3 c-85 2 -133 -1 -140 -8 -8
-8 -7 -13 2 -19 9 -5 11 -17 7 -34 -4 -15 -9 -102 -10 -194 -5 -204 -6 -221
-24 -232 -8 -6 -9 -11 -3 -15 16 -9 12 -150 -4 -181 -17 -34 -17 -35 1 -35 18
0 20 -16 3 -24 -10 -5 -10 -7 0 -12 15 -7 16 -44 1 -44 -8 0 -8 -4 0 -14 7 -8
8 -17 3 -20 -5 -3 -8 -36 -6 -72 2 -37 0 -72 -3 -78 -10 -16 -11 -46 -1 -46
11 0 7 -61 -5 -77 -6 -8 -6 -18 1 -25 5 -7 8 -29 6 -48 -2 -19 -4 -63 -5 -98
-1 -34 -6 -65 -11 -68 -6 -4 -5 -10 3 -14 10 -7 10 -12 1 -22 -8 -10 -8 -18
-1 -25 8 -8 4 -17 -11 -31 -19 -18 -20 -20 -3 -19 16 2 18 -7 16 -102 -2 -125
-9 -167 -28 -175 -8 -3 -12 -12 -9 -20 3 -8 12 -12 20 -9 16 6 20 -32 4 -42
-6 -3 -7 -17 -4 -31 4 -14 7 -44 7 -66 1 -33 -4 -43 -24 -54 l-24 -14 27 6
c25 5 27 4 24 -23 -3 -21 -8 -27 -22 -25 -18 3 -18 3 0 -11 19 -14 19 -14 -2
-35 -13 -13 -17 -22 -9 -22 8 0 13 -16 14 -45 0 -32 -3 -45 -13 -45 -8 0 -14
-5 -14 -11 0 -5 -5 -7 -11 -3 -6 3 -14 3 -18 -2 -7 -10 -68 -54 -74 -54 -9 0
-2 86 8 92 6 5 4 8 -6 8 -10 0 -15 11 -16 35 -1 19 3 35 9 35 5 0 6 -6 3 -12
-4 -7 2 -2 14 12 20 25 20 25 0 32 -11 4 -18 12 -15 17 3 5 -1 11 -8 14 -9 4
-17 -1 -19 -11 -3 -12 -5 -10 -6 6 -1 32 26 82 45 82 14 0 14 3 4 15 -7 8 -19
15 -27 15 -8 0 -11 5 -8 10 3 6 -1 17 -10 26 -15 15 -15 18 1 35 9 11 13 19 9
19 -4 0 0 10 11 22 19 21 19 21 0 14 -19 -6 -19 -6 -3 12 26 29 20 38 -8 12
-24 -22 -25 -22 -25 -4 0 11 5 25 12 32 9 9 9 12 0 12 -22 0 -12 18 13 24 14
4 25 11 25 17 0 6 -8 8 -19 4 -15 -4 -20 0 -23 25 -3 20 0 30 9 30 17 0 17 20
1 20 -8 1 -6 6 5 14 17 13 16 14 -3 19 -24 6 -27 43 -4 75 8 12 11 22 6 22
-16 0 -21 40 -8 53 7 6 11 19 9 27 -3 10 5 21 19 27 23 12 23 12 -4 12 -26 1
-28 4 -28 41 0 33 3 40 19 40 30 0 34 17 6 24 -16 4 -27 16 -31 33 -8 32 5 55
37 64 19 6 20 7 5 8 -16 1 -17 4 -8 13 18 18 15 27 -8 21 -16 -4 -20 0 -20 23
0 15 7 36 17 46 10 12 12 18 4 18 -8 0 -4 13 10 33 l23 32 -25 -20 c-13 -11
-27 -24 -30 -29 -4 -4 -6 4 -6 18 0 14 6 31 13 37 8 6 14 16 14 21 0 6 -7 5
-15 -2 -18 -15 -20 -7 -2 12 6 8 18 24 25 37 12 21 11 22 -5 17 -14 -4 -19 -1
-20 14 -2 24 5 25 35 4 27 -19 28 -10 2 18 -12 13 -18 29 -14 40 3 10 1 18 -4
18 -6 0 -13 12 -16 27 -8 31 8 45 44 39 25 -4 25 -4 -5 21 -27 23 -28 25 -7
20 19 -5 21 -3 11 9 -6 8 -8 14 -5 14 4 0 0 7 -8 16 -11 10 -15 27 -12 50 3
18 0 36 -5 39 -15 10 -10 65 6 71 15 6 12 42 -5 54 -4 3 -10 20 -13 37 -5 26
-2 35 12 42 22 12 25 56 5 72 -20 17 -17 33 15 81 31 45 33 60 5 38 -13 -12
-17 -11 -25 1 -20 32 1 73 56 104 17 9 21 13 10 10 -28 -10 -62 -16 -47 -9 36
17 -2 24 -137 24 l-149 0 -7 -30 c-4 -16 -14 -34 -23 -40 -13 -7 -13 -9 -3
-10 11 0 11 -4 -2 -18 -10 -10 -17 -23 -17 -28 0 -5 4 -4 8 3 4 6 19 14 34 18
23 6 27 4 25 -13 0 -12 -4 -20 -7 -19 -8 3 -50 -36 -50 -46 0 -5 9 -7 20 -4
15 4 24 -2 35 -23 19 -37 19 -51 0 -44 -20 8 -19 -5 2 -28 11 -13 12 -18 3
-18 -10 0 -10 -3 0 -15 8 -9 10 -28 6 -49 -5 -28 -12 -35 -34 -38 l-27 -3 30
-17 c18 -11 24 -17 14 -18 -19 0 -48 -30 -30 -30 6 0 11 5 11 10 0 6 6 10 14
10 13 0 30 -39 21 -49 -3 -2 -5 1 -5 7 0 24 -19 11 -25 -18 -5 -24 -12 -30
-33 -31 -24 0 -25 -1 -7 -8 11 -5 24 -6 29 -3 4 2 12 -2 17 -9 12 -20 11 -59
-2 -59 -6 0 -8 -9 -4 -20 5 -16 2 -20 -19 -20 -14 0 -26 -4 -26 -10 0 -5 11
-10 25 -10 14 0 25 -4 25 -10 0 -5 -4 -10 -10 -10 -5 0 -10 -5 -10 -11 0 -6 6
-9 13 -6 8 3 12 -6 13 -24 1 -16 -3 -29 -8 -29 -5 0 -16 -7 -24 -15 -14 -13
-13 -15 4 -15 28 0 34 -25 20 -74 -6 -22 -12 -44 -12 -48 -1 -3 -4 -10 -8 -14
-19 -18 -6 -25 14 -8 21 19 21 19 13 -1 -5 -11 -8 -33 -7 -50 1 -16 -2 -25 -6
-18 -5 8 -12 8 -26 -3 -20 -14 -20 -14 0 -15 17 0 16 -1 -3 -9 -33 -14 -30
-32 3 -19 36 13 39 7 20 -40 -12 -30 -12 -39 -3 -35 10 3 14 -8 14 -42 1 -40
-1 -45 -18 -41 -24 7 -25 -9 0 -22 19 -10 27 -61 9 -61 -5 0 -8 -6 -7 -12 4
-34 -1 -40 -28 -34 -21 5 -24 4 -13 -4 8 -5 21 -10 28 -10 24 0 43 -28 36 -54
-5 -20 -11 -24 -32 -22 -15 2 -19 1 -8 -1 13 -3 17 -11 13 -29 -5 -26 2 -31
21 -12 16 16 24 -9 14 -47 -6 -21 -15 -31 -33 -33 -41 -6 -46 -22 -6 -20 43 1
59 -9 34 -23 -21 -12 -22 -29 -2 -29 8 0 15 -4 15 -8 0 -4 -12 -8 -27 -7 -20
0 -27 -5 -25 -16 1 -9 -7 -24 -18 -34 -31 -28 -23 -37 15 -15 34 19 60 11 36
-13 -16 -16 -14 -25 7 -30 11 -3 7 -5 -10 -6 -25 -1 -52 -21 -28 -21 6 0 19
-7 27 -16 13 -13 14 -20 5 -35 -7 -11 -9 -18 -5 -17 9 3 13 -5 13 -27 0 -8 -8
-15 -19 -15 -10 0 -24 -7 -31 -15 -11 -14 -10 -14 14 -5 15 5 31 8 36 5 10 -6
-12 -55 -25 -55 -5 0 -10 -11 -10 -24 0 -16 4 -21 10 -15 18 18 36 10 29 -15
-3 -14 -1 -27 6 -31 9 -6 9 -10 -1 -16 -12 -8 -11 -11 1 -19 12 -8 10 -10 -10
-11 -17 -1 -19 -3 -7 -6 21 -5 23 -23 2 -23 -8 0 -19 -9 -25 -20 -9 -16 -8
-18 5 -14 8 4 15 10 15 15 0 5 7 9 15 9 18 0 19 -12 3 -29 -11 -10 -10 -11 3
-6 12 4 15 0 14 -17 -1 -19 -7 -22 -28 -20 -15 2 -27 -1 -27 -7 0 -6 9 -11 20
-11 11 0 20 -5 20 -11 0 -6 -6 -9 -14 -6 -7 3 -19 0 -25 -6 -21 -21 -11 -26
20 -10 26 13 33 13 40 2 12 -19 11 -29 -3 -27 -6 2 -13 -6 -15 -17 -1 -11 0
-14 3 -7 12 25 26 11 22 -23 -3 -23 1 -36 10 -40 20 -8 10 -48 -16 -61 -32
-16 -36 -22 -10 -17 27 5 49 -32 38 -63 -4 -10 -3 -22 3 -26 7 -4 6 -12 -3
-23 -12 -15 -10 -16 16 -13 19 2 28 -1 26 -9 -1 -7 5 -13 13 -13 8 0 15 -4 15
-10 0 -5 -6 -10 -14 -10 -7 0 -19 -7 -27 -16 -11 -13 -11 -15 2 -14 41 6 49 0
47 -33 -2 -17 -7 -35 -12 -39 -6 -4 -5 -13 3 -22 7 -8 10 -20 6 -26 -3 -5 -1
-10 5 -10 6 0 8 -5 4 -11 -4 -8 -9 -8 -17 0 -16 16 -27 14 -27 -5 0 -8 4 -13
9 -9 5 3 12 1 15 -4 10 -16 -4 -37 -32 -49 -26 -11 -25 -11 11 -6 32 4 37 2
37 -16 0 -11 -4 -20 -10 -20 -5 0 -7 -7 -4 -15 5 -13 2 -14 -19 -6 -25 10 -37
6 -37 -12 0 -6 3 -7 6 -4 9 8 44 -11 44 -24 0 -5 -19 -18 -42 -28 l-43 -19 43
4 c29 2 41 0 36 -7 -13 -21 -41 -149 -32 -149 4 0 8 7 8 15 0 8 7 15 15 15 15
0 13 -14 -7 -56 -7 -15 -17 -20 -32 -17 l-21 4 21 -13 c19 -11 20 -15 7 -27
-8 -8 -41 -26 -72 -42 -31 -15 -50 -28 -43 -28 6 -1 29 8 49 19 45 24 63 25
63 4 0 -8 5 -12 10 -9 6 3 10 -1 10 -10 0 -9 5 -13 10 -10 6 3 10 1 10 -6 0
-7 -10 -9 -24 -7 -18 4 -26 0 -29 -14 -6 -20 8 -34 18 -18 3 5 10 10 16 10 12
0 12 -37 -1 -45 -6 -4 -8 -11 -4 -16 3 -6 -4 -13 -16 -16 -16 -4 -18 -8 -9
-14 10 -6 2 -13 -25 -24 -39 -17 -76 -45 -57 -45 5 0 16 7 25 15 8 8 25 16 38
17 13 2 28 10 35 18 8 9 12 11 13 3 0 -6 3 -18 6 -27 4 -11 0 -14 -16 -11 -11
2 -31 0 -43 -5 -12 -5 -16 -9 -8 -9 8 -1 11 -8 7 -18 -6 -17 -5 -17 8 0 7 9
21 17 32 17 17 0 17 -1 -2 -15 -14 -11 -16 -15 -4 -15 12 0 11 -3 -2 -11 -14
-8 -15 -13 -6 -23 7 -8 19 -11 25 -9 7 3 13 0 13 -6 0 -6 -10 -11 -21 -11 -18
0 -19 -2 -9 -15 10 -13 9 -15 -11 -15 -13 1 -51 7 -83 15 -33 8 -64 11 -69 8
-6 -3 -7 -1 -3 5 4 7 1 12 -9 12 -9 0 -14 4 -10 9 3 5 1 13 -5 16 -8 5 -8 11
-1 19 6 7 8 16 4 19 -3 4 -2 7 3 7 5 0 9 13 9 29 0 16 -4 27 -9 23 -5 -3 -6 3
-3 12 5 14 3 17 -8 12 -19 -7 -19 8 0 38 12 18 13 29 4 55 -6 18 -9 34 -6 37
5 6 32 12 55 13 8 1 1 14 -17 32 -31 30 -42 57 -18 43 7 -5 6 0 -3 11 -14 17
-13 18 5 11 16 -6 18 -5 8 5 -7 7 -13 17 -13 22 0 4 6 5 13 1 9 -6 9 -4 -1 8
-7 8 -10 23 -6 32 5 12 2 15 -11 10 -13 -5 -16 -3 -13 7 3 8 12 13 21 13 9 -1
13 4 10 12 -3 8 -15 14 -27 14 -17 0 -18 2 -6 10 8 5 11 10 6 10 -5 0 1 11 14
25 26 28 17 34 -12 8 -17 -15 -18 -15 -18 10 0 14 6 28 13 30 9 4 9 6 -1 6 -7
1 -11 5 -7 11 3 5 3 21 -1 35 -5 20 -9 23 -15 13 -6 -9 -9 -7 -9 9 0 12 9 27
20 33 10 6 17 16 14 24 -3 7 2 16 10 19 20 8 20 23 0 31 -10 4 -13 2 -8 -7 4
-6 -2 -4 -12 7 -14 13 -15 20 -6 23 6 3 12 13 12 24 0 14 7 19 28 20 24 0 22
2 -13 14 -22 7 -35 13 -30 14 6 1 16 19 23 41 10 35 10 44 -4 65 -13 20 -14
31 -5 56 6 18 10 33 9 34 -2 1 -13 7 -25 14 -15 7 -20 17 -16 31 3 13 11 19
19 16 20 -8 17 7 -8 49 -17 31 -19 38 -7 46 10 6 10 9 2 9 -7 0 -13 7 -13 15
0 8 5 15 10 15 6 0 10 5 10 12 0 6 -3 9 -6 5 -4 -3 -13 0 -20 8 -17 17 -19 49
-2 39 7 -5 9 -2 5 8 -3 9 0 21 6 28 9 10 8 12 -5 7 -13 -5 -15 -2 -11 11 3 9
11 24 17 32 10 13 9 13 -7 1 -29 -23 -42 0 -21 40 9 19 22 37 28 41 7 5 4 8
-7 8 -14 0 -17 5 -11 22 6 21 5 21 -10 9 -16 -13 -17 -12 -10 15 4 16 11 35
17 42 6 8 6 12 -3 12 -7 0 -10 7 -6 15 3 8 1 14 -3 12 -9 -2 -11 2 -11 29 0 9
5 12 12 8 8 -5 9 -2 5 9 -4 10 -1 17 6 17 8 0 8 3 -2 9 -8 5 -11 16 -7 26 4
13 2 16 -9 11 -17 -6 -22 29 -5 39 6 3 10 16 10 28 -1 21 -1 22 -15 3 -8 -11
-18 -16 -22 -12 -4 4 -3 10 3 14 6 4 13 19 16 34 4 21 1 25 -11 21 -11 -3 -10
0 4 11 11 9 25 14 32 12 7 -3 10 1 6 10 -3 7 -12 14 -20 14 -12 0 -12 3 2 16
15 15 14 18 -5 31 -21 15 -29 40 -8 27 8 -5 9 -2 5 9 -4 10 -1 17 5 17 9 0 9
3 1 11 -8 8 -4 18 15 35 15 13 22 24 15 24 -6 0 -15 -4 -18 -10 -9 -14 -35
-12 -32 3 1 6 5 14 8 17 13 11 19 60 8 60 -6 0 -9 7 -5 15 3 10 -1 15 -12 15
-15 1 -15 2 -1 13 9 7 15 25 15 41 -1 17 6 36 16 46 18 16 18 18 1 31 -16 13
-17 12 -4 -3 12 -16 11 -18 -3 -18 -18 0 -19 2 -7 53 6 23 5 37 -1 37 -5 0 -6
5 -3 10 3 6 1 10 -5 10 -6 0 -8 11 -5 28 3 15 7 32 9 39 1 7 11 22 22 35 l19
22 -27 -17 -28 -17 5 32 c2 18 6 43 9 56 3 12 1 22 -3 22 -5 0 -12 11 -15 25
-7 27 11 55 35 55 7 0 5 8 -7 21 -27 30 -22 131 7 150 11 7 11 9 -4 9 -10 0
-16 3 -14 8 12 19 16 84 6 100 -8 13 -9 32 -2 65 8 36 7 51 -4 67 -11 16 -12
28 -4 50 5 17 6 30 1 30 -11 0 -1 67 13 95 10 19 9 19 -9 5 -16 -12 -15 -10 2
10 15 17 19 31 14 45 -7 19 -7 19 -18 0 -10 -18 -11 -17 -12 10 0 23 -3 27
-10 15 -5 -8 -10 -10 -10 -4 0 18 13 24 27 13 10 -9 13 -8 14 2 1 8 3 26 5 42
1 15 -1 25 -7 22 -13 -8 -11 0 6 42 9 22 13 49 9 66 l-6 29 -181 -6 c-100 -2
-186 -4 -192 -4 -5 0 -95 2 -198 5 -141 3 -187 1 -182 -8z m415 -61 c0 -7 -4
-19 -9 -27 -8 -12 -11 -12 -24 0 -12 12 -11 15 7 25 12 7 22 12 24 13 1 1 2
-5 2 -11z m35 -28 c3 -6 -1 -7 -9 -4 -18 7 -21 14 -7 14 6 0 13 -4 16 -10z
m-412 -36 c-3 -8 -17 -14 -32 -13 -14 0 -20 3 -13 6 6 2 10 8 8 11 -2 4 6 8
19 8 16 1 22 -2 18 -12z m-1643 -55 c0 -11 -2 -19 -4 -19 -2 0 -11 -3 -19 -6
-16 -6 -29 19 -21 40 8 20 44 7 44 -15z m2004 16 c-4 -8 -10 -15 -15 -15 -4 0
-6 -8 -3 -17 2 -10 -1 -8 -8 5 -9 19 -9 25 3 33 21 13 29 11 23 -6z m-314 -51
c0 -2 -7 -4 -15 -4 -8 0 -15 4 -15 10 0 5 7 7 15 4 8 -4 15 -8 15 -10z m-52
-66 c59 -40 74 -76 80 -190 l5 -97 -34 -3 c-19 -2 -62 -1 -96 0 l-62 4 -3 96
c-3 96 -3 97 -29 100 -36 4 -39 -17 -39 -254 0 -210 7 -247 43 -242 20 3 22 9
27 88 l5 85 93 3 92 3 0 -63 c-1 -124 -25 -177 -102 -216 -56 -29 -172 -33
-229 -8 -45 19 -85 65 -99 114 -5 20 -10 133 -10 250 0 169 3 220 15 249 36
86 93 115 216 111 74 -3 91 -7 127 -30z m-2894 -5 c3 -16 12 -107 21 -203 10
-96 20 -186 24 -198 4 -14 14 71 25 194 10 120 20 222 22 226 3 5 48 8 101 8
l96 0 -6 -37 c-3 -21 -25 -183 -48 -360 l-43 -323 -141 0 -142 0 -12 83 c-7
45 -30 198 -52 341 -21 142 -39 267 -39 277 0 17 9 19 94 19 l94 0 6 -27z
m636 -43 l0 -69 -62 -3 -63 -3 -3 -67 -3 -67 58 -3 58 -3 3 -67 3 -68 -61 0
-61 0 3 -77 3 -78 68 -3 67 -3 0 -69 0 -70 -160 0 -160 0 0 360 0 360 155 0
155 0 0 -70z m409 45 c52 -31 71 -76 71 -167 0 -91 -13 -126 -55 -144 l-30
-12 27 -11 c48 -18 58 -54 58 -216 l0 -145 -85 0 -85 0 0 129 c0 165 -5 191
-36 191 l-24 0 0 -160 0 -161 -92 3 -93 3 -3 345 c-1 190 0 351 3 359 4 10 36
12 158 10 130 -4 157 -7 186 -24z m294 -68 c10 -51 17 -105 17 -119 0 -56 17
-34 28 35 6 40 16 96 22 125 l12 52 84 0 c61 0 84 -3 84 -12 0 -7 -29 -109
-65 -227 l-65 -214 0 -133 0 -134 -85 0 -85 0 0 125 c0 125 0 126 -65 345 -36
121 -65 226 -65 235 0 12 15 15 83 15 l84 0 16 -93z m653 -67 l52 -155 1 158
1 157 75 0 75 0 0 -350 c0 -192 1 -353 3 -357 1 -5 -35 -9 -79 -11 l-82 -3
-22 73 c-12 40 -34 111 -48 158 l-27 85 -3 -157 -3 -158 -74 0 -75 0 0 360 0
361 77 -3 76 -3 53 -155z m474 -200 l0 -360 -95 0 -95 0 0 360 0 360 95 0 95
0 0 -360z m890 290 l0 -70 -60 0 -60 0 0 -70 0 -70 55 0 55 0 0 -70 0 -70 -55
0 -55 0 0 -79 0 -80 65 2 65 2 0 -72 0 -73 -160 0 -160 0 0 360 0 360 155 0
155 0 0 -70z m230 -60 c0 -5 -4 -10 -10 -10 -5 0 -10 5 -10 10 0 6 5 10 10 10
6 0 10 -4 10 -10z m-270 -65 c0 -2 -9 -9 -20 -15 -16 -9 -18 -8 -14 5 5 13 34
22 34 10z m247 -27 c-3 -7 -5 -2 -5 12 0 14 2 19 5 13 2 -7 2 -19 0 -25z m263
-28 c0 -5 -4 -10 -10 -10 -5 0 -10 5 -10 10 0 6 5 10 10 10 6 0 10 -4 10 -10z
m-2236 -76 c3 -8 2 -12 -4 -9 -6 3 -10 10 -10 16 0 14 7 11 14 -7z m1251 -34
c25 0 27 -2 15 -14 -8 -7 -32 -16 -52 -19 -36 -5 -38 -4 -38 20 0 21 3 24 23
19 12 -3 35 -6 52 -6z m1718 -5 c-3 -9 -8 -14 -10 -11 -3 3 -2 9 2 15 9 16 15
13 8 -4z m-1636 -11 c-3 -3 -12 -4 -19 -1 -8 3 -5 6 6 6 11 1 17 -2 13 -5z
m-1687 -170 c0 -131 9 -183 34 -199 13 -9 56 -15 110 -17 87 -3 89 -4 91 -28
1 -14 6 -49 10 -79 l8 -53 -41 27 c-40 26 -42 27 -159 20 -185 -10 -344 -11
-391 -2 -36 8 -41 7 -36 -7 4 -11 1 -16 -11 -16 -9 0 -19 9 -22 20 -4 13 -14
20 -32 21 -25 1 -25 2 4 8 l30 6 -46 18 c-25 10 -53 15 -61 12 -11 -5 -15 0
-15 18 0 21 6 26 36 31 20 3 61 6 92 6 30 0 60 5 66 11 8 8 17 8 31 0 11 -6
57 -11 101 -11 118 0 121 4 121 174 l0 133 40 -1 40 -1 0 -91z m460 62 c0 -3
-4 -8 -10 -11 -5 -3 -10 -1 -10 4 0 6 5 11 10 11 6 0 10 -2 10 -4z m1600 -326
c0 -5 -9 -14 -20 -20 -11 -6 -20 -17 -20 -24 0 -14 -29 -31 -37 -22 -6 6 57
76 68 76 5 0 9 -4 9 -10z m-335 -40 c3 -5 -1 -10 -10 -10 -9 0 -13 5 -10 10 3
6 8 10 10 10 2 0 7 -4 10 -10z m326 -23 c-13 -13 -26 -3 -16 12 3 6 11 8 17 5
6 -4 6 -10 -1 -17z m-2082 -31 c8 -10 9 -16 1 -21 -13 -8 -30 3 -30 21 0 18
14 18 29 0z m2067 -2 c-3 -9 -6 -20 -6 -25 0 -14 -28 -11 -33 4 -7 20 4 37 25
37 14 0 18 -5 14 -16z m-2191 -2 c13 -9 16 -62 4 -62 -33 0 87 -248 151 -312
26 -25 49 -55 52 -65 5 -18 2 -18 -51 -7 -44 9 -55 15 -53 28 3 14 -1 16 -20
11 -47 -15 -66 -24 -73 -34 -11 -19 -34 -12 -74 24 -27 24 -48 35 -70 35 -19
0 -34 6 -37 15 -10 24 -21 17 -37 -23 -13 -32 -19 -37 -44 -36 -15 1 -30 3
-33 5 -8 3 -32 6 -75 8 -29 1 -44 7 -53 22 -8 13 -10 25 -5 30 5 5 47 16 94
24 46 8 95 23 109 33 46 34 53 36 42 16 -12 -24 -4 -54 9 -33 6 11 14 8 35
-11 l27 -25 -7 48 c-5 31 -4 47 3 47 17 0 13 30 -4 36 -17 7 -11 39 11 62 8 7
16 25 20 40 3 15 9 35 15 45 7 13 5 17 -6 17 -15 0 -20 26 -9 54 6 17 60 22
79 8z m2174 -45 c-2 -1 -12 -9 -22 -16 -15 -12 -17 -12 -11 3 3 9 13 16 22 16
8 0 13 -1 11 -3z m71 -17 c0 -13 -11 -13 -30 0 -12 8 -11 10 8 10 12 0 22 -4
22 -10z m-20 -28 c0 -5 -11 -14 -25 -20 -27 -12 -28 -12 -19 12 6 16 44 23 44
8z m-2867 -52 c3 -11 1 -18 -4 -14 -5 3 -9 12 -9 20 0 20 7 17 13 -6z m2857 1
c0 -14 -18 -23 -31 -15 -8 4 -7 9 2 15 18 11 29 11 29 0z m-36 -45 c-6 -16
-44 -18 -44 -2 0 19 9 24 30 19 10 -3 17 -10 14 -17z m56 14 c0 -5 -9 -14 -20
-20 -23 -12 -26 -6 -7 15 14 17 27 19 27 5z m-27 -90 c-10 -12 -25 -25 -34
-30 -13 -8 -15 -5 -11 15 2 14 10 25 18 25 7 0 16 5 20 11 4 8 -1 9 -17 5 -23
-7 -23 -6 -5 8 16 13 20 13 32 1 13 -12 12 -17 -3 -35z m-309 9 c-9 -15 -34
-10 -28 5 3 8 12 12 20 9 8 -3 11 -9 8 -14z m-2034 1 c0 -5 -7 -10 -16 -10 -8
0 -12 5 -9 10 3 6 10 10 16 10 5 0 9 -4 9 -10z m-274 -15 c10 -8 14 -15 8 -15
-5 0 -19 7 -30 15 -10 8 -14 15 -8 15 5 0 19 -7 30 -15z m2631 -25 c-14 -11
-28 -20 -31 -20 -3 0 -1 9 6 20 7 11 21 20 32 20 16 0 15 -3 -7 -20z m-2459
-6 c-9 -10 -39 -19 -70 -22 -69 -6 -54 12 22 26 30 5 57 10 60 11 2 0 -3 -6
-12 -15z m2110 -3 c3 -8 -1 -12 -9 -9 -7 2 -15 10 -17 17 -3 8 1 12 9 9 7 -2
15 -10 17 -17z m212 -19 c0 -4 -10 -13 -22 -21 -23 -14 -23 -14 -4 8 20 22 26
25 26 13z m148 -22 c-7 -11 -16 -20 -20 -20 -5 0 -8 -7 -8 -15 0 -8 -4 -15
-10 -15 -5 0 -7 -7 -4 -15 7 -16 -12 -45 -29 -45 -6 0 -7 3 -4 7 4 3 0 14 -8
23 -13 14 -12 20 5 48 12 19 32 35 52 41 18 5 34 10 36 10 1 1 -3 -8 -10 -19z
m-72 -168 c-11 -11 -16 -12 -16 -4 0 18 24 43 29 30 2 -5 -4 -17 -13 -26z m54
18 c0 -5 -4 -10 -10 -10 -5 0 -10 5 -10 10 0 6 5 10 10 10 6 0 10 -4 10 -10z
m520 1 c0 -5 -7 -12 -16 -15 -24 -9 -28 -7 -14 9 14 17 30 20 30 6z m690 -20
c0 -6 -4 -13 -10 -16 -5 -3 -10 1 -10 9 0 9 5 16 10 16 6 0 10 -4 10 -9z
m-1222 -65 c-25 -25 -43 -47 -40 -50 3 -3 1 -6 -5 -6 -13 0 -22 29 -15 49 4
12 76 50 97 51 5 0 -11 -20 -37 -44z m-2369 -5 c8 -14 7 -20 -4 -25 -11 -4
-15 2 -15 19 0 30 6 32 19 6z m2412 -11 c6 0 7 -5 4 -10 -4 -6 -15 -8 -25 -5
-11 3 -20 0 -24 -10 -3 -8 -10 -15 -16 -15 -6 0 -3 11 6 26 10 15 23 23 31 20
8 -4 19 -6 24 -6z m-2611 -36 c0 -8 -4 -12 -10 -9 -5 3 -10 13 -10 21 0 8 5
12 10 9 6 -3 10 -13 10 -21z m2245 -3 c17 -7 15 -9 -13 -13 -32 -5 -48 3 -35
16 8 8 22 7 48 -3z m345 -11 c-12 -7 -11 -10 5 -16 33 -12 36 -28 7 -40 -17
-8 -21 -13 -11 -13 34 -2 27 -29 -16 -70 -24 -22 -45 -46 -48 -53 -4 -10 -7
-11 -18 0 -11 10 -10 12 7 12 13 0 15 3 7 8 -10 6 -9 14 2 35 7 15 11 27 8 27
-3 0 2 9 11 19 10 11 16 28 15 38 -4 23 18 63 34 63 8 0 7 -4 -3 -10z m-35
-21 c-8 -12 -35 -12 -35 0 0 11 22 20 33 14 4 -2 5 -9 2 -14z m-2593 -48 c2
-17 1 -28 -3 -26 -10 7 -18 55 -9 55 4 0 10 -13 12 -29z m2682 -57 c8 -20 8
-29 0 -21 -3 3 -17 2 -30 -3 -28 -11 -31 -3 -6 21 22 22 28 23 36 3z m-444 -8
c0 -3 -4 -8 -10 -11 -5 -3 -10 -1 -10 4 0 6 5 11 10 11 6 0 10 -2 10 -4z m374
-57 c-5 -8 1 -10 20 -7 33 7 34 -9 1 -24 -33 -15 -55 2 -35 27 15 18 24 20 14
4z m-369 -19 c-3 -5 -11 -10 -16 -10 -6 0 -7 5 -4 10 3 6 11 10 16 10 6 0 7
-4 4 -10z m-617 -31 c-2 -7 -16 -13 -32 -15 -23 -2 -25 0 -15 12 14 17 52 19
47 3z m972 1 c0 -5 -7 -10 -16 -10 -8 0 -12 5 -9 10 3 6 10 10 16 10 5 0 9 -4
9 -10z m70 0 c0 -5 -4 -10 -9 -10 -6 0 -13 5 -16 10 -3 6 1 10 9 10 9 0 16 -4
16 -10z m-15 -20 c11 -5 16 -9 10 -10 -20 -3 -49 -9 -73 -15 -15 -4 -21 -2
-17 5 3 5 15 10 26 10 11 0 17 5 14 10 -7 12 12 12 40 0z m-1150 -10 c19 -8
19 -9 -2 -9 -12 -1 -30 -4 -40 -8 -16 -6 -16 -5 -4 10 15 19 17 19 46 7z m-68
-16 c-3 -3 -12 -4 -19 -1 -8 3 -5 6 6 6 11 1 17 -2 13 -5z m-7 -24 c13 -8 13
-10 -2 -10 -9 0 -20 5 -23 10 -8 13 5 13 25 0z m1200 -20 c-22 -17 -23 -20 -6
-20 18 0 18 -1 3 -18 -10 -10 -17 -25 -17 -33 0 -15 -19 -39 -31 -39 -4 0 -14
11 -22 24 -20 30 -5 69 33 87 14 6 32 15 40 19 26 13 26 -1 0 -20z m1180 -9
c0 -13 -2 -13 -9 -2 -7 11 -9 11 -14 0 -3 -8 -6 -5 -6 8 -1 16 3 21 14 17 8
-4 15 -14 15 -23z m-2482 12 c-10 -2 -28 -2 -40 0 -13 2 -5 4 17 4 22 1 32 -1
23 -4z m69 -1 c17 -11 2 -29 -30 -37 -31 -8 -34 -2 -9 24 20 22 23 23 39 13z
m217 -14 c-3 -4 -9 -8 -15 -8 -5 0 -9 4 -9 8 0 5 7 9 15 9 8 0 12 -4 9 -9z
m-479 -38 c-3 -4 -15 -6 -27 -2 -21 5 -21 6 -2 12 21 8 37 3 29 -10z m185 10
c0 -5 -4 -10 -10 -10 -5 0 -10 5 -10 10 0 6 5 10 10 10 6 0 10 -4 10 -10z
m1350 -10 c0 -5 -4 -10 -10 -10 -5 0 -10 5 -10 10 0 6 5 10 10 10 6 0 10 -4
10 -10z m880 0 c0 -5 -5 -10 -11 -10 -6 0 -9 -7 -5 -15 12 -31 -3 -43 -47 -38
-52 7 -53 8 -36 29 25 30 99 55 99 34z m-2625 -11 c10 -15 -2 -24 -17 -11 -7
5 -24 12 -38 15 -19 3 -16 5 12 6 20 0 40 -4 43 -10z m2967 -42 c-5 -53 -13
-61 -53 -52 -28 6 -30 9 -15 17 12 7 21 7 29 -1 6 -6 15 -11 21 -11 5 0 -7 15
-27 33 -20 18 -37 38 -37 44 0 14 25 20 60 15 23 -3 25 -7 22 -45z m-2602 39
c0 -3 -4 -8 -10 -11 -5 -3 -10 -1 -10 4 0 6 5 11 10 11 6 0 10 -2 10 -4z m320
-10 c0 -10 -32 -36 -43 -36 -7 1 -1 10 12 20 23 20 31 24 31 16z m-705 -18 c6
-1 21 2 35 6 19 6 21 5 10 -3 -13 -10 -13 -11 0 -11 13 -1 13 -2 0 -9 -35 -20
-60 -23 -60 -7 0 10 -9 16 -26 16 -14 0 -23 4 -19 9 3 6 15 7 28 5 12 -3 27
-6 32 -6z m245 2 c0 -5 -6 -10 -14 -10 -8 0 -18 5 -21 10 -3 6 3 10 14 10 12
0 21 -4 21 -10z m360 6 c0 -2 -7 -6 -15 -10 -8 -3 -15 -1 -15 4 0 6 7 10 15
10 8 0 15 -2 15 -4z m184 -5 c10 -15 -18 -19 -32 -5 -11 12 -9 14 7 14 11 0
22 -4 25 -9z m491 -1 c-3 -5 -12 -10 -18 -10 -7 0 -6 4 3 10 19 12 23 12 15 0z
m-1090 -9 c-3 -6 3 -14 12 -20 21 -12 13 -24 -11 -15 -18 7 -22 44 -5 44 5 0
8 -4 4 -9z m375 -11 c0 -5 -5 -10 -11 -10 -5 0 -7 5 -4 10 3 6 8 10 11 10 2 0
4 -4 4 -10z m162 -22 c-11 -11 -32 -3 -32 12 0 12 34 18 39 7 2 -5 -1 -13 -7
-19z m1011 15 c-9 -23 -43 -54 -54 -48 -4 3 -10 1 -14 -5 -3 -5 -14 -10 -23
-10 -15 1 -15 2 2 15 11 8 16 15 12 15 -4 0 0 7 8 16 9 8 21 12 27 8 7 -4 9
-3 5 4 -5 9 7 16 36 21 4 0 4 -7 1 -16z m1187 -5 c0 -13 -23 -5 -28 10 -2 7 2
10 12 6 9 -3 16 -11 16 -16z m-2842 -44 c13 -28 5 -32 -15 -6 -8 9 -12 11 -8
5 4 -9 1 -11 -9 -7 -16 6 -21 26 -10 37 11 10 31 -3 42 -29z m1687 30 c13 -5
14 -8 3 -15 -21 -14 -38 -10 -32 6 7 17 7 17 29 9z m-1140 -13 c6 -11 -35 -42
-46 -35 -5 3 -1 13 9 24 20 21 28 24 37 11z m1415 -11 c0 -5 -2 -10 -4 -10 -3
0 -8 5 -11 10 -3 6 -1 10 4 10 6 0 11 -4 11 -10z m-2307 -25 c-3 -9 -8 -14
-10 -11 -3 3 -2 9 2 15 9 16 15 13 8 -4z m2032 7 c-5 -4 -11 -14 -13 -22 -2
-8 -8 -17 -13 -18 -5 -2 -6 -9 -2 -15 4 -7 0 -8 -11 -4 -10 4 -25 7 -33 7 -12
0 -13 3 -4 13 6 8 8 17 5 20 -3 3 9 10 27 16 43 12 57 13 44 3z m-2060 -41
c-3 -6 -11 -11 -16 -11 -5 0 -4 6 3 14 14 16 24 13 13 -3z m855 9 c0 -5 -7
-10 -15 -10 -8 0 -15 5 -15 10 0 6 7 10 15 10 8 0 15 -4 15 -10z m1220 -25 c0
-8 -6 -15 -13 -15 -8 0 -14 7 -14 15 0 8 6 15 14 15 7 0 13 -7 13 -15z m-2167
-79 c-37 -40 -71 -70 -75 -69 -3 2 -18 24 -32 49 -14 26 -20 41 -12 35 12 -10
17 -8 27 11 7 13 12 26 11 29 -1 4 8 5 18 2 11 -3 20 -1 20 5 0 11 73 21 98
13 8 -2 -14 -32 -55 -75z m1076 74 c11 0 9 -4 -5 -15 -22 -17 -50 -19 -59 -5
-10 17 6 32 29 26 11 -3 27 -6 35 -6z m-115 -24 c-5 -14 -49 -27 -59 -18 -3 3
7 11 22 18 37 17 43 17 37 0z m-1287 -2 c-3 -3 -12 -4 -19 -1 -8 3 -5 6 6 6
11 1 17 -2 13 -5z m1823 -30 c0 -11 -5 -14 -16 -10 -9 3 -20 6 -25 6 -5 0 -9
5 -9 10 0 6 11 10 25 10 16 0 25 -6 25 -16z m172 -2 c7 -7 18 -12 26 -12 33 0
1 -24 -56 -42 -35 -10 -66 -26 -69 -34 -6 -17 -37 -18 -51 -1 -20 24 11 48 66
49 37 1 49 5 45 15 -3 7 -13 13 -23 13 -25 0 -35 17 -13 23 29 6 63 1 75 -11z
m478 9 c0 -5 -11 -11 -25 -13 -20 -4 -23 -3 -14 8 13 16 39 19 39 5z m-1148
-21 c-1 -7 4 -9 15 -6 10 3 40 8 68 12 44 5 48 4 36 -9 -7 -9 -20 -15 -29 -15
-9 1 -33 -2 -52 -5 -40 -8 -78 11 -66 32 10 15 32 8 28 -9z m348 10 c0 -5 9
-10 21 -10 11 0 17 -4 14 -10 -4 -6 8 -10 27 -11 42 -2 39 -2 63 7 18 7 18 6
-2 -15 -12 -13 -27 -20 -33 -16 -6 4 -20 -2 -31 -14 -22 -23 -49 -30 -30 -8 8
10 6 19 -10 35 -16 18 -24 20 -40 11 -28 -15 -34 -5 -12 20 19 23 33 27 33 11z
m-100 -25 c0 -8 -9 -15 -19 -15 -29 0 -35 18 -9 23 13 2 24 5 26 6 1 0 2 -6 2
-14z m300 5 c-19 -13 -30 -13 -30 0 0 6 10 10 23 10 18 0 19 -2 7 -10z m1287
-12 c-3 -8 -6 -5 -6 6 -1 11 2 17 5 13 3 -3 4 -12 1 -19z m-702 -8 c-3 -5 -17
-10 -31 -10 -14 0 -22 4 -19 10 3 6 17 10 31 10 14 0 22 -4 19 -10z m-1078
-16 c-3 -3 -12 -4 -19 -1 -8 3 -5 6 6 6 11 1 17 -2 13 -5z m53 -29 c-9 -24 -8
-25 18 -19 15 4 29 10 32 13 8 10 60 31 77 31 13 0 13 -3 3 -15 -7 -8 -18 -15
-24 -15 -12 -1 -56 -35 -56 -44 0 -3 6 -4 13 -2 48 15 67 16 67 1 0 -8 -1 -15
-2 -15 -41 -8 -140 -9 -129 -2 17 12 8 28 -19 35 -11 3 -18 1 -14 -4 3 -5 -7
-9 -22 -9 -22 0 -24 2 -14 15 6 8 8 19 4 26 -5 8 1 10 20 7 18 -4 26 -1 26 8
0 8 7 14 15 14 11 0 12 -5 5 -25z m989 9 c-9 -11 -15 -11 -25 -3 -18 15 -18
14 11 15 21 2 24 -1 14 -12z m318 -6 c-3 -8 -6 -5 -6 6 -1 11 2 17 5 13 3 -3
4 -12 1 -19z m53 18 c0 -2 -7 -6 -15 -10 -8 -3 -15 -1 -15 4 0 6 7 10 15 10 8
0 15 -2 15 -4z m240 -12 c0 -8 -5 -12 -10 -9 -6 4 -8 11 -5 16 9 14 15 11 15
-7z m-1003 0 c-3 -3 -12 -4 -19 -1 -8 3 -5 6 6 6 11 1 17 -2 13 -5z m433 2 c0
-3 -4 -8 -10 -11 -5 -3 -10 -1 -10 4 0 6 5 11 10 11 6 0 10 -2 10 -4z m35 -6
c-3 -5 -10 -10 -16 -10 -5 0 -9 5 -9 10 0 6 7 10 16 10 8 0 12 -4 9 -10z
m-865 -10 c0 -5 -4 -10 -10 -10 -5 0 -10 5 -10 10 0 6 5 10 10 10 6 0 10 -4
10 -10z m-315 -10 c-3 -5 -12 -10 -18 -10 -7 0 -6 4 3 10 19 12 23 12 15 0z
m670 0 c-3 -5 -15 -10 -26 -10 -10 0 -19 5 -19 10 0 6 12 10 26 10 14 0 23 -4
19 -10z m395 6 c0 -3 -4 -8 -10 -11 -5 -3 -10 -1 -10 4 0 6 5 11 10 11 6 0 10
-2 10 -4z m-595 -31 c0 -14 -5 -25 -11 -25 -6 0 -11 11 -11 25 0 14 5 25 11
25 6 0 11 -11 11 -25z m61 -33 c-15 -15 -16 -15 -16 5 0 12 6 23 13 26 19 6
21 -13 3 -31z m578 24 c-6 -16 -34 -30 -34 -18 0 10 22 32 32 32 4 0 5 -6 2
-14z m-789 -6 c3 -5 -1 -10 -10 -10 -9 0 -13 5 -10 10 3 6 8 10 10 10 2 0 7
-4 10 -10z m855 3 c0 -5 -7 -28 -16 -52 -8 -24 -12 -46 -8 -50 4 -3 9 0 11 7
3 7 13 17 23 22 18 9 18 8 4 -17 -16 -33 -18 -53 -4 -53 6 0 10 5 10 10 0 6 6
10 14 10 9 0 12 -7 9 -20 -3 -11 -10 -20 -17 -20 -17 1 -46 26 -46 40 0 22
-10 5 -16 -26 -3 -15 -7 -31 -10 -35 -2 -4 14 -10 36 -14 22 -4 40 -11 40 -16
0 -15 -33 -24 -38 -11 -5 17 -22 15 -22 -3 0 -8 -8 -15 -19 -15 -10 0 -33 -3
-50 -6 -21 -4 -31 -3 -31 5 0 7 5 9 10 6 6 -3 10 -2 10 4 0 5 -6 12 -12 14 -7
3 -3 6 10 6 15 1 21 5 16 13 -4 6 -8 25 -8 41 -1 23 6 35 28 48 24 15 27 19
14 24 -17 7 -19 40 -4 64 12 19 66 39 66 24z m-207 -28 c-3 -9 -8 -14 -10 -11
-3 3 -2 9 2 15 9 16 15 13 8 -4z m-2036 -47 c-3 -7 -5 -2 -5 12 0 14 2 19 5
13 2 -7 2 -19 0 -25z m2553 -8 c0 -5 -4 -10 -10 -10 -5 0 -10 5 -10 10 0 6 5
10 10 10 6 0 10 -4 10 -10z m-1120 -26 c0 -17 -22 -14 -28 4 -2 7 3 12 12 12
9 0 16 -7 16 -16z m-1473 -56 c-3 -7 -5 -2 -5 12 0 14 2 19 5 13 2 -7 2 -19 0
-25z m2273 3 c0 -6 -4 -13 -10 -16 -5 -3 -10 1 -10 9 0 9 5 16 10 16 6 0 10
-4 10 -9z m-220 -51 c-6 -11 -13 -20 -16 -20 -2 0 0 9 6 20 6 11 13 20 16 20
2 0 0 -9 -6 -20z m-565 0 c3 -5 2 -10 -4 -10 -5 0 -13 5 -16 10 -3 6 -2 10 4
10 5 0 13 -4 16 -10z m320 -20 c3 -5 1 -10 -4 -10 -6 0 -11 5 -11 10 0 6 2 10
4 10 3 0 8 -4 11 -10z m474 -42 c-8 -16 -8 -19 1 -13 8 5 11 3 8 -6 -3 -10
-24 -14 -73 -15 -45 -1 -63 1 -52 7 9 5 14 16 11 23 -6 15 35 29 59 20 8 -3
18 -1 21 5 4 6 13 8 21 5 11 -5 12 -11 4 -26z m55 25 c-5 -5 -12 -12 -16 -18
-4 -6 -8 -2 -8 8 0 9 7 17 17 17 9 0 12 -3 7 -7z m-117 -89 c12 -11 11 -17 -3
-39 -10 -15 -25 -25 -38 -24 -17 1 -17 2 -3 6 9 2 17 9 17 14 0 6 -5 7 -11 3
-12 -7 -29 13 -29 36 0 20 49 23 67 4z m284 -7 c-10 -9 -11 -8 -5 6 3 10 9 15
12 12 3 -3 0 -11 -7 -18z m909 13 c-8 -5 -19 -10 -25 -10 -5 0 -3 5 5 10 8 5
20 10 25 10 6 0 3 -5 -5 -10z m-1136 -29 c-5 -5 -20 -12 -34 -16 -23 -6 -23
-5 5 14 28 19 49 21 29 2z m79 -18 c-13 -2 -33 -2 -45 0 -13 2 -3 4 22 4 25 0
35 -2 23 -4z m70 0 c-7 -2 -21 -2 -30 0 -10 3 -4 5 12 5 17 0 24 -2 18 -5z
m-177 -38 c-15 -23 -15 -25 0 -25 25 0 11 -10 -22 -16 -15 -3 -32 -8 -38 -11
-6 -4 -2 3 8 15 19 22 19 22 -5 23 -23 0 -23 1 -4 10 11 5 31 16 45 24 32 18
37 12 16 -20z m44 11 c0 -8 -7 -16 -15 -20 -15 -5 -21 14 -8 27 11 12 23 8 23
-7z m-245 -6 c-3 -5 -12 -10 -18 -10 -7 0 -6 4 3 10 19 12 23 12 15 0z m1335
-44 c0 -2 -7 -7 -16 -10 -8 -3 -12 -2 -9 4 6 10 25 14 25 6z m-1101 -50 c0 -7
-3 -6 -6 2 -3 8 -14 2 -32 -19 -17 -19 -31 -28 -35 -21 -3 6 2 15 11 21 14 8
15 11 3 11 -10 0 -7 7 10 20 25 19 51 12 49 -14z m1081 -15 c0 -5 -7 -12 -16
-15 -14 -5 -15 -4 -4 9 14 17 20 19 20 6z m-1057 -21 c4 -15 0 -20 -14 -20
-10 0 -19 6 -20 13 0 10 -2 10 -6 0 -2 -7 -10 -13 -16 -13 -13 1 30 40 43 40
4 0 10 -9 13 -20z m-558 0 c-3 -5 -13 -10 -21 -10 -8 0 -12 5 -9 10 3 6 13 10
21 10 8 0 12 -4 9 -10z m-195 -30 c0 -5 -4 -10 -10 -10 -5 0 -10 5 -10 10 0 6
5 10 10 10 6 0 10 -4 10 -10z m702 -72 c-6 -6 -22 -13 -34 -15 -22 -3 -22 -2
-4 12 25 19 56 21 38 3z m588 -28 c0 -5 -4 -10 -10 -10 -5 0 -10 5 -10 10 0 6
5 10 10 10 6 0 10 -4 10 -10z m-2200 -14 c0 -3 -4 -8 -10 -11 -5 -3 -10 -1
-10 4 0 6 5 11 10 11 6 0 10 -2 10 -4z m1640 -11 c-7 -8 -16 -15 -21 -15 -5 0
-6 7 -3 15 4 8 13 15 21 15 13 0 13 -3 3 -15z m8 -35 c-13 -21 -54 -38 -64
-27 -10 10 7 27 26 27 10 0 22 5 25 10 3 6 10 10 16 10 5 0 4 -9 -3 -20z
m-603 -28 c-5 -40 5 -74 21 -68 7 3 15 0 18 -7 3 -9 7 -8 14 2 7 10 11 10 17
1 4 -7 1 -16 -6 -21 -19 -12 -29 -11 -29 2 0 5 -5 7 -10 4 -6 -4 -5 -12 4 -21
18 -17 33 -18 38 -2 4 10 10 10 29 1 l24 -12 -23 0 c-13 -1 -20 -5 -17 -11 4
-6 -5 -10 -19 -10 -14 0 -26 -4 -26 -10 0 -18 -40 -11 -41 8 0 12 -4 9 -12
-10 -11 -23 -15 -24 -30 -13 -9 6 -17 19 -17 28 0 9 -4 19 -10 22 -16 10 -12
25 6 25 12 0 14 3 6 13 -7 8 -7 18 -2 27 8 13 10 13 10 -1 0 -25 24 -41 38
-27 15 15 16 31 0 22 -7 -5 -8 -3 -3 6 5 8 2 17 -8 25 -19 14 -17 48 3 56 22
10 29 2 25 -29z m55 18 c0 -5 -5 -10 -11 -10 -5 0 -7 5 -4 10 3 6 8 10 11 10
2 0 4 -4 4 -10z m769 -3 c-2 -1 -13 -9 -24 -17 -19 -14 -19 -14 -6 3 7 9 18
17 24 17 6 0 8 -1 6 -3z m-734 -17 c3 -5 -1 -10 -10 -10 -9 0 -13 5 -10 10 3
6 8 10 10 10 2 0 7 -4 10 -10z m782 -27 c-3 -10 -5 -4 -5 12 0 17 2 24 5 18 2
-7 2 -21 0 -30z m-1897 13 c0 -11 -19 -15 -25 -6 -3 5 1 10 9 10 9 0 16 -2 16
-4z m1100 -10 c0 -2 -7 -9 -15 -16 -12 -10 -15 -10 -15 4 0 9 7 16 15 16 8 0
15 -2 15 -4z m-1131 -51 c0 -5 -4 -3 -9 5 -5 8 -9 22 -9 30 0 16 17 -16 18
-35z m2443 13 c-8 -8 -9 -4 -5 13 4 13 8 18 11 10 2 -7 -1 -18 -6 -23z m-1266
-13 c-11 -8 -22 -12 -25 -9 -6 6 19 24 34 24 6 -1 1 -7 -9 -15z m494 7 c0 -17
-39 -44 -59 -40 -20 3 -21 4 -6 26 15 21 65 32 65 14z m-470 -22 c-8 -5 -19
-10 -25 -10 -5 0 -3 5 5 10 8 5 20 10 25 10 6 0 3 -5 -5 -10z m27 -16 c-3 -3
-12 -4 -19 -1 -8 3 -5 6 6 6 11 1 17 -2 13 -5z m1210 -41 c-3 -10 -5 -2 -5 17
0 19 2 27 5 18 2 -10 2 -26 0 -35z m-750 5 c4 -28 -6 -18 -12 12 -2 12 -1 20
2 16 4 -4 8 -16 10 -28z m-502 12 c-3 -5 -12 -10 -18 -10 -7 0 -6 4 3 10 19
12 23 12 15 0z m455 -10 c11 -7 5 -8 -20 -4 -43 8 -51 14 -19 14 13 0 31 -5
39 -10z m-523 -43 c-1 -24 -5 -33 -18 -33 -10 0 -17 3 -15 6 7 17 30 60 32 60
1 0 2 -15 1 -33z m543 -12 c-7 -9 -15 -13 -18 -10 -3 2 1 11 8 20 7 9 15 13
18 10 3 -2 -1 -11 -8 -20z m-590 5 c0 -5 -4 -10 -10 -10 -5 0 -10 5 -10 10 0
6 5 10 10 10 6 0 10 -4 10 -10z m543 -25 c-3 -9 -8 -14 -10 -11 -3 3 -2 9 2
15 9 16 15 13 8 -4z m-598 -5 c3 -5 2 -10 -4 -10 -5 0 -13 5 -16 10 -3 6 -2
10 4 10 5 0 13 -4 16 -10z m60 -30 c3 -5 2 -10 -4 -10 -5 0 -13 5 -16 10 -3 6
-2 10 4 10 5 0 13 -4 16 -10z m62 4 c-3 -3 -12 -4 -19 -1 -8 3 -5 6 6 6 11 1
17 -2 13 -5z m-1342 -77 c52 -29 75 -76 75 -149 l0 -58 -84 0 -85 0 -3 53 c-3
48 -5 52 -28 52 -19 0 -25 -6 -30 -30 -12 -57 1 -77 85 -132 142 -93 171 -144
163 -281 -6 -87 -24 -116 -88 -150 -34 -17 -61 -22 -120 -22 -59 0 -86 5 -120
22 -68 36 -84 65 -89 164 l-3 84 86 0 85 0 3 -72 c3 -68 5 -73 27 -76 28 -4
41 12 41 54 0 64 -18 90 -99 144 -43 28 -88 61 -99 73 -66 70 -71 229 -10 295
36 39 76 51 168 51 70 1 92 -3 125 -22z m1003 -9 c60 -40 75 -75 80 -196 l5
-103 -94 3 -94 3 -5 100 c-5 94 -6 100 -27 103 -37 5 -43 -32 -43 -257 0 -219
5 -247 46 -239 16 3 20 14 24 88 l5 85 93 3 92 3 0 -58 c-1 -130 -25 -182
-104 -222 -38 -20 -60 -24 -120 -23 -86 2 -134 19 -170 62 -42 50 -47 93 -44
334 l3 223 28 42 c42 63 91 82 198 79 74 -3 91 -7 127 -30z m505 2 c57 -38 79
-93 81 -203 l1 -92 -92 -3 -93 -3 0 90 c0 105 -5 121 -35 121 -13 0 -26 -7
-29 -16 -3 -9 -6 -114 -6 -234 0 -120 3 -225 6 -234 8 -21 50 -21 58 0 3 9 6
49 6 90 l0 75 93 -3 92 -3 -2 -75 c-4 -100 -24 -151 -72 -183 -50 -33 -93 -44
-165 -41 -88 5 -144 36 -176 99 -24 49 -25 55 -25 270 0 239 6 273 53 318 52
49 80 58 177 55 76 -3 96 -7 128 -28z m844 9 c59 -28 75 -56 81 -139 l5 -70
-87 0 -86 0 0 33 c0 51 -11 77 -31 77 -44 0 -49 -89 -6 -126 12 -11 55 -41 95
-68 88 -59 110 -88 124 -166 14 -71 -1 -171 -29 -203 -77 -87 -310 -75 -365
19 -10 17 -20 63 -24 112 l-7 82 91 0 91 0 3 -72 c3 -66 5 -73 25 -76 31 -4
46 29 38 81 -9 53 -22 68 -120 132 -105 69 -125 103 -125 212 0 97 19 138 80
170 60 32 184 33 247 2z m470 0 c59 -28 75 -56 81 -139 l5 -70 -87 0 -86 0 0
39 c0 52 -8 71 -31 71 -44 0 -49 -88 -6 -127 12 -11 43 -33 70 -48 82 -47 133
-105 146 -164 14 -65 14 -115 0 -166 -22 -81 -82 -114 -203 -115 -66 0 -86 4
-127 26 -60 33 -78 69 -81 165 l-3 74 87 3 87 3 3 -73 c3 -66 5 -73 25 -76 31
-4 46 29 38 81 -9 53 -22 67 -121 133 -104 70 -124 103 -124 209 0 95 18 137
74 170 56 34 187 36 253 4z m-2485 -291 l3 -303 22 -3 23 -3 2 303 3 303 93 3
92 3 0 -303 c0 -295 -1 -304 -23 -343 -31 -56 -92 -85 -183 -87 -52 0 -80 5
-116 21 -102 49 -107 67 -108 424 l0 287 95 0 95 0 2 -302z m1636 230 l-3 -73
-50 -2 c-27 -1 -56 -2 -62 -2 -9 -1 -13 -21 -13 -66 l0 -65 60 0 61 0 -3 -67
-3 -68 -57 -3 -58 -3 0 -79 0 -80 70 0 70 0 0 -70 0 -70 -162 2 -163 3 -3 345
c-1 190 0 351 3 357 3 10 44 13 160 13 l156 0 -3 -72z m1102 -53 c0 -8 -4 -15
-10 -15 -5 0 -7 7 -4 15 4 8 8 15 10 15 2 0 4 -7 4 -15z m-20 -39 c0 -3 -4 -8
-10 -11 -5 -3 -10 -1 -10 4 0 6 5 11 10 11 6 0 10 -2 10 -4z m-2950 -143 l0
-66 -42 41 c-24 23 -52 48 -63 57 -19 14 -18 14 15 16 28 1 62 8 88 18 1 1 2
-29 2 -66z m2935 27 c-9 -16 -18 -30 -21 -30 -2 0 2 14 11 30 9 17 18 30 21
30 2 0 -2 -13 -11 -30z m-2058 -84 c1 -1 -1 -6 -5 -12 -4 -6 -28 -13 -54 -16
-45 -5 -48 -4 -48 18 0 22 2 23 53 17 28 -3 53 -6 54 -7z m123 -11 c0 -18 -5
-25 -20 -25 -15 0 -20 7 -20 25 0 18 5 25 20 25 15 0 20 -7 20 -25z m305 15
c3 -5 -1 -10 -9 -10 -9 0 -16 5 -16 10 0 6 4 10 9 10 6 0 13 -4 16 -10z m542
-127 c-9 -8 -48 8 -42 18 4 5 14 5 26 -2 12 -6 18 -13 16 -16z m1033 -37 c0
-3 -4 -8 -10 -11 -5 -3 -10 -1 -10 4 0 6 5 11 10 11 6 0 10 -2 10 -4z m-10
-116 c0 -5 -5 -10 -11 -10 -5 0 -7 5 -4 10 3 6 8 10 11 10 2 0 4 -4 4 -10z
m44 -25 c-5 -12 -10 -13 -20 -4 -19 15 -18 19 6 19 13 0 18 -5 14 -15z m-24
-25 c0 -5 -2 -10 -4 -10 -3 0 -8 5 -11 10 -3 6 -1 10 4 10 6 0 11 -4 11 -10z
m-3 -31 c-7 -5 -27 -4 -43 1 -27 8 -25 8 14 7 27 0 38 -3 29 -8z m-2036 -73
c-12 -31 -32 -35 -28 -5 3 18 27 43 34 35 2 -2 -1 -15 -6 -30z m2039 -1 c-7
-9 -15 -13 -18 -10 -3 2 1 11 8 20 7 9 15 13 18 10 3 -2 -1 -11 -8 -20z m-40
-45 c0 -5 -4 -10 -10 -10 -5 0 -10 5 -10 10 0 6 5 10 10 10 6 0 10 -4 10 -10z
m15 -30 c-3 -5 -14 -10 -23 -10 -15 0 -15 2 -2 10 20 13 33 13 25 0z m-172
-51 c-7 -25 -10 -24 -15 5 -3 16 -1 23 7 19 7 -2 11 -13 8 -24z m137 27 c0 -2
-8 -10 -17 -17 -16 -13 -17 -12 -4 4 13 16 21 21 21 13z m-483 -31 c-4 -8 -12
-15 -19 -14 -10 0 -10 2 0 6 6 2 12 12 12 21 0 8 3 13 6 9 4 -3 4 -13 1 -22z
m30 3 c-3 -8 -6 -5 -6 6 -1 11 2 17 5 13 3 -3 4 -12 1 -19z m340 -10 c-3 -7
-5 -2 -5 12 0 14 2 19 5 13 2 -7 2 -19 0 -25z m53 20 c0 -4 -8 -8 -17 -8 -16
0 -16 -2 -3 -11 13 -9 13 -10 0 -6 -23 6 -24 33 0 33 11 0 20 -4 20 -8z m104
-20 c7 -5 5 -8 -5 -8 -18 0 -32 24 -21 35 4 3 8 0 11 -7 2 -7 9 -16 15 -20z
m33 10 c-1 -10 -2 -18 -3 -18 0 0 -8 8 -17 18 -15 16 -15 18 3 18 12 0 18 -7
17 -18z m33 12 c0 -5 -4 -10 -10 -10 -5 0 -10 5 -10 10 0 6 5 10 10 10 6 0 10
-4 10 -10z m-486 -16 c3 -8 2 -12 -4 -9 -6 3 -10 10 -10 16 0 14 7 11 14 -7z
m-1100 -3 c3 -5 -3 -11 -14 -14 -13 -3 -20 0 -20 9 0 15 26 19 34 5z m462 -18
c-10 -10 -19 5 -10 18 6 11 8 11 12 0 2 -7 1 -15 -2 -18z"/>
<path d="M2303 4223 c-9 -3 -13 -28 -13 -79 0 -71 1 -74 24 -74 26 0 36 21 36
75 0 61 -17 88 -47 78z"/>
<path d="M5140 4466 c0 -9 5 -16 10 -16 6 0 10 4 10 9 0 6 -4 13 -10 16 -5 3
-10 -1 -10 -9z"/>
<path d="M5178 4303 c7 -3 16 -2 19 1 4 3 -2 6 -13 5 -11 0 -14 -3 -6 -6z"/>
<path d="M5485 4120 c-3 -5 -1 -10 4 -10 6 0 11 5 11 10 0 6 -2 10 -4 10 -3 0
-8 -4 -11 -10z"/>
<path d="M5160 4041 c0 -5 9 -7 20 -4 11 3 20 7 20 9 0 2 -9 4 -20 4 -11 0
-20 -4 -20 -9z"/>
<path d="M5170 3790 c-13 -8 -13 -10 2 -10 9 0 20 5 23 10 8 13 -5 13 -25 0z"/>
<path d="M5150 3740 c0 -5 10 -10 23 -10 18 0 19 2 7 10 -19 13 -30 13 -30 0z"/>
<path d="M5158 3703 c7 -3 16 -2 19 1 4 3 -2 6 -13 5 -11 0 -14 -3 -6 -6z"/>
<path d="M5155 3439 c-11 -17 1 -21 15 -4 8 9 8 15 2 15 -6 0 -14 -5 -17 -11z"/>
<path d="M4255 3360 c-27 -7 -25 -8 18 -9 30 -1 46 3 42 9 -7 11 -16 11 -60 0z"/>
<path d="M5165 3240 c-3 -5 1 -10 10 -10 9 0 13 5 10 10 -3 6 -8 10 -10 10 -2
0 -7 -4 -10 -10z"/>
<path d="M5106 3205 c-16 -12 -17 -15 -4 -15 9 0 18 7 22 15 7 18 6 18 -18 0z"/>
<path d="M4268 2973 c-10 -2 -18 -9 -18 -14 0 -6 9 -5 21 2 15 8 24 8 32 0 6
-6 18 -11 27 -11 8 0 2 7 -14 15 -15 8 -29 14 -30 14 0 -1 -9 -3 -18 -6z"/>
<path d="M5940 2876 c0 -2 8 -10 18 -17 15 -13 16 -12 3 4 -13 16 -21 21 -21
13z"/>
<path d="M5156 2815 c-11 -8 -15 -15 -10 -15 6 0 19 7 30 15 10 8 15 14 9 14
-5 0 -19 -6 -29 -14z"/>
<path d="M2490 2795 c0 -9 5 -15 11 -13 6 2 11 8 11 13 0 5 -5 11 -11 13 -6 2
-11 -4 -11 -13z"/>
<path d="M2556 2744 c-10 -25 1 -29 14 -5 6 12 7 21 1 21 -5 0 -12 -7 -15 -16z"/>
<path d="M3126 2544 c-9 -8 -14 -20 -11 -25 4 -5 -3 -9 -15 -9 -12 0 -18 -4
-15 -11 4 -6 26 -9 49 -8 23 2 47 0 53 -4 6 -4 11 3 11 19 0 18 -7 28 -19 31
-11 3 -19 9 -19 14 0 14 -17 11 -34 -7z"/>
<path d="M2797 2544 c-8 -8 1 -24 14 -24 5 0 9 7 9 15 0 15 -12 20 -23 9z"/>
<path d="M320 2530 c0 -5 5 -10 11 -10 5 0 7 5 4 10 -3 6 -8 10 -11 10 -2 0
-4 -4 -4 -10z"/>
<path d="M5165 2530 c3 -5 10 -10 16 -10 5 0 9 5 9 10 0 6 -7 10 -16 10 -8 0
-12 -4 -9 -10z"/>
<path d="M150 2506 c0 -18 -16 -21 -25 -5 -5 7 -14 4 -26 -7 -11 -9 -22 -14
-26 -11 -3 4 -12 2 -19 -4 -10 -8 -11 -16 -4 -29 6 -11 6 -21 1 -24 -14 -9
-39 4 -44 22 -3 10 -5 -121 -5 -290 -1 -263 1 -308 13 -308 8 0 15 -8 15 -17
0 -14 -2 -15 -9 -4 -14 22 -17 2 -20 -136 -3 -129 3 -170 19 -142 6 9 12 9 25
-4 9 -9 13 -21 10 -27 -3 -5 -1 -10 4 -10 15 0 14 -18 -1 -34 -19 -20 -43 7
-29 32 8 14 6 18 -10 18 -18 0 -20 -6 -17 -62 1 -34 5 -61 9 -58 15 9 18 -29
4 -49 -18 -26 -20 -63 -2 -70 9 -4 9 -7 -1 -14 -9 -7 -12 -51 -10 -179 l3
-169 33 3 c17 1 32 -2 32 -8 0 -5 22 -10 49 -10 l50 0 -17 -37 c-25 -57 -31
-458 -8 -537 9 -31 21 -56 26 -56 6 0 10 -5 10 -11 0 -16 36 -59 43 -52 4 3
13 1 20 -6 8 -6 38 -15 67 -21 30 -6 55 -12 57 -14 2 -2 0 -19 -6 -37 -5 -19
-10 -28 -10 -21 -1 6 -6 12 -13 12 -6 0 -4 -8 6 -19 27 -30 17 -56 -21 -56
-17 0 -35 -3 -39 -7 -4 -5 -3 -8 3 -8 6 0 10 -8 9 -18 -1 -14 9 -17 62 -19
l63 -3 -7 50 c-10 77 3 139 32 152 18 9 27 9 36 0 7 -7 28 -9 53 -5 49 6 49 7
60 -119 l7 -78 34 0 c46 0 50 16 25 99 -20 66 -27 121 -16 121 11 0 70 -33 76
-42 3 -5 9 -9 13 -9 10 2 56 -55 56 -68 0 -21 -18 -11 -24 14 -4 16 -11 23
-18 19 -7 -5 -8 -3 -3 6 5 8 3 11 -6 8 -9 -3 -13 -16 -11 -34 2 -22 0 -26 -8
-14 -8 12 -10 10 -10 -10 0 -14 9 -32 20 -40 12 -9 18 -21 14 -32 -5 -17 6
-18 153 -18 l159 0 12 34 c7 19 24 51 37 71 14 20 20 33 14 29 -7 -4 -10 -2
-7 7 3 8 10 13 16 12 5 -1 12 4 15 11 5 11 -2 11 -40 0 -26 -8 -56 -14 -69
-14 -23 0 -89 49 -68 50 6 0 17 -7 24 -15 21 -25 72 -18 164 20 11 5 17 5 14
-1 -4 -5 103 -7 269 -4 272 5 276 5 290 27 l15 23 30 -25 c27 -22 38 -25 117
-25 72 0 91 3 104 18 10 10 17 24 17 30 0 28 17 8 44 -52 17 -36 34 -62 39
-59 6 3 7 1 3 -5 -3 -6 3 -27 15 -47 16 -27 24 -33 30 -23 7 9 9 8 7 -7 -3
-48 1 -55 37 -55 40 0 40 -2 -19 122 l-36 73 77 5 c43 3 80 5 82 3 2 -1 -4
-45 -14 -98 -9 -53 -15 -99 -12 -102 3 -3 9 12 12 33 4 22 14 68 21 104 8 36
26 124 40 195 59 300 299 1293 415 1712 21 79 39 149 39 155 -1 26 -38 -84
-69 -204 -17 -67 -43 -166 -56 -218 -14 -52 -30 -120 -36 -150 -5 -30 -17 -71
-24 -90 -8 -19 -24 -73 -34 -120 -11 -47 -26 -103 -34 -125 -8 -22 -17 -65
-21 -95 -9 -71 -66 -312 -77 -324 -5 -6 -9 10 -9 36 0 85 -20 91 -272 86 -208
-4 -207 -3 -217 -100 l-7 -63 -8 45 c-16 99 -40 120 -133 120 l-44 0 -43 93
c-106 227 -127 269 -132 265 -2 -3 15 -47 40 -99 69 -148 116 -251 116 -255 0
-2 -25 -4 -56 -4 -60 0 -88 -10 -103 -39 -6 -10 -18 -76 -27 -147 -9 -70 -20
-137 -24 -148 -6 -18 -8 -17 -14 7 -7 29 -39 47 -82 47 -22 0 -25 4 -22 27 3
25 8 28 43 31 62 5 75 23 75 103 0 37 -3 75 -6 84 -7 17 -48 39 -71 38 -7 0
-78 -1 -157 -2 -130 -1 -144 -3 -142 -18 2 -30 -39 -27 -76 6 -37 33 -34 47 6
31 15 -5 25 -6 21 -1 -3 5 -19 12 -35 16 -24 5 -30 12 -30 33 -1 39 -49 174
-49 140 -1 -32 -6 -33 -41 -13 -35 20 -74 18 -100 -3 -33 -27 -21 -60 45 -129
64 -67 74 -61 -107 -65 l-118 -3 -1 25 c-1 19 -5 14 -15 -20 -8 -25 -13 -63
-11 -85 2 -22 2 -32 0 -23 -3 10 -8 18 -12 18 -3 0 -15 14 -25 31 -13 23 -16
40 -11 67 4 20 9 57 11 81 1 23 5 45 8 48 5 6 43 -28 38 -34 -5 -7 11 -53 19
-53 4 0 12 8 17 17 7 11 23 16 55 16 30 0 44 4 40 11 -35 59 -92 128 -115 139
-16 6 -31 21 -34 31 -6 18 -8 17 -21 -8 -9 -17 -13 -41 -9 -57 3 -17 1 -29 -5
-29 -6 0 -7 -4 -4 -10 3 -5 -2 -10 -11 -10 -17 0 -16 -1 1 -13 17 -13 17 -14
-4 -20 -11 -3 -21 -1 -21 4 0 5 -7 9 -15 9 -8 0 -15 -7 -15 -15 0 -8 -4 -15
-10 -15 -14 0 -50 -41 -50 -57 0 -8 4 -12 9 -9 5 3 11 -1 15 -9 3 -8 4 -15 3
-15 -1 0 -19 6 -40 14 -29 10 -35 15 -22 19 19 8 11 27 -11 27 -8 0 -14 -9
-14 -20 0 -11 -6 -21 -12 -21 -24 -2 -43 3 -50 14 -4 7 -16 1 -34 -16 -29 -29
-54 -23 -36 8 6 12 11 14 16 6 9 -13 46 28 46 51 0 10 -2 10 -10 -2 -7 -12
-11 -10 -18 10 l-10 25 -11 -28 c-6 -16 -11 -33 -11 -38 0 -5 -4 -9 -10 -9 -5
0 -10 5 -10 10 0 6 -6 10 -14 10 -8 0 -18 5 -22 12 -5 8 0 9 14 6 29 -8 38 8
12 22 -11 6 -20 16 -20 22 0 6 11 3 25 -6 14 -9 25 -12 25 -6 0 5 7 10 16 10
10 0 14 6 10 15 -7 20 -4 19 24 -5 12 -11 27 -17 32 -14 5 3 -2 14 -15 24 -18
14 -23 26 -20 45 6 26 38 35 46 13 2 -7 8 -10 12 -6 11 10 -14 38 -34 38 -13
0 -13 2 -2 9 9 6 10 10 2 16 -7 4 -18 2 -26 -5 -11 -9 -12 -7 -8 9 4 16 11 19
36 14 27 -6 30 -4 25 15 -5 19 -3 21 20 17 50 -9 108 -16 165 -19 l58 -4 -3
42 c-2 33 -7 41 -23 41 -11 1 -25 4 -32 8 -6 4 -18 4 -27 1 -9 -4 -16 -1 -16
6 0 7 -9 3 -20 -10 -17 -19 -20 -20 -20 -6 0 10 -9 20 -20 23 -11 3 -20 10
-20 15 0 6 -6 8 -13 5 -8 -3 -14 0 -15 6 -1 7 -3 26 -5 44 -2 17 0 30 4 27 4
-2 10 0 14 6 10 15 35 12 35 -5 0 -8 5 -15 10 -15 6 0 10 8 10 17 0 9 3 13 6
10 4 -4 18 6 32 21 15 16 22 20 19 10 -7 -21 7 -31 32 -23 18 5 18 7 -6 31
-14 14 -23 28 -19 31 8 9 77 -27 71 -37 -3 -5 1 -14 8 -21 7 -7 12 -24 11 -38
-2 -15 2 -7 8 16 6 23 8 48 6 55 -8 20 -9 28 -2 27 10 -1 44 44 45 60 0 9 2
27 4 41 2 14 -3 34 -11 45 -13 17 -16 18 -25 5 -9 -12 -10 -12 -5 3 3 10 6 21
6 23 0 2 11 4 24 4 13 0 27 7 30 16 7 19 -10 44 -31 44 -11 0 -11 -4 -3 -20 9
-17 8 -20 -12 -20 -19 0 -20 2 -8 10 16 10 9 13 -25 11 -14 0 -11 3 8 10 21 8
27 16 24 30 -6 22 5 24 33 7 25 -16 37 -4 46 42 7 32 6 34 -9 21 -15 -12 -17
-11 -17 3 0 9 8 16 20 16 12 0 24 9 29 23 21 53 93 102 196 132 59 17 72 28
28 23 -25 -3 -28 0 -30 30 -1 22 3 32 13 32 8 0 14 -5 14 -11 0 -7 9 -9 22 -6
12 4 27 2 34 -4 14 -11 107 8 99 21 -7 11 39 21 59 14 8 -3 28 1 44 8 16 8 50
21 75 29 29 8 47 19 48 29 0 10 2 11 6 3 7 -18 23 -16 23 2 0 7 -8 19 -17 24
-16 9 -15 10 5 11 27 0 82 27 82 39 0 5 -12 14 -27 20 -49 20 -70 36 -65 49 2
8 -7 12 -27 12 -24 0 -31 -4 -31 -20 0 -16 7 -20 34 -20 33 0 35 -1 33 -35 -2
-28 -6 -35 -22 -35 -17 0 -18 2 -5 11 13 8 12 10 -3 7 -10 -2 -17 -7 -17 -12
2 -14 -23 -26 -42 -20 -9 2 -19 0 -23 -6 -9 -15 -61 -12 -79 5 -21 21 -28 19
-14 -5 16 -26 9 -31 -52 -37 -38 -3 -50 -1 -45 7 6 9 2 9 -13 1 -31 -16 -33
-14 -30 24 3 43 12 52 57 57 19 2 36 8 38 15 3 8 -6 9 -34 3 -20 -5 -39 -7
-41 -5 -2 2 3 18 12 36 9 18 15 33 13 35 -1 1 -27 -6 -57 -16 -32 -10 -59 -14
-64 -9 -16 15 -25 10 -21 -11 2 -12 0 -18 -6 -15 -5 4 -7 10 -4 15 8 13 -32
22 -52 12 -10 -5 -37 -8 -61 -6 -24 2 -53 -1 -64 -7 -21 -11 -21 -12 -3 -25
25 -19 41 -18 25 1 -18 21 -8 28 29 18 l31 -8 -25 -38 c-24 -35 -53 -43 -41
-11 3 9 -2 14 -14 15 -40 3 -43 4 -51 24 -6 17 -8 17 -8 3 -1 -22 -39 -24 -47
-4 -7 18 -46 30 -102 31 -33 1 -48 6 -61 24 -13 17 -24 22 -39 16 -12 -3 -22
-12 -22 -19 0 -9 -13 -13 -40 -12 -44 1 -48 6 -24 30 14 15 14 17 -1 22 -12 5
-13 10 -4 20 6 7 8 18 4 24 -8 13 -45 -25 -45 -45 0 -17 -18 -23 -62 -19 -27
2 -36 0 -32 -10 3 -9 -5 -13 -26 -13 -37 0 -37 5 -4 34 24 20 25 24 12 50 -15
31 -48 44 -48 19z m142 -108 c-7 -7 -12 -8 -12 -2 0 14 12 26 19 19 2 -3 -1
-11 -7 -17z m568 -38 c0 -5 -4 -10 -10 -10 -5 0 -10 5 -10 10 0 6 5 10 10 10
6 0 10 -4 10 -10z m-230 -18 c0 -4 -4 -12 -9 -17 -5 -6 -7 -24 -4 -41 4 -27
10 -33 41 -38 20 -3 41 -2 46 3 6 5 22 12 36 16 22 7 23 6 11 -9 -18 -21 -8
-31 17 -17 12 6 36 11 54 11 l33 0 -27 -24 c-36 -30 -35 -41 5 -57 17 -7 37
-20 43 -28 9 -12 5 -18 -24 -34 -24 -13 -37 -16 -40 -8 -2 6 -19 11 -37 11
-34 0 -34 0 -20 27 11 21 12 29 2 36 -9 7 -9 10 1 14 13 5 17 33 5 33 -5 0
-16 -7 -27 -15 -11 -8 -30 -12 -47 -8 -20 4 -30 1 -34 -10 -4 -8 -14 -13 -25
-10 -10 3 -21 -1 -26 -8 -5 -9 -2 -10 11 -5 11 4 22 2 26 -6 6 -10 15 -10 36
-2 39 14 62 7 56 -17 -3 -11 -14 -19 -27 -19 -25 0 -70 -42 -59 -54 5 -5 -3
-5 -17 0 -14 4 -43 7 -65 6 -30 -2 -36 0 -25 8 13 8 12 11 -7 16 -16 4 -21 13
-21 34 1 16 7 31 14 34 8 3 11 12 8 21 -3 8 -1 15 5 15 9 0 9 5 0 21 -7 14 -8
24 -1 31 6 6 8 17 5 25 -4 9 3 16 17 20 15 4 20 11 17 24 -5 17 -1 19 46 28 4
0 7 -3 7 -7z m-135 -62 c3 -5 1 -10 -4 -10 -6 0 -11 5 -11 10 0 6 2 10 4 10 3
0 8 -4 11 -10z m13 -57 c-3 -29 -20 -36 -50 -21 -26 12 -22 25 10 36 41 15 44
14 40 -15z m677 -3 c6 0 -8 -10 -29 -20 -28 -14 -43 -17 -50 -9 -15 14 20 40
48 34 12 -2 26 -4 31 -5z m-105 -20 c0 -5 -6 -10 -14 -10 -8 0 -18 5 -21 10
-3 6 3 10 14 10 12 0 21 -4 21 -10z m-590 -32 c0 -16 -3 -19 -11 -11 -6 6 -8
16 -5 22 11 17 16 13 16 -11z m190 2 c0 -5 -2 -10 -4 -10 -3 0 -8 5 -11 10 -3
6 -1 10 4 10 6 0 11 -4 11 -10z m-390 -130 c0 -10 20 -14 54 -10 11 1 16 -3
13 -12 -2 -7 -10 -12 -16 -10 -6 1 -11 -4 -11 -10 0 -10 -3 -9 -9 1 -5 7 -22
14 -37 14 -16 0 -34 6 -40 15 -11 16 -39 8 -29 -9 4 -5 1 -9 -4 -9 -6 0 -11 9
-11 20 0 11 7 20 15 20 8 0 15 8 15 18 0 10 3 21 6 24 6 7 54 -39 54 -52z
m-232 -6 c-8 -17 -15 -21 -22 -14 -8 8 -7 13 3 19 7 5 11 14 7 20 -4 7 -1 9 8
5 12 -5 13 -10 4 -30z m74 14 c-7 -7 -12 -8 -12 -2 0 14 12 26 19 19 2 -3 -1
-11 -7 -17z m198 12 c0 -5 -5 -10 -11 -10 -5 0 -7 5 -4 10 3 6 8 10 11 10 2 0
4 -4 4 -10z m461 -11 c14 -22 12 -25 -35 -44 -27 -11 -47 -27 -50 -39 -6 -20
-7 -20 -20 -4 -12 16 -15 16 -51 -2 -36 -18 -39 -18 -51 -2 -7 9 -14 20 -14
25 0 4 -7 7 -16 7 -8 0 -12 -4 -9 -10 7 -12 -22 -70 -35 -70 -6 0 -10 5 -10
10 0 10 -8 21 -37 55 -10 11 -10 14 0 18 8 3 3 12 -13 27 -23 20 -23 22 -4 16
13 -4 26 -1 34 9 16 19 36 19 44 -1 9 -24 8 -26 -14 -19 -11 4 -20 2 -20 -4 0
-6 11 -11 25 -11 15 0 25 6 25 15 0 19 49 32 60 16 9 -15 57 -4 64 14 7 19
115 13 127 -6z m-701 -23 c0 -3 -4 -8 -10 -11 -5 -3 -10 -1 -10 4 0 6 5 11 10
11 6 0 10 -2 10 -4z m290 -50 c-7 -14 -10 -32 -6 -41 3 -9 2 -13 -4 -10 -13 8
-13 55 0 55 6 0 10 8 10 17 0 9 3 13 7 10 3 -4 1 -18 -7 -31z m66 18 c-3 -9
-6 -19 -6 -24 0 -4 -11 -10 -25 -12 -25 -5 -25 1 4 33 20 22 35 24 27 3z
m-326 -8 c0 -3 -4 -8 -10 -11 -5 -3 -10 -1 -10 4 0 6 5 11 10 11 6 0 10 -2 10
-4z m205 -46 c-3 -5 -12 -10 -18 -10 -7 0 -6 4 3 10 19 12 23 12 15 0z m360
-40 c3 -5 1 -10 -4 -10 -6 0 -11 5 -11 10 0 6 2 10 4 10 3 0 8 -4 11 -10z
m-231 -35 c11 -8 17 -18 13 -21 -4 -4 -14 -1 -23 6 -12 11 -20 11 -35 2 -24
-15 -25 -4 -1 14 21 17 23 17 46 -1z m266 5 c0 -5 -8 -10 -17 -10 -15 0 -16 2
-3 10 19 12 20 12 20 0z m-176 -30 c5 -5 1 -9 -10 -8 -10 0 -27 -3 -36 -7 -14
-6 -18 -2 -18 15 0 19 4 21 28 15 15 -3 31 -10 36 -15z m40 5 c3 -9 0 -15 -9
-15 -9 0 -12 6 -9 15 4 8 7 15 9 15 2 0 5 -7 9 -15z m-382 -24 c15 -18 14 -31
-2 -31 -4 0 -12 11 -18 25 -14 30 -3 33 20 6z m188 -1 c0 -5 -4 -10 -10 -10
-5 0 -10 5 -10 10 0 6 5 10 10 10 6 0 10 -4 10 -10z m90 -60 c0 -11 -7 -20
-15 -20 -8 0 -15 5 -15 10 0 6 -12 4 -29 -5 -27 -13 -29 -13 -26 3 2 9 4 20 4
25 1 4 19 7 41 7 33 0 40 -3 40 -20z m-277 -5 c-3 -9 -8 -14 -10 -11 -3 3 -2
9 2 15 9 16 15 13 8 -4z m392 -5 c3 -5 2 -10 -4 -10 -5 0 -13 5 -16 10 -3 6
-2 10 4 10 5 0 13 -4 16 -10z m-75 -24 c0 -9 -30 -14 -35 -6 -4 6 3 10 14 10
12 0 21 -2 21 -4z m-112 -31 c-3 -3 -9 2 -12 12 -6 14 -5 15 5 6 7 -7 10 -15
7 -18z m110 -17 c-16 -5 -28 -15 -28 -20 0 -6 -3 -8 -6 -5 -11 11 17 37 40 36
18 0 17 -2 -6 -11z m-103 -28 c3 -5 -1 -10 -9 -10 -9 0 -16 5 -16 10 0 6 4 10
9 10 6 0 13 -4 16 -10z m165 2 c0 -13 -12 -22 -22 -16 -10 6 -1 24 13 24 5 0
9 -4 9 -8z m-30 -36 c0 -3 -4 -8 -10 -11 -5 -3 -10 -1 -10 4 0 6 5 11 10 11 6
0 10 -2 10 -4z m-96 -32 c8 -22 -3 -32 -14 -14 -7 12 -12 12 -22 2 -16 -16
-48 -15 -48 1 0 21 10 27 46 27 20 0 34 -6 38 -16z m60 -18 c-7 -17 -34 -23
-34 -6 0 9 32 31 38 26 1 -2 0 -11 -4 -20z m-410 -51 c-19 -14 -19 -14 0 -15
18 0 18 -1 1 -20 -25 -27 -32 -25 -31 9 1 16 4 27 9 24 4 -2 7 1 7 6 0 6 8 11
17 11 15 0 14 -2 -3 -15z m246 -35 c27 -27 25 -34 -5 -14 -14 9 -25 20 -25 25
0 14 8 11 30 -11z m-207 -16 c-4 -12 0 -14 23 -8 28 6 28 6 9 -9 -11 -9 -25
-17 -32 -17 -6 0 -14 -6 -17 -12 -3 -7 -3 -3 0 10 6 23 -11 32 -19 10 -2 -7
-8 -10 -12 -5 -10 9 34 58 46 51 4 -2 6 -11 2 -20z m95 -30 c-4 -3 -12 5 -18
18 -12 22 -12 22 6 6 10 -10 15 -20 12 -24z m70 -23 c15 -11 12 -12 -23 -6
-47 8 -47 8 -39 28 3 9 12 13 20 10 8 -3 15 1 15 8 1 8 3 5 6 -6 3 -11 12 -26
21 -34z m32 29 c0 -5 -5 -10 -11 -10 -5 0 -7 5 -4 10 3 6 8 10 11 10 2 0 4 -4
4 -10z m-290 -30 c0 -5 -2 -10 -4 -10 -3 0 -8 5 -11 10 -3 6 -1 10 4 10 6 0
11 -4 11 -10z m219 -37 c2 -2 -6 -3 -18 -3 -12 0 -19 4 -16 10 3 6 1 10 -4 10
-6 0 -11 5 -11 12 0 6 10 3 23 -8 12 -10 24 -20 26 -21z m181 7 c0 -5 -2 -10
-4 -10 -3 0 -8 5 -11 10 -3 6 -1 10 4 10 6 0 11 -4 11 -10z m-206 -46 c6 -15
4 -15 -11 -3 -10 7 -20 15 -22 16 -2 2 3 3 11 3 9 0 19 -7 22 -16z m36 6 c0
-13 27 -13 33 0 3 6 4 5 3 -2 -4 -19 -41 -21 -56 -3 -10 12 -10 15 4 15 9 0
16 -4 16 -10z m-135 -50 c3 -5 1 -10 -4 -10 -6 0 -11 5 -11 10 0 6 2 10 4 10
3 0 8 -4 11 -10z m-30 -20 c3 -5 1 -10 -4 -10 -6 0 -11 5 -11 10 0 6 2 10 4
10 3 0 8 -4 11 -10z m502 -42 c-3 -8 -6 -5 -6 6 -1 11 2 17 5 13 3 -3 4 -12 1
-19z m-457 8 c0 -3 -4 -8 -10 -11 -5 -3 -10 -1 -10 4 0 6 5 11 10 11 6 0 10
-2 10 -4z m110 -72 c0 -3 -7 -1 -15 6 -8 7 -15 17 -15 22 0 5 7 3 15 -6 8 -8
15 -18 15 -22z m-230 -68 l-21 -21 18 32 c10 18 20 28 22 22 2 -6 -6 -21 -19
-33z m24 -22 c-5 -19 -4 -25 5 -20 6 4 11 1 11 -8 0 -24 -21 -30 -27 -7 -4 17
-8 19 -19 10 -28 -23 -26 1 2 25 36 32 36 32 28 0z m60 11 c-4 -9 1 -18 12
-22 11 -3 22 -11 26 -17 10 -15 -27 -37 -48 -29 -13 5 -11 -2 9 -22 15 -17 27
-34 27 -39 0 -5 -9 2 -21 15 -16 18 -22 20 -28 10 -6 -9 -14 -10 -22 -5 -8 5
-22 7 -32 6 -9 -2 -17 2 -17 8 0 7 5 10 12 8 14 -5 58 35 58 52 0 6 6 8 13 4
9 -5 9 -4 0 6 -12 13 -7 40 8 40 4 0 6 -7 3 -15z m441 5 c-3 -5 -1 -10 4 -10
6 0 11 -9 11 -20 0 -29 -25 -15 -26 15 -1 14 2 25 8 25 5 0 6 -4 3 -10z m-35
-20 c0 -5 -2 -10 -4 -10 -3 0 -8 5 -11 10 -3 6 -1 10 4 10 6 0 11 -4 11 -10z
m-230 -10 c0 -5 -4 -10 -10 -10 -5 0 -10 5 -10 10 0 6 5 10 10 10 6 0 10 -4
10 -10z m-90 -20 c0 -5 -4 -10 -10 -10 -5 0 -7 -7 -4 -15 4 -9 0 -15 -7 -15
-11 0 -11 -2 1 -10 8 -5 11 -12 7 -16 -3 -4 -13 -1 -22 6 -12 10 -13 16 -3 29
8 10 5 9 -10 -3 -13 -11 -22 -14 -22 -7 0 6 11 17 25 23 14 6 25 15 25 20 0 4
5 8 10 8 6 0 10 -4 10 -10z m366 -22 c3 -4 -2 -8 -11 -8 -10 0 -14 -5 -10 -12
4 -7 1 -6 -7 2 -7 9 -21 14 -30 12 -10 -2 -18 1 -18 7 0 12 68 12 76 -1z
m-529 -70 c-3 -8 -6 -5 -6 6 -1 11 2 17 5 13 3 -3 4 -12 1 -19z m480 -10 c50
-33 73 -80 80 -167 l6 -69 -44 -7 c-24 -3 -66 -5 -94 -3 l-50 3 -5 75 c-4 63
-8 75 -24 78 -10 2 -22 -2 -27 -10 -10 -15 -12 -448 -3 -472 10 -25 43 -19 54
10 6 14 10 52 10 85 0 52 -2 59 -20 59 -17 0 -20 7 -20 50 0 43 3 50 20 51 11
0 52 0 90 0 39 0 79 0 90 0 19 -1 20 -8 20 -191 l0 -190 -60 0 c-33 0 -60 3
-60 8 0 4 -4 13 -9 21 -8 12 -15 9 -41 -12 -17 -15 -39 -28 -48 -28 -118 -9
-192 43 -212 151 -12 62 -12 373 -1 443 6 34 18 58 42 84 51 53 81 64 180 61
73 -3 91 -7 126 -30z m499 -2 c54 -32 69 -69 69 -173 0 -83 -2 -94 -24 -117
-14 -14 -30 -26 -38 -26 -7 0 -13 -4 -13 -10 0 -5 6 -10 13 -10 8 0 24 -12 38
-26 23 -24 24 -32 27 -180 l3 -154 -90 0 -90 0 -3 158 c-3 154 -3 157 -25 160
l-23 3 0 -160 0 -161 -95 0 -95 0 0 361 0 361 158 -4 c131 -3 162 -6 188 -22z
m454 -51 l0 -75 -60 0 -60 0 0 -65 0 -65 55 0 55 0 0 -70 0 -70 -55 0 -55 0 0
-80 0 -80 70 0 70 0 0 -70 0 -70 -165 0 -165 0 0 360 0 360 155 0 155 0 0 -75z
m447 -270 c28 -187 52 -348 52 -357 1 -16 -10 -18 -94 -18 l-95 0 0 28 c0 15
-3 44 -7 65 -5 35 -8 38 -37 35 -30 -3 -31 -4 -36 -63 l-5 -60 -99 -3 -98 -3
6 33 c6 38 86 663 86 678 0 7 48 10 137 8 l137 -3 53 -340z m463 270 l0 -75
-55 0 -55 0 0 -285 0 -285 -95 0 -95 0 0 284 0 285 -52 3 -53 3 -3 73 -3 72
206 0 205 0 0 -75z m-401 -101 c66 -15 61 4 61 -212 l-1 -197 -19 36 c-42 80
-92 299 -89 397 0 27 0 27 11 4 6 -12 23 -25 37 -28z m405 -81 c-14 -49 -32
-118 -40 -155 -9 -38 -20 -68 -25 -68 -5 0 -9 65 -9 144 l0 145 43 9 c23 6 45
10 49 11 4 1 -4 -38 -18 -86z m-905 -269 c-8 -10 -26 -14 -48 -12 -34 3 -36 5
-39 41 -3 35 -1 37 25 38 15 0 37 4 48 8 17 7 20 4 23 -26 2 -19 -2 -41 -9
-49z m-565 -230 c10 -10 16 -33 16 -62 l0 -47 -18 30 c-22 35 -34 79 -25 89 9
8 9 8 27 -10z m-518 -31 c-3 -10 -8 -30 -12 -45 -9 -39 -25 -35 -18 5 8 48 12
57 24 57 6 0 9 -8 6 -17z m399 -13 c3 -5 1 -10 -4 -10 -6 0 -11 5 -11 10 0 6
2 10 4 10 3 0 8 -4 11 -10z m287 -32 c-6 -6 -15 -8 -19 -4 -4 4 -1 11 7 16 19
12 27 3 12 -12z m1048 12 c0 -5 -5 -10 -11 -10 -5 0 -7 5 -4 10 3 6 8 10 11
10 2 0 4 -4 4 -10z"/>
<path d="M553 2254 c-8 -22 5 -30 23 -12 14 14 14 16 -1 21 -9 4 -18 1 -22 -9z"/>
<path d="M617 2210 c-16 -5 -38 -19 -49 -32 -11 -13 -24 -22 -29 -20 -5 1 -9
-2 -9 -8 0 -5 7 -10 15 -10 8 0 15 5 15 10 0 6 8 10 17 10 9 0 13 3 10 7 -10
10 13 33 34 33 10 0 21 5 24 10 3 6 5 10 3 9 -2 0 -16 -5 -31 -9z"/>
<path d="M785 2140 c-3 -5 1 -10 9 -10 8 0 18 5 21 10 3 6 -1 10 -9 10 -8 0
-18 -4 -21 -10z"/>
<path d="M643 2123 c-13 -2 -23 -9 -23 -14 0 -13 13 -11 36 6 10 8 17 14 14
13 -3 0 -15 -3 -27 -5z"/>
<path d="M688 2053 c-24 -6 -23 -23 2 -23 11 0 20 7 20 15 0 8 -1 14 -2 14 -2
-1 -11 -3 -20 -6z"/>
<path d="M614 2008 c-3 -4 11 -8 30 -8 20 0 36 5 36 10 0 12 -59 10 -66 -2z"/>
<path d="M506 1975 c4 -8 10 -12 15 -9 11 6 2 24 -11 24 -5 0 -7 -7 -4 -15z"/>
<path d="M870 757 c0 -40 3 -77 6 -80 4 -3 15 -2 26 4 16 9 18 20 16 77 -3 61
-5 67 -25 70 -22 3 -23 0 -23 -71z"/>
<path d="M1731 665 c-7 -55 -15 -115 -18 -132 -5 -32 -4 -33 29 -33 l34 0 -13
121 c-6 66 -14 126 -16 132 -2 7 -9 -33 -16 -88z"/>
<path d="M3028 2513 c7 -3 16 -2 19 1 4 3 -2 6 -13 5 -11 0 -14 -3 -6 -6z"/>
<path d="M234 2475 c8 -8 22 -15 31 -15 15 0 15 2 1 15 -8 8 -22 15 -31 15
-15 0 -15 -2 -1 -15z"/>
<path d="M385 2480 c-3 -5 -2 -10 4 -10 5 0 13 5 16 10 3 6 2 10 -4 10 -5 0
-13 -4 -16 -10z"/>
<path d="M650 2476 c0 -13 6 -15 28 -10 33 8 41 14 19 14 -8 0 -22 3 -31 6
-11 4 -16 1 -16 -10z"/>
<path d="M1260 2479 c0 -5 9 -9 20 -9 11 0 20 2 20 4 0 2 -9 6 -20 9 -11 3
-20 1 -20 -4z"/>
<path d="M1390 2469 c-12 -9 -12 -10 4 -5 10 4 25 1 33 -6 19 -15 41 -19 48
-8 11 18 -63 35 -85 19z"/>
<path d="M1307 2456 c-4 -10 0 -12 14 -9 22 6 26 23 5 23 -8 0 -16 -6 -19 -14z"/>
<path d="M1537 2464 c-12 -13 -8 -20 14 -21 11 -1 19 3 17 9 -5 15 -22 21 -31
12z"/>
<path d="M1165 2450 c3 -5 13 -10 21 -10 8 0 12 5 9 10 -3 6 -13 10 -21 10 -8
0 -12 -4 -9 -10z"/>
<path d="M1591 2398 c-1 -11 -7 -15 -15 -12 -13 5 -14 -2 -7 -34 1 -2 8 4 17
12 8 9 13 24 11 34 -4 16 -5 16 -6 0z"/>
<path d="M1480 2389 c0 -5 5 -7 10 -4 6 3 10 8 10 11 0 2 -4 4 -10 4 -5 0 -10
-5 -10 -11z"/>
<path d="M1515 2390 c3 -5 8 -10 11 -10 2 0 4 5 4 10 0 6 -5 10 -11 10 -5 0
-7 -4 -4 -10z"/>
<path d="M1110 2380 c0 -6 17 -10 37 -10 43 0 39 9 -6 15 -17 2 -31 0 -31 -5z"/>
<path d="M1210 2370 c0 -5 7 -10 15 -10 20 0 19 -26 -1 -34 -36 -14 -3 -17 50
-5 52 11 76 29 41 29 -9 0 -18 7 -21 15 -7 17 -84 22 -84 5z m75 -10 c3 -5 -1
-10 -9 -10 -9 0 -16 5 -16 10 0 6 4 10 9 10 6 0 13 -4 16 -10z"/>
<path d="M1480 2360 c0 -5 5 -10 10 -10 6 0 10 5 10 10 0 6 -4 10 -10 10 -5 0
-10 -4 -10 -10z"/>
<path d="M1045 2280 c-3 -6 1 -7 9 -4 18 7 21 14 7 14 -6 0 -13 -4 -16 -10z"/>
<path d="M5220 2275 c-7 -8 -8 -15 -2 -15 5 0 15 7 22 15 7 8 8 15 2 15 -5 0
-15 -7 -22 -15z"/>
<path d="M1135 2270 c3 -5 8 -10 11 -10 2 0 4 5 4 10 0 6 -5 10 -11 10 -5 0
-7 -4 -4 -10z"/>
<path d="M2020 2265 c0 -5 5 -17 10 -25 5 -8 10 -10 10 -5 0 6 -5 17 -10 25
-5 8 -10 11 -10 5z"/>
<path d="M5235 2210 c-3 -5 -1 -10 4 -10 6 0 11 5 11 10 0 6 -2 10 -4 10 -3 0
-8 -4 -11 -10z"/>
<path d="M978 2133 c7 -3 16 -2 19 1 4 3 -2 6 -13 5 -11 0 -14 -3 -6 -6z"/>
<path d="M5964 2006 c-16 -14 -24 -26 -18 -26 17 0 60 37 53 45 -4 3 -20 -5
-35 -19z"/>
<path d="M3745 1970 c10 -11 20 -18 23 -16 5 6 -23 36 -34 36 -4 0 1 -9 11
-20z"/>
<path d="M5611 1927 c2 -1 13 -9 24 -17 19 -14 19 -14 6 3 -7 9 -18 17 -24 17
-6 0 -8 -1 -6 -3z"/>
<path d="M1475 1889 c-8 -25 -18 -17 90 -72 94 -49 118 -55 63 -16 -18 13 -57
43 -86 66 -29 24 -55 43 -57 43 -2 0 -7 -9 -10 -21z"/>
<path d="M3585 1899 c-4 -6 -5 -12 -2 -15 2 -3 7 2 10 11 7 17 1 20 -8 4z"/>
<path d="M5650 1875 c-14 -8 -20 -14 -14 -15 5 0 19 7 30 15 24 18 16 19 -16
0z"/>
<path d="M5964 1875 c-18 -14 -18 -14 9 -15 17 0 27 5 27 15 0 19 -11 19 -36
0z"/>
<path d="M5946 1810 c-27 -14 -52 -32 -54 -39 -3 -8 16 -2 49 15 30 16 56 30
58 31 1 1 1 5 0 10 -2 4 -26 -3 -53 -17z"/>
<path d="M705 1820 c3 -5 8 -10 11 -10 2 0 4 5 4 10 0 6 -5 10 -11 10 -5 0 -7
-4 -4 -10z"/>
<path d="M3557 1758 c-4 -37 -10 -76 -13 -85 -5 -16 -4 -16 9 0 9 11 13 26 10
34 -3 8 -1 18 4 22 6 3 8 24 4 51 l-7 45 -7 -67z"/>
<path d="M1116 1783 c4 -10 19 -47 34 -83 16 -36 31 -73 34 -82 3 -11 11 -15
21 -12 13 5 12 10 -5 34 -11 15 -17 30 -14 32 3 3 -9 26 -26 51 -16 25 -30 50
-30 55 0 6 -4 14 -10 17 -6 4 -7 -1 -4 -12z"/>
<path d="M2575 1760 c3 -5 8 -10 11 -10 2 0 4 5 4 10 0 6 -5 10 -11 10 -5 0
-7 -4 -4 -10z"/>
<path d="M5258 1753 c7 -3 16 -2 19 1 4 3 -2 6 -13 5 -11 0 -14 -3 -6 -6z"/>
<path d="M2582 1715 c0 -16 2 -22 5 -12 2 9 2 23 0 30 -3 6 -5 -1 -5 -18z"/>
<path d="M2516 1662 c-3 -3 -6 -10 -6 -16 0 -6 5 -4 10 4 8 12 11 11 16 -8 5
-18 9 -20 15 -10 5 7 9 16 9 19 0 9 -37 18 -44 11z"/>
<path d="M2576 1655 c4 -8 8 -15 10 -15 2 0 4 7 4 15 0 8 -4 15 -10 15 -5 0
-7 -7 -4 -15z"/>
<path d="M2591 1594 c0 -11 3 -14 6 -6 3 7 2 16 -1 19 -3 4 -6 -2 -5 -13z"/>
<path d="M2800 1556 c0 -2 8 -10 18 -17 15 -13 16 -12 3 4 -13 16 -21 21 -21
13z"/>
<path d="M5684 1535 c-10 -8 -14 -14 -9 -14 6 0 19 6 29 14 11 8 15 15 10 15
-6 0 -19 -7 -30 -15z"/>
<path d="M2795 1510 c-3 -11 -10 -20 -15 -20 -4 0 -10 -10 -13 -22 -5 -19 -1
-17 23 11 16 18 27 37 24 42 -8 13 -12 11 -19 -11z"/>
<path d="M1036 1494 c-8 -22 -7 -34 3 -34 12 0 21 39 11 45 -4 3 -11 -2 -14
-11z"/>
<path d="M508 1458 c-30 -10 -38 -28 -13 -28 8 0 15 -4 15 -9 0 -5 10 -8 23
-7 19 1 22 6 19 24 -6 29 -11 31 -44 20z"/>
<path d="M5275 1450 c3 -5 10 -10 16 -10 5 0 9 5 9 10 0 6 -7 10 -16 10 -8 0
-12 -4 -9 -10z"/>
<path d="M477 1413 c-4 -3 -7 -11 -7 -17 0 -6 5 -5 12 2 6 6 9 14 7 17 -3 3
-9 2 -12 -2z"/>
<path d="M2108 1383 c-2 -17 -12 -33 -28 -41 -28 -14 -109 -10 -119 6 -9 14
-53 19 -58 6 -3 -10 99 -44 135 -44 28 0 92 49 92 70 0 30 -18 33 -22 3z"/>
<path d="M2525 1360 c-4 -28 -5 -53 -2 -56 2 -3 7 19 11 47 4 28 5 53 3 56 -3
2 -8 -19 -12 -47z"/>
<path d="M1830 1391 c0 -5 5 -13 10 -16 6 -3 10 -2 10 4 0 5 -4 13 -10 16 -5
3 -10 2 -10 -4z"/>
<path d="M2042 1380 c-12 -20 -11 -21 15 -18 17 2 28 9 28 18 0 23 -29 23 -43
0z"/>
<path d="M0 1380 c0 -5 5 -10 10 -10 6 0 10 5 10 10 0 6 -4 10 -10 10 -5 0
-10 -4 -10 -10z"/>
<path d="M5110 1289 c0 -5 5 -7 10 -4 6 3 10 8 10 11 0 2 -4 4 -10 4 -5 0 -10
-5 -10 -11z"/>
<path d="M981 1274 c0 -11 3 -14 6 -6 3 7 2 16 -1 19 -3 4 -6 -2 -5 -13z"/>
<path d="M376 1255 c4 -8 10 -12 15 -9 14 8 10 24 -6 24 -9 0 -12 -6 -9 -15z"/>
<path d="M1480 1265 c0 -6 13 -26 28 -44 26 -32 28 -32 42 -15 9 10 10 15 3
10 -8 -4 -24 6 -42 26 -17 18 -31 28 -31 23z"/>
<path d="M5153 1247 c-24 -6 -43 -14 -43 -19 0 -11 26 -10 48 1 9 5 28 14 42
19 31 13 9 12 -47 -1z"/>
<path d="M5256 1234 c-3 -8 1 -14 9 -14 20 0 28 17 11 23 -8 3 -17 -1 -20 -9z"/>
<path d="M420 1149 c0 -5 5 -7 10 -4 6 3 10 8 10 11 0 2 -4 4 -10 4 -5 0 -10
-5 -10 -11z"/>
<path d="M380 1112 c0 -7 -9 -12 -21 -12 -15 0 -19 -4 -15 -16 3 -9 6 -20 6
-25 0 -5 7 -9 15 -9 10 0 15 10 15 26 0 24 2 25 18 13 16 -13 16 -13 2 6 -8
11 -16 22 -17 24 -2 2 -3 -1 -3 -7z"/>
<path d="M1449 1090 c24 -26 27 -27 44 -12 20 18 12 25 -39 35 l-31 6 26 -29z"/>
<path d="M451 1094 c0 -11 3 -14 6 -6 3 7 2 16 -1 19 -3 4 -6 -2 -5 -13z"/>
<path d="M5115 1070 c3 -5 8 -10 11 -10 2 0 4 5 4 10 0 6 -5 10 -11 10 -5 0
-7 -4 -4 -10z"/>
<path d="M5230 1045 c-11 -13 -10 -14 4 -9 9 3 16 10 16 15 0 13 -6 11 -20 -6z"/>
<path d="M4688 153 c7 -3 16 -2 19 1 4 3 -2 6 -13 5 -11 0 -14 -3 -6 -6z"/>
<path d="M4300 140 c-12 -8 -11 -10 8 -10 12 0 22 5 22 10 0 13 -11 13 -30 0z"/>
<path d="M70 133 c0 -14 19 -38 25 -32 8 8 -5 39 -16 39 -5 0 -9 -3 -9 -7z"/>
<path d="M200 120 c-9 -17 -6 -27 16 -55 22 -29 24 -38 14 -50 -10 -12 -10
-15 3 -15 16 0 28 21 32 56 2 13 -2 21 -11 21 -9 0 -13 -6 -9 -16 3 -9 -4 -5
-16 9 -12 14 -19 33 -16 47 5 28 1 29 -13 3z"/>
<path d="M1209 113 c-6 -16 -14 -47 -18 -70 -8 -38 -6 -43 10 -43 14 0 19 8
20 28 0 15 2 46 5 70 5 48 -2 54 -17 15z"/>
<path d="M4670 130 c0 -5 10 -10 23 -10 18 0 19 2 7 10 -19 13 -30 13 -30 0z"/>
<path d="M155 120 c3 -5 11 -10 16 -10 6 0 7 5 4 10 -3 6 -11 10 -16 10 -6 0
-7 -4 -4 -10z"/>
<path d="M293 115 c-14 -16 -7 -45 11 -45 6 0 11 14 12 30 1 33 -5 37 -23 15z"/>
<path d="M110 100 c-13 -11 -21 -23 -17 -26 3 -3 16 3 28 15 29 27 19 37 -11
11z"/>
<path d="M220 100 c0 -5 5 -10 10 -10 6 0 10 5 10 10 0 6 -4 10 -10 10 -5 0
-10 -4 -10 -10z"/>
<path d="M494 84 c3 -9 6 -25 6 -37 0 -25 16 -54 25 -46 8 9 -17 99 -28 99 -5
0 -6 -7 -3 -16z"/>
<path d="M18 63 c-21 -5 -24 -23 -5 -23 7 0 8 -3 2 -8 -23 -17 -14 -32 18 -31
29 1 30 2 7 8 -15 4 -20 10 -13 14 6 4 24 2 39 -3 15 -6 29 -8 32 -5 3 3 0 5
-7 5 -7 0 -11 6 -8 14 4 10 0 14 -14 11 -12 -2 -19 2 -19 11 0 14 -2 15 -32 7z"/>
<path d="M5610 59 c0 -5 5 -7 10 -4 6 3 10 8 10 11 0 2 -4 4 -10 4 -5 0 -10
-5 -10 -11z"/>
<path d="M5530 44 c0 -8 5 -12 10 -9 6 4 8 11 5 16 -9 14 -15 11 -15 -7z"/>
<path d="M3980 23 c1 -27 1 -27 15 -9 19 25 19 36 0 36 -10 0 -15 -10 -15 -27z"/>
<path d="M128 3 c6 -2 18 -2 25 0 6 3 1 5 -13 5 -14 0 -19 -2 -12 -5z"/>
</g>
</svg>
