<?xml version="1.0" standalone="no"?>
<!DOCTYPE svg PUBLIC "-//W3C//DTD SVG 20010904//EN"
 "http://www.w3.org/TR/2001/REC-SVG-20010904/DTD/svg10.dtd">
<svg version="1.0" xmlns="http://www.w3.org/2000/svg"
 width="498.000000pt" height="269.000000pt" viewBox="0 0 498.000000 269.000000"
 preserveAspectRatio="xMidYMid meet">

<g transform="translate(0.000000,269.000000) scale(0.100000,-0.100000)"
fill="#000000" stroke="none">
<path d="M0 2311 l0 -380 38 15 c20 8 46 19 57 25 12 6 27 11 35 13 33 6 106
30 115 38 5 4 18 8 30 8 11 0 39 7 62 15 23 8 66 15 95 16 29 1 61 6 70 10 10
6 19 5 23 -1 4 -6 10 -8 15 -5 5 3 11 1 14 -4 7 -11 -13 -9 -33 3 -11 7 -13 5
-7 -9 5 -15 4 -16 -8 -6 -12 10 -14 9 -10 -6 4 -15 -6 -23 -48 -40 -87 -36
-226 -88 -340 -129 l-108 -39 0 -97 c0 -94 4 -109 26 -89 5 5 47 22 94 39 47
17 117 43 155 57 76 29 125 39 125 26 0 -12 -26 -32 -32 -26 -3 3 -11 -1 -18
-10 -7 -8 -17 -15 -22 -15 -5 0 -59 -24 -121 -53 -62 -30 -133 -62 -159 -73
l-48 -19 0 -399 c0 -383 1 -398 18 -383 24 22 91 49 102 42 6 -4 10 -2 10 4 0
12 32 2 42 -13 4 -6 8 -17 8 -25 0 -11 -3 -11 -17 0 -11 9 -14 10 -9 2 9 -16
-12 -56 -25 -48 -5 4 -9 2 -9 -4 0 -6 -26 -28 -57 -48 l-58 -38 -2 -105 -3
-105 23 27 c24 29 37 35 37 17 0 -5 -4 -7 -10 -4 -6 4 -7 -1 -3 -12 6 -15 9
-14 17 10 9 24 14 27 36 21 33 -10 149 -14 154 -5 3 4 1 13 -5 21 -7 12 -9 12
-9 1 0 -11 -3 -11 -17 0 -15 12 -16 12 -10 -6 7 -20 7 -20 -8 -1 -11 14 -15
16 -15 5 0 -12 -2 -12 -9 0 -7 11 -9 11 -14 0 -4 -11 -6 -11 -6 -1 -1 7 -5 11
-10 7 -5 -3 -13 0 -17 6 -4 7 -3 9 4 5 5 -3 13 0 15 6 4 9 6 8 6 -2 1 -9 6 -5
14 10 13 27 50 41 46 18 -3 -25 1 -38 12 -38 5 0 7 5 4 10 -3 6 -2 10 4 10 5
0 11 -5 13 -12 3 -9 6 -9 12 0 4 8 -1 16 -16 21 -20 9 -21 10 -3 10 11 0 31
-14 45 -32 18 -25 19 -28 4 -14 -20 16 -34 14 -34 -5 0 -5 5 -6 10 -3 6 3 14
-5 20 -19 5 -14 14 -26 20 -26 14 0 13 -33 -3 -53 -11 -16 -19 -16 -63 -7 -68
15 -104 1 -104 -38 0 -36 18 -52 97 -87 34 -15 70 -36 79 -46 25 -28 31 -112
9 -145 -37 -58 -146 -79 -239 -48 -44 15 -47 18 -41 43 4 14 8 28 10 30 2 2
27 -2 55 -9 56 -13 112 -7 130 15 6 7 10 26 8 42 -3 24 -14 33 -88 69 -47 23
-88 40 -93 37 -4 -2 -6 1 -5 9 2 7 -2 12 -9 11 -8 -2 -11 18 -10 67 1 39 -1
70 -5 70 -3 0 -13 3 -22 6 -13 5 -16 -2 -16 -41 0 -43 2 -46 16 -34 15 13 16
9 11 -41 -4 -30 -7 -59 -7 -63 0 -5 -4 -6 -9 -3 -5 4 -10 -52 -10 -129 l-2
-135 1144 0 1144 0 11 24 c11 24 10 25 -31 28 l-42 3 -1 204 c-1 113 0 211 3
218 3 8 21 13 44 13 l39 0 0 -185 c0 -174 1 -185 19 -185 34 0 114 231 151
434 29 157 25 500 -7 746 l-6 45 -17 -80 c-24 -116 -46 -157 -41 -80 1 11 -6
3 -15 -17 -20 -46 -34 -49 -34 -6 0 18 -4 28 -8 23 -14 -17 -52 -125 -52 -150
0 -13 -4 -27 -10 -30 -16 -10 -11 106 5 135 8 14 14 28 15 33 0 13 -27 8 -40
-8 -20 -25 -34 -17 -16 9 30 46 97 241 132 380 39 161 41 182 15 195 -31 17
-47 70 -65 211 -9 74 -24 166 -33 203 -16 72 -12 164 10 215 18 41 76 109 112
132 42 26 77 25 102 -2 31 -35 35 -54 42 -188 5 -106 9 -125 23 -128 19 -4 23
8 67 193 16 69 25 124 20 130 -5 5 -9 16 -9 25 0 12 2 12 9 1 7 -10 10 -11 16
0 5 7 1 18 -11 28 -10 9 -26 30 -34 46 -8 17 -16 34 -19 40 -3 5 12 -1 32 -12
21 -13 39 -18 42 -12 4 5 2 9 -3 9 -5 0 -21 11 -36 25 -27 25 -31 26 -148 23
l-121 -3 -22 -45 c-36 -71 -108 -251 -168 -420 -31 -85 -65 -182 -77 -215 -12
-33 -43 -125 -69 -205 -99 -301 -225 -567 -364 -773 -59 -87 -85 -111 -112
-105 -10 2 3 37 49 128 124 243 298 640 282 640 -3 0 -22 -37 -44 -82 -40 -83
-99 -184 -155 -268 -51 -75 -219 -300 -224 -300 -3 0 2 10 11 22 172 237 343
560 531 1003 110 260 195 455 236 539 22 44 39 81 39 83 0 1 -520 3 -1155 3
l-1155 0 0 -379z m454 -510 c3 -5 -1 -11 -9 -14 -9 -4 -12 -1 -8 9 6 16 10 17
17 5z m1036 -775 c0 -2 -7 -9 -15 -16 -13 -11 -14 -10 -9 4 5 14 24 23 24 12z
m-54 -64 c-17 -16 -18 -16 -5 5 7 12 15 20 18 17 3 -2 -3 -12 -13 -22z m-283
-484 c30 -11 34 -25 14 -52 -11 -15 -18 -16 -60 -5 -26 6 -62 9 -79 5 -71 -14
-116 -96 -103 -185 17 -114 92 -153 221 -116 15 5 23 0 32 -19 11 -24 9 -27
-21 -43 -21 -11 -56 -17 -102 -17 -108 -1 -172 41 -203 133 -18 51 -14 150 7
196 20 45 80 102 114 109 12 3 31 7 42 10 27 5 104 -3 138 -16z m-661 -154 l3
-166 28 -24 c39 -33 81 -31 118 5 l29 29 0 162 0 161 43 -3 42 -3 -1 -150 c0
-174 -4 -193 -45 -239 -55 -64 -173 -70 -244 -14 -47 37 -55 72 -55 248 l0
160 39 0 40 0 3 -166z m848 79 l0 -88 92 2 93 1 3 86 3 86 40 0 39 0 -2 -217
-3 -218 -37 -3 -38 -3 0 100 0 101 -95 0 -94 0 -3 -98 -3 -97 -37 -3 -38 -3 0
220 0 221 40 0 40 0 0 -87z m798 50 l3 -33 -106 0 -106 0 3 -52 3 -51 88 2 87
2 0 -35 0 -36 -90 0 -90 0 0 -65 0 -65 110 0 110 0 0 -35 0 -36 -147 3 -148 3
-3 205 c-1 112 0 210 3 218 3 10 36 12 142 10 l138 -3 3 -32z m-2093 -172 c3
-5 1 -12 -5 -16 -5 -3 -10 1 -10 9 0 18 6 21 15 7z"/>
<path d="M3068 2683 c-10 -2 -18 -8 -18 -13 0 -4 -24 -20 -54 -34 -30 -15 -57
-33 -60 -41 -3 -8 -12 -15 -20 -15 -8 0 -17 -6 -19 -12 -3 -7 -6 2 -6 20 -1
19 4 32 11 32 9 0 9 3 0 12 -7 7 -12 20 -12 31 0 10 -4 15 -10 12 -5 -3 -10
-29 -9 -58 1 -58 -33 -178 -56 -197 -8 -7 -15 -17 -15 -22 0 -5 -16 -34 -36
-64 -37 -55 -37 -55 -78 -49 -42 7 -43 1 -4 -19 15 -7 23 -21 23 -36 0 -21 -5
-26 -32 -28 -17 -2 -37 -10 -43 -18 -11 -12 -5 -14 36 -14 43 -1 47 -2 32 -14
-10 -7 -21 -27 -24 -45 -4 -17 -15 -36 -26 -42 -27 -15 -13 -30 18 -19 32 12
74 13 74 1 0 -5 -12 -11 -27 -14 -46 -10 -55 -22 -61 -77 l-5 -51 39 20 c21
11 40 19 42 16 2 -2 -15 -22 -38 -44 l-42 -40 7 -57 c5 -42 18 -75 48 -123 53
-85 155 -228 167 -236 5 -3 27 14 50 39 22 24 55 53 73 65 17 11 79 52 136 91
58 38 107 68 109 65 6 -6 -211 -232 -289 -301 -72 -65 -98 -73 -137 -45 l-30
21 -8 -148 -8 -147 -23 135 c-12 74 -25 149 -28 165 -3 17 -8 52 -11 79 -3 27
-23 94 -46 150 -74 185 -75 158 -9 -164 15 -68 20 -119 16 -145 -15 -91 -17
-100 -25 -110 -4 -5 -11 -66 -15 -135 -18 -328 -22 -317 75 -209 42 46 100
113 130 149 64 76 116 131 105 110 -5 -8 -43 -62 -85 -120 -111 -154 -153
-222 -236 -390 l-53 -105 142 -5 142 -5 3 -32 3 -33 -105 0 -106 0 0 -50 0
-50 95 0 95 0 0 -35 0 -35 -94 0 -94 0 2 -38 c2 -20 3 -49 4 -64 l2 -28 105 0
105 0 0 -35 0 -35 -150 0 -150 0 0 218 -1 217 -26 -60 c-14 -33 -54 -115 -89
-182 l-63 -123 65 0 65 0 -3 -32 -3 -33 -91 -3 c-86 -3 -92 -4 -102 -27 l-12
-25 475 0 474 0 35 63 c19 34 46 94 61 132 56 146 119 287 131 292 7 2 20 28
29 56 39 121 109 303 123 319 8 10 19 15 23 12 5 -3 14 7 19 23 6 15 16 39 24
53 7 14 32 61 56 105 84 157 103 190 129 218 30 32 19 30 -56 -10 -73 -38 -73
-38 -89 100 -3 31 -4 57 0 57 3 0 12 -21 19 -47 14 -46 15 -48 48 -45 50 6 95
27 112 54 17 24 38 124 29 133 -3 3 -20 5 -37 5 -70 0 -152 46 -181 101 -18
35 -27 91 -28 164 0 43 8 70 42 138 2 5 -5 4 -17 -3 -17 -9 -26 -9 -37 1 -20
16 -44 63 -44 85 0 9 24 66 54 128 30 61 61 129 69 151 50 136 117 269 117
233 0 -32 -102 -332 -127 -371 -65 -103 -73 -122 -62 -160 8 -30 39 -61 39
-39 0 7 50 31 79 38 7 1 28 16 45 32 61 57 138 67 193 25 20 -16 39 -27 42
-26 11 3 41 -35 30 -39 -5 -2 5 -18 24 -36 l34 -33 13 48 c7 26 16 53 19 58 3
6 5 62 3 125 l-3 115 46 110 c40 95 47 122 52 201 5 76 3 93 -11 107 -16 16
-65 17 -614 16 -328 -1 -605 -3 -614 -6z m420 -385 c6 -40 15 -109 18 -153 l7
-81 -37 -32 c-28 -24 -46 -32 -76 -32 -40 0 -54 15 -25 27 39 14 85 172 85
289 0 30 4 54 8 54 4 0 13 -33 20 -72z m-431 -124 c75 -25 138 -70 178 -128
52 -76 47 -92 -44 -138 -119 -61 -207 -46 -290 48 -58 66 -93 189 -59 210 41
26 150 30 215 8z m122 -391 c-22 -26 -154 -109 -204 -129 -36 -13 -51 -15 -70
-6 -14 7 -25 15 -25 20 0 5 28 18 63 31 34 12 100 39 147 61 97 44 108 47 89
23z m236 -198 c-30 -145 -49 -315 -42 -367 3 -21 2 -40 -2 -43 -10 -6 -65 53
-84 90 -26 52 -46 131 -36 146 6 11 11 7 19 -16 6 -16 19 -48 29 -70 l18 -40
7 55 c14 101 45 213 95 344 22 55 20 20 -4 -99z m-381 -921 c37 -14 -2 -88
-41 -78 -28 8 -29 24 -2 58 23 29 21 28 43 20z m113 -34 c5 0 -7 -41 -17 -59
-8 -17 -17 -20 -38 -15 -41 10 -44 14 -37 43 11 42 22 50 58 40 18 -5 33 -9
34 -9z m72 -19 c24 -15 0 -65 -33 -69 -39 -5 -47 7 -31 46 14 32 36 40 64 23z
m71 -30 c0 -19 -24 -51 -39 -51 -16 0 -19 13 -9 41 12 34 48 41 48 10z m-180
-85 c117 -1 145 -14 136 -59 -3 -17 -8 -32 -10 -34 -2 -3 -25 3 -50 11 -57 20
-77 20 -121 2 -42 -18 -65 -52 -74 -113 -18 -123 50 -210 149 -188 29 6 29 8
32 77 3 79 16 96 62 84 l27 -7 -3 -112 -3 -112 -105 1 c-125 0 -174 20 -217
85 -22 34 -27 55 -31 123 -5 94 9 135 61 187 22 23 27 33 18 42 -18 18 -13 29
11 21 12 -4 65 -7 118 -8z m-446 -471 c4 -12 -3 -15 -29 -15 -26 0 -33 3 -29
15 4 8 16 15 29 15 13 0 25 -7 29 -15z"/>
<path d="M3062 2003 c2 -10 10 -18 18 -18 8 0 16 8 18 18 2 12 -3 17 -18 17
-15 0 -20 -5 -18 -17z"/>
<path d="M4434 2681 c3 -4 -1 -42 -10 -82 -15 -73 -54 -149 -75 -149 -7 0 -9
-11 -6 -29 16 -80 -90 -518 -139 -572 -11 -12 -13 -27 -9 -51 4 -23 0 -51 -14
-88 -11 -29 -18 -57 -15 -62 3 -4 1 -8 -4 -8 -13 0 -116 -103 -114 -113 3 -12
-68 -138 -94 -167 -12 -14 -44 -65 -70 -115 -26 -49 -58 -107 -71 -127 -12
-21 -23 -40 -23 -43 0 -3 -25 -44 -55 -90 -30 -47 -55 -90 -55 -96 0 -6 -23
-58 -51 -116 -28 -58 -52 -115 -54 -127 -1 -11 -14 -47 -29 -80 -30 -68 -31
-76 -11 -76 20 0 42 -46 113 -235 85 -225 82 -207 31 -203 -41 3 -44 5 -59 45
-9 24 -20 47 -25 52 -6 5 -47 6 -92 4 l-82 -6 -16 -48 c-16 -48 -17 -49 -59
-49 -36 0 -45 -4 -54 -25 l-12 -25 850 0 850 0 0 299 0 300 -30 44 c-16 25
-30 50 -30 55 0 6 -6 17 -12 24 -18 20 -118 214 -128 248 -7 24 -5 29 13 34
24 6 92 -61 153 -149 l34 -50 0 888 0 887 -24 10 c-13 5 -27 13 -30 19 -10 16
12 23 34 11 16 -8 20 -8 20 4 0 8 -6 17 -12 19 -10 4 -10 6 0 6 6 1 12 10 12
21 0 20 -7 20 -276 20 -152 0 -273 -4 -270 -9z m-94 -643 c0 -43 -2 -49 -15
-38 -8 7 -22 10 -30 6 -20 -7 -19 7 5 55 12 22 25 37 30 34 6 -4 10 -29 10
-57z m-15 -115 c-4 -27 -16 -68 -26 -93 -25 -55 -69 -133 -74 -128 -2 2 14 51
36 108 72 186 76 192 64 113z m220 -1443 c23 -9 26 -14 20 -38 -4 -15 -8 -28
-10 -30 -1 -2 -30 2 -62 9 -54 11 -64 10 -99 -7 -52 -26 -77 -72 -77 -144 0
-72 25 -118 77 -144 36 -17 45 -18 100 -7 55 11 61 11 73 -5 22 -31 15 -43
-39 -59 -66 -19 -112 -19 -171 1 -86 29 -127 100 -127 222 0 106 52 182 148
213 32 10 127 4 167 -11z m-646 -57 c30 -38 77 -101 105 -141 l51 -73 3 140 3
141 39 0 40 0 0 -220 0 -220 -33 0 c-31 0 -37 7 -91 91 -33 50 -80 118 -105
152 l-46 62 -5 -150 -5 -150 -37 -3 -38 -3 0 220 0 221 33 0 c28 0 40 -9 86
-67z m1031 32 l0 -35 -100 0 -100 0 0 -50 0 -50 90 0 90 0 0 -35 0 -35 -90 0
-90 0 0 -65 0 -65 105 0 105 0 0 -35 0 -35 -150 0 -150 0 0 213 c0 118 3 217
7 220 3 4 69 7 145 7 l138 0 0 -35z m-340 -292 c0 -14 -2 -14 -20 2 -11 10
-20 22 -20 27 0 5 9 4 20 -2 11 -6 20 -18 20 -27z"/>
<path d="M2413 2418 c-25 -28 -39 -68 -23 -68 6 0 8 -5 5 -10 -4 -6 -11 -8
-16 -5 -5 4 -9 0 -9 -8 0 -23 13 -28 31 -11 20 18 46 13 55 -11 4 -9 -5 -32
-19 -53 -37 -52 -57 -116 -57 -177 0 -84 10 -113 57 -163 l44 -47 -5 51 c-2
28 -10 69 -16 92 -12 38 -11 45 14 97 24 47 27 65 23 118 -4 61 -45 217 -58
217 -3 0 -15 -10 -26 -22z m30 -23 c-5 -16 -33 -21 -33 -7 0 13 22 32 31 26 5
-2 6 -11 2 -19z"/>
<path d="M2411 1289 c-13 -39 -15 -87 -2 -73 9 10 25 104 18 104 -3 0 -10 -14
-16 -31z"/>
<path d="M183 565 c-3 -9 -3 -19 1 -22 3 -4 6 0 6 8 0 12 2 11 10 -1 7 -12 9
-10 7 8 -2 25 -15 29 -24 7z"/>
<path d="M265 511 c-3 -5 -1 -12 5 -16 5 -3 10 1 10 9 0 18 -6 21 -15 7z"/>
<path d="M3471 310 c-17 -45 -31 -83 -31 -85 0 -2 31 -4 69 -4 l68 0 -29 77
c-17 42 -33 81 -38 85 -4 5 -22 -28 -39 -73z"/>
</g>
</svg>
